<svg id="Group_1221" data-name="Group 1221" xmlns="http://www.w3.org/2000/svg" width="235.21" height="219.519" viewBox="0 0 235.21 219.519">
  <path id="Path_907" data-name="Path 907" d="M298.415,230.179s-5.546-11.083-5.869-18.165-5.233-44.733-9.234-57.362S263.3,124.7,248.213,114.32c-3.306-2.269-18.478-10.76-18.478-10.76L227.27,148.2s21.863,25.864,23.1,36.947-5.214,30.774-.978,38.15c7.474,13.147,3.052,6.554,12.012,19.564Z" transform="translate(-82.975 -38.999)" fill="#dee2e8"/>
  <path id="Path_908" data-name="Path 908" d="M261.4,243.343a.479.479,0,0,1-.4-.215l-1.722-2.563c-4.421-6.427-4.421-6.427-6.016-9.381-.783-1.438-1.956-3.619-4.255-7.669-2.514-4.431-1.4-12.717-.205-21.521.822-6.026,1.663-12.257,1.154-16.854-1.2-10.809-22.763-36.428-22.978-36.683a.558.558,0,0,1-.117-.342l2.465-44.645a.489.489,0,0,1,.254-.4.45.45,0,0,1,.47,0c.626.352,15.24,8.549,18.517,10.76,13.9,9.557,30.99,27.028,35.284,40.586,4.04,12.717,8.941,50.153,9.264,57.489.3,6.9,5.742,17.862,5.8,17.97a.479.479,0,0,1,0,.4.469.469,0,0,1-.293.284L261.6,243.275a.4.4,0,0,1-.2.069ZM227.8,148c1.956,2.338,21.882,26.275,23.086,37.064.518,4.715-.333,11-1.164,17.089-1.115,8.236-2.269,16.747.088,20.894s3.482,6.241,4.265,7.689c1.565,2.935,1.565,2.935,5.967,9.283l1.555,2.26,36.145-12.4c-1.1-2.269-5.38-11.533-5.654-17.862-.313-7.092-5.282-44.841-9.215-57.225-3.717-11.738-18.723-28.955-34.912-40.106-2.837-1.956-14.751-8.677-17.745-10.369Z" transform="translate(-82.966 -38.986)" fill="#101a56"/>
  <path id="Path_909" data-name="Path 909" d="M100,230.179s5.546-11.083,5.869-18.165,5.233-44.733,9.234-57.362,20.014-29.953,35.1-40.331c3.306-2.269,18.478-10.76,18.478-10.76l2.465,44.636s-21.863,25.864-23.1,36.947,5.214,30.774.978,38.15c-7.474,13.147-3.052,6.554-12.012,19.564Z" transform="translate(-80.201 -38.999)" fill="#dee2e8"/>
  <path id="Path_910" data-name="Path 910" d="M136.994,243.345a.4.4,0,0,1-.157,0L99.812,230.628a.469.469,0,0,1-.293-.284.479.479,0,0,1,0-.4c.059-.108,5.5-11.073,5.8-17.97.323-7.337,5.224-44.743,9.264-57.489,4.294-13.558,21.384-31.029,35.284-40.586,3.277-2.25,17.891-10.447,18.517-10.76a.45.45,0,0,1,.47,0,.489.489,0,0,1,.254.4l2.465,44.645a.558.558,0,0,1-.117.342c-.215.254-21.775,25.874-22.978,36.683-.509,4.6.333,10.829,1.154,16.854,1.193,8.8,2.309,17.07-.205,21.521-2.3,4.05-3.473,6.231-4.255,7.669-1.594,2.935-1.594,2.935-6.016,9.381l-1.771,2.563a.479.479,0,0,1-.391.147Zm-36.34-13.48,36.145,12.4,1.555-2.26c4.4-6.378,4.4-6.378,5.967-9.283.783-1.448,1.956-3.639,4.265-7.689s1.2-12.658.088-20.895c-.831-6.084-1.683-12.374-1.164-17.089,1.2-10.76,21.119-34.726,23.086-37.064l-2.416-43.667c-2.993,1.692-14.908,8.422-17.745,10.369-16.189,11.132-31.2,28.368-34.912,40.106-3.913,12.384-8.9,50.133-9.215,57.225C106.034,218.332,101.749,227.6,100.654,229.865Z" transform="translate(-80.19 -38.988)" fill="#231f20"/>
  <rect id="Rectangle_481" data-name="Rectangle 481" width="80.868" height="161.208" rx="5.27" transform="translate(77.18 0.489)" fill="#7fd5e5"/>
  <path id="Path_911" data-name="Path 911" d="M234.372,199.747H163.8a5.654,5.654,0,0,1-5.644-5.644V43.2A5.654,5.654,0,0,1,163.8,37.56h70.568a5.654,5.654,0,0,1,5.644,5.644V194.1a5.654,5.654,0,0,1-5.644,5.644ZM163.8,38.538a4.676,4.676,0,0,0-4.666,4.666V194.1a4.676,4.676,0,0,0,4.666,4.666h70.568a4.676,4.676,0,0,0,4.666-4.666V43.2a4.676,4.676,0,0,0-4.666-4.666Z" transform="translate(-81.469 -37.56)" fill="#231f20"/>
  <rect id="Rectangle_482" data-name="Rectangle 482" width="72.377" height="124.066" transform="translate(81.426 15.074)" fill="#dee2e8"/>
  <path id="Path_956" data-name="Path 956" d="M261.212,65.77H201.29c-1.827.032-3.281.857-3.29,1.868v7.317c.01,1.03,1.517,1.863,3.378,1.868h52.37c1.866,0,3.378-.836,3.378-1.868V68.108Z" transform="translate(-110.588 -9.807)" fill="#7fd5e5"/>
  <path id="Path_957" data-name="Path 957" d="M261.212,65.77H201.29c-1.827.032-3.281.857-3.29,1.868v7.317c.01,1.03,1.517,1.863,3.378,1.868h52.37c1.866,0,3.378-.836,3.378-1.868V68.108Z" transform="translate(-110.588 3.888)" fill="#7fd5e5"/>
  <path id="Path_912" data-name="Path 912" d="M235.376,177.515H162.989a.5.5,0,0,1-.489-.489V52.989a.489.489,0,0,1,.489-.489h72.387a.489.489,0,0,1,.489.489V177.026A.5.5,0,0,1,235.376,177.515Zm-71.9-.978h71.409V53.449H163.478Z" transform="translate(-81.563 -37.886)" fill="#231f20"/>
  <rect id="Rectangle_483" data-name="Rectangle 483" width="20.102" height="11.602" rx="3.24" transform="translate(107.564 145.166)" fill="#7fd5e5" stroke="#22cae8" stroke-width="1"/>
  <path id="Path_913" data-name="Path 913" d="M206.613,198.049H192.918a3.668,3.668,0,0,1-3.658-3.658v-5.263a3.668,3.668,0,0,1,3.659-3.668h13.695a3.668,3.668,0,0,1,3.658,3.668v5.263a3.668,3.668,0,0,1-3.658,3.659Zm-13.695-11.611a2.69,2.69,0,0,0-2.68,2.69v5.263a2.68,2.68,0,0,0,2.68,2.68h13.695a2.68,2.68,0,0,0,2.68-2.68v-5.263a2.69,2.69,0,0,0-2.68-2.69Z" transform="translate(-82.146 -40.783)" fill="#101a56"/>
  <path id="Path_914" data-name="Path 914" d="M207,45.678H186.389a.5.5,0,0,1-.489-.489.489.489,0,0,1,.489-.489H207a.489.489,0,1,1,0,.978Z" transform="translate(-82.073 -37.716)" fill="#101a56"/>
  <path id="Path_915" data-name="Path 915" d="M213.178,45.678h-2.759a.489.489,0,1,1,0-.978h2.759a.489.489,0,0,1,0,.978Z" transform="translate(-82.597 -37.716)" fill="#101a56"/>
  <path id="Path_916" data-name="Path 916" d="M235.376,60.608H162.989a.5.5,0,0,1-.489-.489.489.489,0,0,1,.489-.489h72.387a.489.489,0,0,1,.489.489A.5.5,0,0,1,235.376,60.608Z" transform="translate(-81.563 -38.041)" fill="#231f20"/>
  <path id="Path_917" data-name="Path 917" d="M261.212,65.77H201.29c-1.827.032-3.281.857-3.29,1.868v7.317c.01,1.03,1.517,1.863,3.378,1.868h52.37c1.866,0,3.378-.836,3.378-1.868V68.108Z" transform="translate(-110.588 -38.175)" fill="#7fd5e5"/>
  <rect id="Rectangle_485" data-name="Rectangle 485" width="64.229" height="8.119" rx="4.06" transform="translate(85.505 126.414)" fill="#101a56"/>
  <path id="Path_922" data-name="Path 922" d="M142.638,236.5s15.984-13.167,17.216-28.26-1.233-30.706.616-34.1,14.732-21.853,17.569-26.783c3.7-6.466-1.849-12.316-5.869-9.851s-19.7,11.386-28.016,23.4a59.376,59.376,0,0,0-9.234,14.468" transform="translate(-80.962 -39.726)" fill="#dee2e8"/>
  <path id="Path_923" data-name="Path 923" d="M142.627,236.98a.509.509,0,0,1-.382-.186.489.489,0,0,1,.068-.685c.157-.127,15.847-13.216,17.04-27.918a176.582,176.582,0,0,0,.1-20.924c-.254-6.691-.43-11.513.577-13.372.9-1.643,4.363-6.789,8.021-12.228,3.972-5.869,8.09-12.022,9.538-14.565,1.956-3.492,1.125-6.759-.626-8.452a3.639,3.639,0,0,0-4.549-.743l-1.066.655c-5.243,3.169-19.163,11.572-26.8,22.606a59.964,59.964,0,0,0-9.2,14.4.5.5,0,0,1-.646.245.509.509,0,0,1-.245-.655,59.983,59.983,0,0,1,9.332-14.595c7.708-11.152,21.755-19.642,27.047-22.831l1.066-.655a4.617,4.617,0,0,1,5.732.871c2.025,1.956,3.052,5.693.8,9.645-1.467,2.573-5.6,8.7-9.577,14.624-3.649,5.419-7.092,10.545-7.972,12.149s-.695,6.583-.46,12.863a178.555,178.555,0,0,1-.1,21.041c-1.233,15.123-17.236,28.466-17.392,28.593A.5.5,0,0,1,142.627,236.98Z" transform="translate(-80.951 -39.715)" fill="#231f20"/>
  <path id="Path_924" data-name="Path 924" d="M145.466,261.084a34.239,34.239,0,0,0,.871-6.671c0-2.837-2.935-6.906-2.935-6.906l1.78-9.136S99.207,220.44,97.358,222.9s-5.546,15.465-5.546,15.465-5.869,3.473-7.7,7.092c-1.066,2.084-2.935,9.616-4.353,15.651Z" transform="translate(-79.76 -41.594)" fill="#22cae8"/>
  <path id="Path_925" data-name="Path 925" d="M256.374,236.5s-15.984-13.167-17.216-28.26,1.233-30.706-.616-34.1-14.732-21.853-17.569-26.783c-3.7-6.466,1.849-12.316,5.869-9.851s19.7,11.386,28.016,23.4a59.377,59.377,0,0,1,9.234,14.468" transform="translate(-82.811 -39.726)" fill="#dee2e8"/>
  <path id="Path_926" data-name="Path 926" d="M256.364,236.98a.5.5,0,0,1-.313-.117c-.156-.127-16.16-13.47-17.392-28.593a178.561,178.561,0,0,1-.1-21.041c.235-6.28.421-11.24-.46-12.863s-4.324-6.73-7.972-12.149c-3.981-5.928-8.109-12.051-9.577-14.624-2.25-3.913-1.223-7.689.8-9.645a4.617,4.617,0,0,1,5.732-.871l1.066.655c5.292,3.189,19.339,11.68,27.1,22.89h0a60.306,60.306,0,0,1,9.283,14.517.509.509,0,0,1-.245.655.5.5,0,0,1-.646-.245,59.787,59.787,0,0,0-9.146-14.34c-7.689-11.093-21.609-19.5-26.852-22.665l-1.066-.655a3.639,3.639,0,0,0-4.549.743c-1.751,1.692-2.622,4.96-.626,8.452,1.448,2.543,5.566,8.657,9.538,14.565,3.658,5.439,7.121,10.584,8.021,12.228.978,1.859.831,6.681.577,13.372a176.569,176.569,0,0,0,.1,20.924c1.193,14.673,16.884,27.791,17.04,27.918a.489.489,0,0,1,.069.685.509.509,0,0,1-.382.205Z" transform="translate(-82.801 -39.715)" fill="#231f20"/>
  <line id="Line_54" data-name="Line 54" x2="41.877" y2="12.658" transform="translate(17.05 196.776)" fill="#fff"/>
  <path id="Path_955" data-name="Path 955" d="M261.212,65.77H201.29c-1.827.032-3.281.857-3.29,1.868v7.317c.01,1.03,1.517,1.863,3.378,1.868h52.37c1.866,0,3.378-.836,3.378-1.868V68.108Z" transform="translate(-110.588 -24.48)" fill="#7fd5e5"/>
  <path id="Path_927" data-name="Path 927" d="M139.056,251.857h-.147L97.042,239.189a.479.479,0,0,1-.333-.607.5.5,0,0,1,.616-.323l41.867,12.658a.489.489,0,0,1,.333.607A.5.5,0,0,1,139.056,251.857Z" transform="translate(-80.129 -41.934)" fill="#231f20"/>
  <path id="Path_928" data-name="Path 928" d="M253.05,261.084h65.677c-1.409-6.006-3.287-13.538-4.353-15.651-1.849-3.619-7.7-7.092-7.7-7.092s-3.7-13-5.546-15.465S253.3,238.34,253.3,238.34l1.78,9.136s-2.935,4.069-2.935,6.906A34.238,34.238,0,0,0,253.05,261.084Z" transform="translate(-83.517 -41.594)" fill="#22cae8"/>
  <path id="Path_929" data-name="Path 929" d="M299.159,240,261.42,251.416" transform="translate(-83.719 -41.972)" fill="#fff"/>
  <path id="Path_930" data-name="Path 930" d="M261.429,251.884a.5.5,0,0,1-.47-.352.489.489,0,0,1,.333-.606l37.739-11.416a.508.508,0,0,1,.274.978L261.566,251.9Z" transform="translate(-83.709 -41.961)" fill="#231f20"/>
  <rect id="Rectangle_486" data-name="Rectangle 486" width="79.166" height="44.166" rx="7.49" transform="translate(15.544 25.492)" fill="#22cae8"/>
  <circle id="Ellipse_262" data-name="Ellipse 262" cx="13.832" cy="13.832" r="13.832" transform="translate(22.176 31.977)" fill="#fff"/>
  <path id="Path_936" data-name="Path 936" d="M117.746,78.78s1.36,1.956,1.047,2.357-1.223.127-1.223.127" transform="translate(-80.584 -38.458)" fill="#fff"/>
  <path id="Path_941" data-name="Path 941" d="M167.894,78.028H135.809a.489.489,0,0,1,0-.978h32.085a.489.489,0,1,1,0,.978Z" transform="translate(-80.971 -38.421)" fill="#101a56"/>
  <path id="Path_942" data-name="Path 942" d="M167.894,86.668H135.809a.489.489,0,0,1,0-.978h32.085a.489.489,0,1,1,0,.978Z" transform="translate(-80.971 -38.609)" fill="#101a56"/>
  <path id="Path_943" data-name="Path 943" d="M160.214,95.318H135.759a.489.489,0,1,1,0-.978h24.455a.489.489,0,1,1,0,.978Z" transform="translate(-80.97 -38.798)" fill="#101a56"/>
  <path id="Path_944" data-name="Path 944" d="M169.09,108.53s15.113.225,14.888,0-11.954-10.76-11.954-10.76Z" transform="translate(-81.707 -38.872)" fill="#22cae8"/>
  <rect id="Rectangle_487" data-name="Rectangle 487" width="79.166" height="44.166" rx="7.49" transform="translate(218.492 50.837) rotate(180)" fill="#22cae8"/>
  <circle id="Ellipse_265" data-name="Ellipse 265" cx="13.832" cy="13.832" r="13.832" transform="translate(146.604 13.147)" fill="#fff"/>
  <path id="Path_945" data-name="Path 945" d="M295.094,58.778h-32.1a.489.489,0,1,1,0-.978h32.085a.489.489,0,1,1,0,.978Z" transform="translate(-83.743 -38.001)" fill="#101a56"/>
  <path id="Path_946" data-name="Path 946" d="M295.094,67.428h-32.1a.489.489,0,1,1,0-.978h32.085a.489.489,0,0,1,.02.978Z" transform="translate(-83.743 -38.19)" fill="#101a56"/>
  <path id="Path_947" data-name="Path 947" d="M287.444,76.078H262.989a.489.489,0,1,1,0-.978h24.455a.489.489,0,0,1,0,.978Z" transform="translate(-83.743 -38.378)" fill="#101a56"/>
  <path id="Path_948" data-name="Path 948" d="M229.348,89.28s-15.1.225-14.888,0,11.954-10.76,11.954-10.76Z" transform="translate(-82.696 -38.453)" fill="#22cae8"/>
  <path id="Path_954" data-name="Path 954" d="M246.558,62.72a1.262,1.262,0,0,1,.567-.626,2.329,2.329,0,0,1,.763-.245.978.978,0,0,1,.44,0,.762.762,0,0,1,.274.157.978.978,0,0,1,.4.587,1.2,1.2,0,0,1-.068.587,2.288,2.288,0,0,1-.254.6,1.634,1.634,0,0,1-.978.714,1.683,1.683,0,0,1-1.242-.225" transform="translate(-83.393 -38.089)" fill="#fff"/>
  <g id="_040---Folded-Shirts" data-name="040---Folded-Shirts" transform="translate(151.622 18.316)">
    <g id="Icons" transform="translate(0.281 0.287)">
      <path id="Shape" d="M22.069,19.1v8.034a.968.968,0,0,1-.971.971H8.971A.968.968,0,0,1,8,27.135v-1.28H18.847a.968.968,0,0,0,.971-.971V16.85a2.4,2.4,0,0,0-.042-.45l.6.335.445.248A2.426,2.426,0,0,1,22.069,19.1Z" transform="translate(-5.749 -11.785)" fill="#485189"/>
      <path id="Shape-2" data-name="Shape" d="M21.225,20.359v8.034a.968.968,0,0,1-.971.971H8.971A.968.968,0,0,1,8,28.392v-1.28H18.847a.968.968,0,0,0,.971-.971V18.15l.16.09A2.426,2.426,0,0,1,21.225,20.359Z" transform="translate(-5.749 -13.043)" fill="#2f3979"/>
      <path id="Shape-3" data-name="Shape" d="M14.069,10.146v8.034a.968.968,0,0,1-.971.971H.971A.968.968,0,0,1,0,18.179V10.146A2.426,2.426,0,0,1,1.247,8.027L2.969,7.07H11.1l1.722.957A2.426,2.426,0,0,1,14.069,10.146Z" transform="translate(0 -5.081)" fill="#cfd8dc"/>
      <path id="Shape-4" data-name="Shape" d="M13.225,10.146v8.034a.968.968,0,0,1-.971.971H.971A.968.968,0,0,1,0,18.179V10.146A2.426,2.426,0,0,1,1.247,8.027L2.969,7.07h7.288l1.722.957A2.426,2.426,0,0,1,13.225,10.146Z" transform="translate(0 -5.081)" fill="#f5f5f5"/>
      <g id="Group_1218" data-name="Group 1218" transform="translate(4.784 6.472)">
        <circle id="Oval" cx="0.563" cy="0.563" r="0.563" fill="#545c60"/>
        <circle id="Oval-2" data-name="Oval" cx="0.563" cy="0.563" r="0.563" transform="translate(0 2.251)" fill="#545c60"/>
        <circle id="Oval-3" data-name="Oval" cx="0.563" cy="0.563" r="0.563" transform="translate(0 4.502)" fill="#545c60"/>
      </g>
      <path id="Shape-5" data-name="Shape" d="M17.861.484A10.955,10.955,0,0,0,14.465,0a10.955,10.955,0,0,0-3.4.484,3.189,3.189,0,0,0-.729,2.184,10.161,10.161,0,0,0,2.67,2.184,3.559,3.559,0,0,1,1.455-1.688A3.6,3.6,0,0,1,15.92,4.851a10.161,10.161,0,0,0,2.67-2.184A3.189,3.189,0,0,0,17.861.484Z" transform="translate(-7.43 0)" fill="#d1d4d1"/>
      <path id="Shape-6" data-name="Shape" d="M14.465,4.369A3.6,3.6,0,0,0,13.01,6.057a10.161,10.161,0,0,1-2.67-2.184,3.189,3.189,0,0,1,.729-2.184,8.509,8.509,0,0,0,1.055,1.156A8.16,8.16,0,0,0,14.465,4.369Z" transform="translate(-7.43 -1.214)" fill="#cfd8dc"/>
      <path id="Shape-7" data-name="Shape" d="M19.723.484A8.509,8.509,0,0,1,18.667,1.64a16.126,16.126,0,0,0-2.341-.186,16.126,16.126,0,0,0-2.341.186A8.509,8.509,0,0,1,12.93.484,10.955,10.955,0,0,1,16.326,0a10.955,10.955,0,0,1,3.4.484Z" transform="translate(-9.292 0)" fill="#9e9e9e"/>
      <path id="Shape-8" data-name="Shape" d="M21.362,5.356A8.16,8.16,0,0,1,19.021,6.87,8.16,8.16,0,0,1,16.68,5.356a16.126,16.126,0,0,1,2.341-.186A16.126,16.126,0,0,1,21.362,5.356Z" transform="translate(-11.986 -3.715)" fill="#37474f"/>
      <path id="Shape-9" data-name="Shape" d="M29.125,3.925a10.161,10.161,0,0,1-2.67,2.184A3.559,3.559,0,0,0,25,4.42a8.16,8.16,0,0,0,2.341-1.514A8.509,8.509,0,0,0,28.4,1.75,3.153,3.153,0,0,1,29.125,3.925Z" transform="translate(-17.965 -1.258)" fill="#cfd8dc"/>
    </g>
    <g id="Layer_9" transform="translate(0 0)">
      <path id="Shape-10" data-name="Shape" d="M15.493,6.219,14.55,5.7a2.7,2.7,0,0,0-1.311-1.731l-1.6-.892a3.188,3.188,0,0,0-.718-1.525.3.3,0,0,0-.084-.062,12.466,12.466,0,0,0-7.035,0,.3.3,0,0,0-.084.062A3.188,3.188,0,0,0,3,3.062l-1.607.9A2.713,2.713,0,0,0,0,6.332v8.034a1.255,1.255,0,0,0,1.252,1.252h1v1A1.255,1.255,0,0,0,3.5,17.869H15.631a1.255,1.255,0,0,0,1.252-1.252V8.583a2.7,2.7,0,0,0-1.39-2.364ZM12.961,4.458a2.147,2.147,0,0,1,1.109,1.874v8.034a.689.689,0,0,1-.689.689H7.6V4.945a3.813,3.813,0,0,1,.915,1.277.281.281,0,0,0,.4.141,10.389,10.389,0,0,0,2.749-2.251c.079-.1.062-.2.056-.349ZM7.316,4.115A7.929,7.929,0,0,1,5.642,3.1a15.31,15.31,0,0,1,3.348,0A7.929,7.929,0,0,1,7.316,4.115Zm3.377-1.9a3.191,3.191,0,0,1,.45,1.621A10.1,10.1,0,0,1,8.892,5.719a4.063,4.063,0,0,0-1-1.255,9.021,9.021,0,0,0,2.811-2.251Zm-.45-.338a7.879,7.879,0,0,1-.675.732,15.634,15.634,0,0,0-4.5,0,7.879,7.879,0,0,1-.692-.732,13.65,13.65,0,0,1,5.884,0Zm-6.32.338A8.875,8.875,0,0,0,6.736,4.464a4.063,4.063,0,0,0-1,1.255A10.1,10.1,0,0,1,3.489,3.833,3.216,3.216,0,0,1,3.923,2.212ZM.563,14.365V6.332a2.147,2.147,0,0,1,1.1-1.874l1.249-.7c0,.155-.023.248.056.349A10.389,10.389,0,0,0,5.721,6.363a.281.281,0,0,0,.4-.141,3.692,3.692,0,0,1,.912-1.277v10.11H1.252a.689.689,0,0,1-.689-.689Zm2.251,2.251v-1H9.286v1.688H3.5a.689.689,0,0,1-.689-.689Zm13.506,0a.689.689,0,0,1-.689.689H9.848V15.618H13.38a1.255,1.255,0,0,0,1.252-1.252V6.383l.585.326a2.147,2.147,0,0,1,1.1,1.874Z" transform="translate(0 -0.98)" fill="#101a56"/>
      <path id="Shape-11" data-name="Shape" d="M17.844,25.688A.844.844,0,1,0,17,24.844.844.844,0,0,0,17.844,25.688Zm0-1.126a.281.281,0,1,1-.281.281A.281.281,0,0,1,17.844,24.563Z" transform="translate(-12.216 -17.523)"/>
      <path id="Shape-12" data-name="Shape" d="M17.844,33.688A.844.844,0,1,0,17,32.844.844.844,0,0,0,17.844,33.688Zm0-1.126a.281.281,0,1,1-.281.281A.281.281,0,0,1,17.844,32.563Z" transform="translate(-12.216 -23.271)"/>
      <path id="Shape-13" data-name="Shape" d="M17.844,41.688A.844.844,0,1,0,17,40.844.844.844,0,0,0,17.844,41.688Zm0-1.126a.281.281,0,1,1-.281.281A.281.281,0,0,1,17.844,40.563Z" transform="translate(-12.216 -29.02)"/>
    </g>
  </g>
  <g id="_040---Folded-Shirts-2" data-name="040---Folded-Shirts" transform="translate(27.39 37.88)">
    <g id="Icons-2" data-name="Icons" transform="translate(0.281 0.287)">
      <path id="Shape-14" data-name="Shape" d="M22.069,19.1v8.034a.968.968,0,0,1-.971.971H8.971A.968.968,0,0,1,8,27.135v-1.28H18.847a.968.968,0,0,0,.971-.971V16.85a2.4,2.4,0,0,0-.042-.45l.6.335.445.248A2.426,2.426,0,0,1,22.069,19.1Z" transform="translate(-5.749 -11.785)" fill="#485189"/>
      <path id="Shape-15" data-name="Shape" d="M21.225,20.359v8.034a.968.968,0,0,1-.971.971H8.971A.968.968,0,0,1,8,28.392v-1.28H18.847a.968.968,0,0,0,.971-.971V18.15l.16.09A2.426,2.426,0,0,1,21.225,20.359Z" transform="translate(-5.749 -13.043)" fill="#2f3979"/>
      <path id="Shape-16" data-name="Shape" d="M14.069,10.146v8.034a.968.968,0,0,1-.971.971H.971A.968.968,0,0,1,0,18.179V10.146A2.426,2.426,0,0,1,1.247,8.027L2.969,7.07H11.1l1.722.957A2.426,2.426,0,0,1,14.069,10.146Z" transform="translate(0 -5.081)" fill="#cfd8dc"/>
      <path id="Shape-17" data-name="Shape" d="M13.225,10.146v8.034a.968.968,0,0,1-.971.971H.971A.968.968,0,0,1,0,18.179V10.146A2.426,2.426,0,0,1,1.247,8.027L2.969,7.07h7.288l1.722.957A2.426,2.426,0,0,1,13.225,10.146Z" transform="translate(0 -5.081)" fill="#f5f5f5"/>
      <g id="Group_1218-2" data-name="Group 1218" transform="translate(4.784 6.472)">
        <circle id="Oval-4" data-name="Oval" cx="0.563" cy="0.563" r="0.563" fill="#545c60"/>
        <circle id="Oval-5" data-name="Oval" cx="0.563" cy="0.563" r="0.563" transform="translate(0 2.251)" fill="#545c60"/>
        <circle id="Oval-6" data-name="Oval" cx="0.563" cy="0.563" r="0.563" transform="translate(0 4.502)" fill="#545c60"/>
      </g>
      <path id="Shape-18" data-name="Shape" d="M17.861.484A10.955,10.955,0,0,0,14.465,0a10.955,10.955,0,0,0-3.4.484,3.189,3.189,0,0,0-.729,2.184,10.161,10.161,0,0,0,2.67,2.184,3.559,3.559,0,0,1,1.455-1.688A3.6,3.6,0,0,1,15.92,4.851a10.161,10.161,0,0,0,2.67-2.184A3.189,3.189,0,0,0,17.861.484Z" transform="translate(-7.43 0)" fill="#d1d4d1"/>
      <path id="Shape-19" data-name="Shape" d="M14.465,4.369A3.6,3.6,0,0,0,13.01,6.057a10.161,10.161,0,0,1-2.67-2.184,3.189,3.189,0,0,1,.729-2.184,8.509,8.509,0,0,0,1.055,1.156A8.16,8.16,0,0,0,14.465,4.369Z" transform="translate(-7.43 -1.214)" fill="#cfd8dc"/>
      <path id="Shape-20" data-name="Shape" d="M19.723.484A8.509,8.509,0,0,1,18.667,1.64a16.126,16.126,0,0,0-2.341-.186,16.126,16.126,0,0,0-2.341.186A8.509,8.509,0,0,1,12.93.484,10.955,10.955,0,0,1,16.326,0a10.955,10.955,0,0,1,3.4.484Z" transform="translate(-9.292 0)" fill="#9e9e9e"/>
      <path id="Shape-21" data-name="Shape" d="M21.362,5.356A8.16,8.16,0,0,1,19.021,6.87,8.16,8.16,0,0,1,16.68,5.356a16.126,16.126,0,0,1,2.341-.186A16.126,16.126,0,0,1,21.362,5.356Z" transform="translate(-11.986 -3.715)" fill="#37474f"/>
      <path id="Shape-22" data-name="Shape" d="M29.125,3.925a10.161,10.161,0,0,1-2.67,2.184A3.559,3.559,0,0,0,25,4.42a8.16,8.16,0,0,0,2.341-1.514A8.509,8.509,0,0,0,28.4,1.75,3.153,3.153,0,0,1,29.125,3.925Z" transform="translate(-17.965 -1.258)" fill="#cfd8dc"/>
    </g>
    <g id="Layer_9-2" data-name="Layer_9" transform="translate(0 0)">
      <path id="Shape-23" data-name="Shape" d="M15.493,6.219,14.55,5.7a2.7,2.7,0,0,0-1.311-1.731l-1.6-.892a3.188,3.188,0,0,0-.718-1.525.3.3,0,0,0-.084-.062,12.466,12.466,0,0,0-7.035,0,.3.3,0,0,0-.084.062A3.188,3.188,0,0,0,3,3.062l-1.607.9A2.713,2.713,0,0,0,0,6.332v8.034a1.255,1.255,0,0,0,1.252,1.252h1v1A1.255,1.255,0,0,0,3.5,17.869H15.631a1.255,1.255,0,0,0,1.252-1.252V8.583a2.7,2.7,0,0,0-1.39-2.364ZM12.961,4.458a2.147,2.147,0,0,1,1.109,1.874v8.034a.689.689,0,0,1-.689.689H7.6V4.945a3.813,3.813,0,0,1,.915,1.277.281.281,0,0,0,.4.141,10.389,10.389,0,0,0,2.749-2.251c.079-.1.062-.2.056-.349ZM7.316,4.115A7.929,7.929,0,0,1,5.642,3.1a15.31,15.31,0,0,1,3.348,0A7.929,7.929,0,0,1,7.316,4.115Zm3.377-1.9a3.191,3.191,0,0,1,.45,1.621A10.1,10.1,0,0,1,8.892,5.719a4.063,4.063,0,0,0-1-1.255,9.021,9.021,0,0,0,2.811-2.251Zm-.45-.338a7.879,7.879,0,0,1-.675.732,15.634,15.634,0,0,0-4.5,0,7.879,7.879,0,0,1-.692-.732,13.65,13.65,0,0,1,5.884,0Zm-6.32.338A8.875,8.875,0,0,0,6.736,4.464a4.063,4.063,0,0,0-1,1.255A10.1,10.1,0,0,1,3.489,3.833,3.216,3.216,0,0,1,3.923,2.212ZM.563,14.365V6.332a2.147,2.147,0,0,1,1.1-1.874l1.249-.7c0,.155-.023.248.056.349A10.389,10.389,0,0,0,5.721,6.363a.281.281,0,0,0,.4-.141,3.692,3.692,0,0,1,.912-1.277v10.11H1.252a.689.689,0,0,1-.689-.689Zm2.251,2.251v-1H9.286v1.688H3.5a.689.689,0,0,1-.689-.689Zm13.506,0a.689.689,0,0,1-.689.689H9.848V15.618H13.38a1.255,1.255,0,0,0,1.252-1.252V6.383l.585.326a2.147,2.147,0,0,1,1.1,1.874Z" transform="translate(0 -0.98)" fill="#101a56"/>
      <path id="Shape-24" data-name="Shape" d="M17.844,25.688A.844.844,0,1,0,17,24.844.844.844,0,0,0,17.844,25.688Zm0-1.126a.281.281,0,1,1-.281.281A.281.281,0,0,1,17.844,24.563Z" transform="translate(-12.216 -17.523)"/>
      <path id="Shape-25" data-name="Shape" d="M17.844,33.688A.844.844,0,1,0,17,32.844.844.844,0,0,0,17.844,33.688Zm0-1.126a.281.281,0,1,1-.281.281A.281.281,0,0,1,17.844,32.563Z" transform="translate(-12.216 -23.271)"/>
      <path id="Shape-26" data-name="Shape" d="M17.844,41.688A.844.844,0,1,0,17,40.844.844.844,0,0,0,17.844,41.688Zm0-1.126a.281.281,0,1,1-.281.281A.281.281,0,0,1,17.844,40.563Z" transform="translate(-12.216 -29.02)"/>
    </g>
  </g>
</svg>
