<svg id="Group_1220" data-name="Group 1220" xmlns="http://www.w3.org/2000/svg" width="472.519" height="219.519" viewBox="0 0 472.519 219.519">
  <g id="_74_recycling" data-name="#74_recycling">
    <path id="Path_819" data-name="Path 819" d="M503.737,210.686H32.623a.7.7,0,1,1,0-1.406H503.737a.7.7,0,0,1,0,1.406Z" transform="translate(-31.92 -16.159)" fill="#d1d3d4"/>
    <path id="Path_820" data-name="Path 820" d="M333.516,92.7a59.5,59.5,0,0,0,1.574-7.773,11.625,11.625,0,0,0-1.631-7.6,4.752,4.752,0,0,0-2.418-1.968,2.643,2.643,0,0,0-2.811.829,7.1,7.1,0,0,0-2.9-2.221c-4.681-2.249-11.147-2.474-14.661,1.968a12.918,12.918,0,0,0-2.207,10.233c1.068,5.96,4.217,7.239,9.839,8.434a18.118,18.118,0,0,0,6.143.45,7.815,7.815,0,0,0,5.271-2.91" transform="translate(80.149 -71.685)" fill="#fff"/>
    <path id="Path_821" data-name="Path 821" d="M322.916,96.053a22.631,22.631,0,0,1-4.625-.562c-5.313-1.11-9.165-2.418-10.36-9a13.578,13.578,0,0,1,2.361-10.809c3.8-4.793,10.711-4.484,15.532-2.165a8.265,8.265,0,0,1,2.643,1.8,3.458,3.458,0,0,1,3.008-.464,5.44,5.44,0,0,1,2.811,2.249,12.426,12.426,0,0,1,1.743,8.068,37.716,37.716,0,0,1-1.111,5.847c-.155.675-.323,1.406-.478,2.024a.7.7,0,0,1-.857.548.717.717,0,0,1-.548-.857c.155-.689.309-1.406.478-2.052a38.526,38.526,0,0,0,1.082-5.623,11.245,11.245,0,0,0-1.5-7.141,4.217,4.217,0,0,0-2.038-1.659A1.9,1.9,0,0,0,329,76.81a.745.745,0,0,1-.6.309.7.7,0,0,1-.59-.323,6.41,6.41,0,0,0-2.6-1.968c-4.329-2.08-10.486-2.4-13.775,1.757a12.229,12.229,0,0,0-2.066,9.657c1,5.524,3.7,6.663,9.235,7.829a17.978,17.978,0,0,0,5.876.436,7.028,7.028,0,0,0,4.751-2.614.717.717,0,0,1,1.012-.155.731.731,0,0,1,.169,1.012,8.56,8.56,0,0,1-5.763,3.191,12.484,12.484,0,0,1-1.729.112Z" transform="translate(79.926 -71.89)" fill="#231f20"/>
    <path id="Path_822" data-name="Path 822" d="M314.819,99.19s-6.494,25.892-7.787,26.075-29.181-12.412-29.181-12.412L276.6,132.18s32.892,20.621,38.219,15.94S314.819,99.19,314.819,99.19Z" transform="translate(67.332 -60.815)" fill="#22cae8"/>
    <path id="Path_823" data-name="Path 823" d="M295.31,179.1l47.623,14.619c15.083-26.96,18.934-78.238,14.675-86.138S337.268,96.8,337.268,96.8s-23.755-5.426-30.038,3.992C303.491,106.4,295.31,179.1,295.31,179.1Z" transform="translate(74.921 -62.416)" fill="#22cae8"/>
    <path id="Path_824" data-name="Path 824" d="M309,176.205h-.1a.731.731,0,0,1-.618-.829l10.078-67.935a.717.717,0,0,1,.829-.618.731.731,0,0,1,.6.829l-10.078,67.935a.731.731,0,0,1-.717.618Z" transform="translate(80.18 -57.723)" fill="#231f20"/>
    <path id="Path_825" data-name="Path 825" d="M314.264,101.6l-.759,9.418s2.811,5.847,8.884,4.428a12.44,12.44,0,0,0,8.307-6.719l.084-17.149s-4.484-2.446-3.064-12.215A30.053,30.053,0,0,1,311.9,81.412S309.091,92,309.738,96.706,314.264,101.6,314.264,101.6Z" transform="translate(80.734 -68.859)" fill="#fff"/>
    <path id="Path_826" data-name="Path 826" d="M320.745,116.617c-5.2,0-7.661-5-7.689-5.06a.913.913,0,0,1-.07-.38l.717-8.757a5.988,5.988,0,0,1-4.47-5.384c-.7-4.807,2.066-15.153,2.179-15.589a.717.717,0,0,1,.8-.534A29.729,29.729,0,0,0,327.6,78.932a.689.689,0,0,1,.745,0,.7.7,0,0,1,.3.689c-1.321,9.052,2.657,11.442,2.7,11.47a.745.745,0,0,1,.38.633l-.1,17.149a.675.675,0,0,1,0,.281,13.129,13.129,0,0,1-8.813,7.155,9.417,9.417,0,0,1-2.066.309Zm-6.3-5.524a7.253,7.253,0,0,0,7.984,3.866,11.807,11.807,0,0,0,7.745-6.185l.084-16.6c-1.068-.829-3.978-3.8-3.2-11.442a31.627,31.627,0,0,1-14.394,1.7c-.59,2.305-2.558,10.514-2,14.394s3.725,4.217,3.851,4.217a.7.7,0,0,1,.506.253.731.731,0,0,1,.183.534Z" transform="translate(80.523 -69.077)" fill="#231f20"/>
    <path id="Path_827" data-name="Path 827" d="M312.82,100.26a7.942,7.942,0,0,0,6.241-1.968c2.7-2.558,2.474-4.062,2.474-4.062a14.056,14.056,0,0,1-8.307,1.49Z" transform="translate(82.024 -62.827)" fill="#231f20"/>
    <path id="Path_828" data-name="Path 828" d="M313.951,101.2a8.664,8.664,0,0,1-1.054,0,.717.717,0,0,1-.576-.759l.408-4.526a.717.717,0,0,1,.281-.506.8.8,0,0,1,.562-.126,13.564,13.564,0,0,0,7.843-1.406.7.7,0,0,1,.647,0,.675.675,0,0,1,.365.52c0,.183.2,1.94-2.685,4.667a8.434,8.434,0,0,1-5.791,2.137Zm-.169-1.406a7.211,7.211,0,0,0,5-1.841,9.588,9.588,0,0,0,1.855-2.291,14.183,14.183,0,0,1-6.592,1.054Z" transform="translate(81.82 -63.004)" fill="#231f20"/>
    <path id="Path_836" data-name="Path 836" d="M316.631,85s-2.9,5.3-2.024,6.1,3.05,0,3.05,0" transform="translate(82.682 -66.571)" fill="#fff"/>
    <path id="Path_837" data-name="Path 837" d="M315.974,92.4a2.488,2.488,0,0,1-1.687-.548c-.857-.773-.225-3.121,1.869-7.028a.7.7,0,0,1,1.237.675c-1.265,2.319-2.249,4.821-2.094,5.341a3.8,3.8,0,0,0,2.277-.225.7.7,0,1,1,.464,1.321A6.312,6.312,0,0,1,315.974,92.4Z" transform="translate(82.468 -66.791)" fill="#231f20"/>
    <path id="Path_838" data-name="Path 838" d="M317.544,93.651A8.574,8.574,0,0,1,312.4,91.6a.689.689,0,0,1,0-.984.7.7,0,0,1,1,0,7.028,7.028,0,0,0,4.5,1.687,5.215,5.215,0,0,0,3.6-1.982.731.731,0,0,1,1-.084.717.717,0,0,1,.07,1,6.55,6.55,0,0,1-4.582,2.474Z" transform="translate(81.769 -64.512)" fill="#231f20"/>
    <ellipse id="Ellipse_260" data-name="Ellipse 260" cx="0.59" cy="1.363" rx="0.59" ry="1.363" transform="translate(402.287 16.222) rotate(-3.78)" fill="#231f20"/>
    <ellipse id="Ellipse_261" data-name="Ellipse 261" cx="0.59" cy="1.363" rx="0.59" ry="1.363" transform="translate(394.166 16.224) rotate(-3.78)" fill="#231f20"/>
    <path id="Path_839" data-name="Path 839" d="M321.9,87.144a8.265,8.265,0,0,1,2.094-2.376,2.91,2.91,0,0,1,1.56-.689,2.643,2.643,0,0,1,1.335.394,4.948,4.948,0,0,1,2.347,3.289,3.823,3.823,0,0,1-.07,1.912,4.3,4.3,0,0,1-1.9,2.277,13.085,13.085,0,0,1-2.811,1.195" transform="translate(85.707 -66.945)" fill="#fff"/>
    <path id="Path_840" data-name="Path 840" d="M324.74,94.088a.731.731,0,0,1-.689-.492.745.745,0,0,1,.45-.928,11.765,11.765,0,0,0,2.629-1.124,3.655,3.655,0,0,0,1.588-1.884,3.318,3.318,0,0,0,0-1.546,4.217,4.217,0,0,0-2.01-2.811,1.729,1.729,0,0,0-.942-.3,2.094,2.094,0,0,0-1.139.534,7.394,7.394,0,0,0-1.912,2.165.731.731,0,1,1-1.251-.731,9.093,9.093,0,0,1,2.277-2.586,3.57,3.57,0,0,1,1.968-.829,3.233,3.233,0,0,1,1.729.492,5.707,5.707,0,0,1,2.7,3.767,4.526,4.526,0,0,1-.1,2.263,5.13,5.13,0,0,1-2.137,2.7,13.943,13.943,0,0,1-2.924,1.265Z" transform="translate(85.468 -67.156)" fill="#231f20"/>
    <path id="Path_841" data-name="Path 841" d="M295.643,126.577,290.4,143.163s26.229,17.809,43.308,20.846,25.822-30.01,27.916-41.944-2.263-19.974-5.763-19.117S331.037,141.8,331.037,141.8Z" transform="translate(72.929 -59.316)" fill="#22cae8"/>
    <path id="Path_842" data-name="Path 842" d="M335.463,157.152c-10.57,0-41-19.06-42.366-19.918a.723.723,0,0,1,.773-1.223c11.934,7.506,36.223,21.239,42.745,19.566,8.111-2.094,19.848-29.982,19.974-30.263a.731.731,0,0,1,1.335.562c-.492,1.181-12.145,28.844-20.944,31.107A6.268,6.268,0,0,1,335.463,157.152Z" transform="translate(73.887 -50.365)" fill="#231f20"/>
    <path id="Path_843" data-name="Path 843" d="M329.253,140.269a1.111,1.111,0,0,1-.281,0L295.236,126a.731.731,0,0,1-.379-.956.7.7,0,0,1,.942-.38l33.159,14.056L346.8,108.811a.745.745,0,0,1,1-.253.731.731,0,0,1,.239,1L329.885,140a.731.731,0,0,1-.633.267Z" transform="translate(74.714 -57.055)" fill="#231f20"/>
    <path id="Path_844" data-name="Path 844" d="M302.919,129.72h-.1a.731.731,0,0,1-.618-.815c.562-4.315,4.695-23.5,4.878-24.318a.717.717,0,0,1,.857-.562.7.7,0,0,1,.548.857c0,.211-4.287,19.946-4.849,24.205a.731.731,0,0,1-.717.633Z" transform="translate(77.714 -58.861)" fill="#231f20"/>
    <path id="Path_845" data-name="Path 845" d="M322.11,90a4.54,4.54,0,0,1-1.954-.394c-.337-.169-.675-.38-1-.576a6.3,6.3,0,0,0-.661-.394,1.025,1.025,0,0,0-.323-.141.576.576,0,0,0-.281,0,7.408,7.408,0,0,0-1.223.492,5.623,5.623,0,0,1-6-.211,6.3,6.3,0,0,1-3.064-5.833.717.717,0,0,1,.717-.661h20.93a.731.731,0,0,1,.618.337.745.745,0,0,1,0,.689,16.6,16.6,0,0,1-3.8,5.426A7.281,7.281,0,0,1,322.11,90Zm-3.978-2.952h.267a2.193,2.193,0,0,1,.787.3l.745.436a8.916,8.916,0,0,0,.871.52,5.482,5.482,0,0,0,4.5-.689,12.651,12.651,0,0,0,2.811-3.851h-19.06a4.709,4.709,0,0,0,2.333,3.753,5.538,5.538,0,0,0,2.811.759,5.622,5.622,0,0,0,1.785-.6,10.861,10.861,0,0,1,1.406-.562,2.615,2.615,0,0,1,.745-.056Zm11.119-3.275Z" transform="translate(79.902 -67.675)" fill="#231f20"/>
    <rect id="Rectangle_476" data-name="Rectangle 476" width="77.886" height="73.979" transform="translate(39.878 135.518)" fill="#dee2e8"/>
    <path id="Path_848" data-name="Path 848" d="M138.379,243.184H60.493a.7.7,0,0,1-.7-.7V168.5a.7.7,0,0,1,.7-.7h77.886a.7.7,0,0,1,.7.7v73.979a.7.7,0,0,1-.7.7ZM61.2,241.779h76.481V169.206H61.2Z" transform="translate(-20.615 -32.985)" fill="#231f20"/>
    <path id="Path_849" data-name="Path 849" d="M50.63,159.551v4.807a12.651,12.651,0,0,0,12.651,12.651H230.8V146.9H63.267A12.651,12.651,0,0,0,50.63,159.551Z" transform="translate(-24.33 -41.462)" fill="#7fd5e5"/>
    <path id="Path_850" data-name="Path 850" d="M231.008,177.9H63.47a13.354,13.354,0,0,1-13.34-13.34v-4.807A13.368,13.368,0,0,1,63.469,146.4H231.008a.717.717,0,0,1,.7.7V177.2A.717.717,0,0,1,231.008,177.9ZM63.47,147.806a11.948,11.948,0,0,0-11.934,11.948v4.807A11.948,11.948,0,0,0,63.47,176.495H230.3V147.806Z" transform="translate(-24.533 -41.665)" fill="#231f20"/>
    <rect id="Rectangle_477" data-name="Rectangle 477" width="104.144" height="205.406" transform="translate(215.372 4.091)" fill="#b1bbcb"/>
    <path id="Path_851" data-name="Path 851" d="M289.487,281.112H185.343a.7.7,0,0,1-.7-.7V75a.7.7,0,0,1,.7-.7H289.487a.717.717,0,0,1,.7.7V280.409a.717.717,0,0,1-.7.7Zm-103.441-1.406H288.784v-204H186.046Z" transform="translate(30.029 -70.912)" fill="#231f20"/>
    <rect id="Rectangle_478" data-name="Rectangle 478" width="89.385" height="121.405" transform="translate(222.752 14.113)" fill="#7fd5e5"/>
    <path id="Path_852" data-name="Path 852" d="M280.005,204.241H190.593a.7.7,0,0,1-.7-.7V82.133a.7.7,0,0,1,.7-.7h89.413a.717.717,0,0,1,.7.7v121.4A.7.7,0,0,1,280.005,204.241Zm-88.682-1.406H279.3v-120H191.3Z" transform="translate(32.159 -68.02)" fill="#231f20"/>
    <rect id="Rectangle_479" data-name="Rectangle 479" width="104.144" height="205.406" transform="translate(111.228 4.091)" fill="#dee2e8"/>
    <path id="Path_853" data-name="Path 853" d="M215.4,281.112H111.253a.717.717,0,0,1-.7-.7V75a.717.717,0,0,1,.7-.7H215.4a.7.7,0,0,1,.7.7V280.409A.7.7,0,0,1,215.4,281.112Zm-103.441-1.406H214.694v-204H111.956Z" transform="translate(-0.025 -70.912)" fill="#231f20"/>
    <path id="Path_854" data-name="Path 854" d="M428.809,159.551v4.807a12.651,12.651,0,0,1-12.651,12.651H189.85V146.9H416.158A12.651,12.651,0,0,1,428.809,159.551Z" transform="translate(32.142 -41.462)" fill="#22cae8"/>
    <path id="Path_855" data-name="Path 855" d="M416.371,177.9H190.063a.717.717,0,0,1-.7-.7V147.1a.717.717,0,0,1,.7-.7H416.371a13.354,13.354,0,0,1,13.339,13.354v4.807a13.354,13.354,0,0,1-13.339,13.34Zm-225.577-1.406H416.371A11.948,11.948,0,0,0,428.3,164.561v-4.807a11.948,11.948,0,0,0-11.934-11.948H190.794Z" transform="translate(31.944 -41.665)" fill="#231f20"/>
    <path id="Path_856" data-name="Path 856" d="M370.055,159.551v4.807A12.651,12.651,0,0,1,357.4,177.009H189.88V146.9H357.418A12.651,12.651,0,0,1,370.055,159.551Z" transform="translate(32.155 -41.462)" fill="#7fd5e5"/>
    <path id="Path_857" data-name="Path 857" d="M357.621,177.9H190.083a.717.717,0,0,1-.7-.7V147.1a.717.717,0,0,1,.7-.7H357.621a13.368,13.368,0,0,1,13.34,13.354v4.807a13.354,13.354,0,0,1-13.34,13.34Zm-166.835-1.406H357.621a11.948,11.948,0,0,0,11.934-11.934v-4.807a11.948,11.948,0,0,0-11.934-11.948H190.786Z" transform="translate(31.952 -41.665)" fill="#231f20"/>
    <path id="Path_858" data-name="Path 858" d="M308.134,167.127a7.394,7.394,0,1,1,7.394-7.38A7.394,7.394,0,0,1,308.134,167.127Zm0-13.368a5.988,5.988,0,1,0,5.988,5.988,5.988,5.988,0,0,0-5.988-5.988Z" transform="translate(77.124 -39.256)" fill="#101a56"/>
    <path id="Path_859" data-name="Path 859" d="M285.138,167.127a7.394,7.394,0,1,1,7.38-7.38,7.394,7.394,0,0,1-7.38,7.38Zm0-13.368a5.988,5.988,0,1,0,5.974,5.988A5.988,5.988,0,0,0,285.138,153.76Z" transform="translate(67.79 -39.256)" fill="#101a56"/>
    <path id="Path_860" data-name="Path 860" d="M262.138,167.127a7.394,7.394,0,1,1,7.38-7.38,7.394,7.394,0,0,1-7.38,7.38Zm0-13.368a5.988,5.988,0,1,0,5.974,5.988A5.988,5.988,0,0,0,262.138,153.76Z" transform="translate(58.46 -39.256)" fill="#101a56"/>
    <path id="Path_861" data-name="Path 861" d="M239.138,167.127a7.394,7.394,0,1,1,7.38-7.38,7.394,7.394,0,0,1-7.38,7.38Zm0-13.368a5.974,5.974,0,1,0,4.229,1.755A5.988,5.988,0,0,0,239.138,153.76Z" transform="translate(49.131 -39.256)" fill="#101a56"/>
    <path id="Path_862" data-name="Path 862" d="M216.194,167.127a7.394,7.394,0,1,1,7.394-7.38A7.394,7.394,0,0,1,216.194,167.127Zm0-13.368a5.974,5.974,0,1,0,4.238,1.75A5.988,5.988,0,0,0,216.194,153.76Z" transform="translate(39.829 -39.256)" fill="#101a56"/>
    <path id="Path_863" data-name="Path 863" d="M96.134,167.127a7.394,7.394,0,1,1,7.394-7.38A7.394,7.394,0,0,1,96.134,167.127Zm0-13.368a5.988,5.988,0,1,0,5.988,5.988A5.988,5.988,0,0,0,96.134,153.76Z" transform="translate(-8.872 -39.256)" fill="#101a56"/>
    <path id="Path_864" data-name="Path 864" d="M73.134,167.127a7.394,7.394,0,1,1,7.394-7.38A7.394,7.394,0,0,1,73.134,167.127Zm0-13.368a5.988,5.988,0,1,0,5.988,5.988A5.988,5.988,0,0,0,73.134,153.76Z" transform="translate(-18.201 -39.256)" fill="#101a56"/>
    <rect id="Rectangle_480" data-name="Rectangle 480" width="167.004" height="73.979" transform="translate(222.035 135.518)" fill="#dee2e8"/>
    <path id="Path_865" data-name="Path 865" d="M357.087,243.184h-167a.717.717,0,0,1-.7-.7V168.5a.717.717,0,0,1,.7-.7h167a.7.7,0,0,1,.7.7v73.979A.7.7,0,0,1,357.087,243.184Zm-166.3-1.406h165.6V169.206h-165.6Z" transform="translate(31.952 -32.985)" fill="#231f20"/>
    <path id="Path_906" data-name="Path 906" d="M0,0H61.061V73.979H0Z" transform="translate(389.038 135.518)" fill="#dee2e8"/>
    <path id="Path_866" data-name="Path 866" d="M369.954,243.184H308.893a.717.717,0,0,1-.7-.7V168.5a.717.717,0,0,1,.7-.7h61.061a.7.7,0,0,1,.7.7v73.979A.7.7,0,0,1,369.954,243.184ZM309.6,241.779h59.655V169.206H309.6Z" transform="translate(80.146 -32.985)" fill="#231f20"/>
    <path id="Path_867" data-name="Path 867" d="M188.249,205.417H127.933a.7.7,0,0,1-.7-.7V109.623a.7.7,0,0,1,.7-.7h60.316a.7.7,0,0,1,.7.7v95.091A.7.7,0,0,1,188.249,205.417Zm-59.613-1.406h58.91V110.326h-58.91Z" transform="translate(6.741 -56.869)" fill="#101a56"/>
    <path id="Path_874" data-name="Path 874" d="M161.91,117.526H135.2a.7.7,0,1,1,0-1.406H161.91a.7.7,0,0,1,0,1.406Z" transform="translate(9.69 -53.948)" fill="#101a56"/>
    <path id="Path_875" data-name="Path 875" d="M167.533,117.526h-7.9a.7.7,0,0,1,0-1.406h7.9a.7.7,0,0,1,0,1.406Z" transform="translate(19.6 -53.948)" fill="#101a56"/>
    <path id="Path_876" data-name="Path 876" d="M140.1,174.52a3.43,3.43,0,1,1,3.416-3.43,3.43,3.43,0,0,1-3.416,3.43Zm0-5.44a2.024,2.024,0,1,0,2.01,2.01,2.024,2.024,0,0,0-2.01-2.01Z" transform="translate(10.567 -33.041)" fill="#101a56"/>
    <path id="Path_877" data-name="Path 877" d="M150.644,174.52a3.43,3.43,0,1,1,3.416-3.43,3.43,3.43,0,0,1-3.416,3.43Zm0-5.44a2.024,2.024,0,1,0,2.01,2.01,2.024,2.024,0,0,0-2.01-2.01Z" transform="translate(14.842 -33.041)" fill="#101a56"/>
    <path id="Path_878" data-name="Path 878" d="M161.194,174.52a3.43,3.43,0,1,1,3.416-3.43,3.43,3.43,0,0,1-3.416,3.43Zm0-5.44a2.024,2.024,0,1,0,2.01,2.01,2.024,2.024,0,0,0-2.01-2.01Z" transform="translate(19.121 -33.041)" fill="#101a56"/>
    <path id="Path_879" data-name="Path 879" d="M279.967,81.93l-44.685,91.338h-45.4V81.93Z" transform="translate(32.155 -67.817)" fill="#101a56"/>
    <path id="Path_880" data-name="Path 880" d="M235.461,174.078h-45.4a.633.633,0,0,1-.618-.633V82.078a.618.618,0,0,1,.618-.618h90.13a.618.618,0,0,1,.548.9l-44.685,91.367a.647.647,0,0,1-.59.351Zm-44.784-1.251h44.4l44.081-90.073H190.607Z" transform="translate(31.976 -68.007)" fill="#231f20"/>
    <path id="Path_881" data-name="Path 881" d="M121.122,158.209a20.058,20.058,0,0,0-1.406-17.781,43.448,43.448,0,0,0-8.659-10.121,21.9,21.9,0,0,1-5.159-5.819c-1.532-2.994-.211-4.1,2.4-5.805a10.556,10.556,0,0,0,4.315-4.133c.8-1.855-.1-4.554-2.108-4.737a10.345,10.345,0,0,0-3.008.675,4.428,4.428,0,0,1-4.526-1.926c-.773-1.209-.97-2.811-2.123-3.683-1.406-1.04-3.444-.3-4.99.562s-3.359,1.813-4.976,1.125a6.888,6.888,0,0,1-2.094-1.785,13.255,13.255,0,0,0-4.217-2.966,3.4,3.4,0,0,0-2.305-.323c-1.715.548-1.785,2.938-1.406,4.695a37.137,37.137,0,0,0,2.727,7.759,4.217,4.217,0,0,1,.576,2.01,3.8,3.8,0,0,1-.928,1.87c-6.663,8.785-11.948,18.034-13.888,29.083a14.548,14.548,0,0,0,2.038,10.978c3.739,5.173,10.219,5.763,16,6.311a158.577,158.577,0,0,0,23.109.618C115.57,164.563,119.056,163.143,121.122,158.209Z" transform="translate(-16.866 -59.912)" fill="#101a56"/>
    <path id="Path_882" data-name="Path 882" d="M103.429,165.778c-5.187,0-10.528-.253-15.968-.787h-.155c-5.819-.562-12.412-1.195-16.277-6.55a15.139,15.139,0,0,1-2.165-11.456c1.729-9.839,6.044-18.85,14.056-29.336a2.305,2.305,0,0,0,.309-3.191,37.629,37.629,0,0,1-2.811-7.942c-.478-2.094-.3-4.765,1.8-5.426a3.865,3.865,0,0,1,2.727.351,13.916,13.916,0,0,1,4.484,3.092l.337.351a4.765,4.765,0,0,0,1.56,1.293c1.406.59,3.078-.337,4.442-1.1,2.4-1.321,4.3-1.5,5.623-.52a5.426,5.426,0,0,1,1.645,2.516,7.843,7.843,0,0,0,.633,1.406,3.823,3.823,0,0,0,3.88,1.659,8.944,8.944,0,0,0,1-.3,5.2,5.2,0,0,1,2.193-.394,3.022,3.022,0,0,1,2.347,1.574,4.582,4.582,0,0,1,.281,4.034,10.837,10.837,0,0,1-4.414,4.217l-.141.084c-2.643,1.729-3.444,2.558-2.193,5.018a19.51,19.51,0,0,0,4.554,5.215l.478.422a43.941,43.941,0,0,1,8.771,10.275,20.663,20.663,0,0,1,1.406,18.273c-2.418,5.763-6.831,6.761-11.245,7.028C108.293,165.666,105.875,165.778,103.429,165.778Zm-20.41-63.591a1.769,1.769,0,0,0-.464,0c-1.406.436-1.251,2.7-.956,3.964a36.7,36.7,0,0,0,2.671,7.633,3.458,3.458,0,0,1-.408,4.526c-7.843,10.331-12.088,19.215-13.775,28.816A13.93,13.93,0,0,0,72,157.7c3.542,4.906,9.839,5.51,15.462,6.044h.155a157.618,157.618,0,0,0,23.01.618c4.625-.239,8.125-1.406,10.149-6.227h0a19.4,19.4,0,0,0-1.406-17.233,42.577,42.577,0,0,0-8.546-9.966l-.478-.436a20.536,20.536,0,0,1-4.821-5.623c-1.729-3.416-.084-4.835,2.615-6.606l.155-.1a9.839,9.839,0,0,0,3.95-3.753,3.373,3.373,0,0,0-.211-2.91,1.8,1.8,0,0,0-1.406-.97,3.936,3.936,0,0,0-1.687.337,8.251,8.251,0,0,1-1.153.323A5.046,5.046,0,0,1,102.628,109a10.231,10.231,0,0,1-.745-1.532,4.428,4.428,0,0,0-1.223-2c-.928-.675-2.376-.464-4.315.6-1.518.843-3.6,1.982-5.538,1.167a6.157,6.157,0,0,1-1.94-1.532l-.309-.337a12.749,12.749,0,0,0-4.076-2.811A3.81,3.81,0,0,0,83.019,102.187Z" transform="translate(-17.067 -60.088)" fill="#231f20"/>
    <path id="Path_883" data-name="Path 883" d="M92,117.617a27.187,27.187,0,0,1-3.528-.225,14.506,14.506,0,0,1-8.434-3.908.689.689,0,0,1,0-.984.7.7,0,0,1,1,0A13.157,13.157,0,0,0,88.67,116a39.991,39.991,0,0,0,8.813-.112.7.7,0,1,1,.126,1.392A44.711,44.711,0,0,1,92,117.617Z" transform="translate(-12.485 -55.501)" fill="#fff"/>
    <path id="Path_884" data-name="Path 884" d="M85.693,123.221a.759.759,0,0,1-.3,0,.7.7,0,0,1-.337-.942c.886-1.87,1.729-3.8,2.5-5.623a.717.717,0,0,1,.534-.422.633.633,0,0,1,.633.211l4.709,4.906a.717.717,0,0,1,0,1,.689.689,0,0,1-.984,0l-3.978-4.217c-.675,1.588-1.406,3.177-2.108,4.751A.731.731,0,0,1,85.693,123.221Z" transform="translate(-10.392 -53.908)" fill="#fff"/>
    <path id="Path_885" data-name="Path 885" d="M89.516,237.049a20.1,20.1,0,0,1,1.406-17.781,43.575,43.575,0,0,1,8.673-10.121,21.929,21.929,0,0,0,5.159-5.819c1.532-2.994.2-4.1-2.4-5.805a10.529,10.529,0,0,1-4.315-4.119c-.815-1.855.1-4.568,2.108-4.751a10.471,10.471,0,0,1,3.008.689,4.484,4.484,0,0,0,4.526-1.94c.759-1.209.956-2.811,2.123-3.683,1.406-1.04,3.43-.3,4.976.562s3.359,1.827,4.99,1.125a7.028,7.028,0,0,0,2.094-1.785,13.55,13.55,0,0,1,4.217-2.966,3.4,3.4,0,0,1,2.305-.323c1.715.548,1.771,2.938,1.406,4.695a37.262,37.262,0,0,1-2.727,7.773,2.9,2.9,0,0,0,.351,3.88c6.663,8.771,11.948,18.02,13.888,29.069a14.492,14.492,0,0,1-2.052,10.978c-3.739,5.173-10.219,5.763-16,6.325a158.517,158.517,0,0,1-23.109.6C95.068,243.4,91.582,241.983,89.516,237.049Z" transform="translate(-9.141 -27.932)" fill="#101a56"/>
    <path id="Path_886" data-name="Path 886" d="M107.583,244.65c-2.446,0-4.849,0-7.225-.183-4.4-.211-8.813-1.209-11.245-7.028h0a20.607,20.607,0,0,1,1.406-18.273A43.954,43.954,0,0,1,99.3,208.9l.478-.436a19.763,19.763,0,0,0,4.554-5.215c1.251-2.46.436-3.275-2.193-5l-.141-.1a10.753,10.753,0,0,1-4.414-4.3,4.54,4.54,0,0,1,.281-4.034,2.994,2.994,0,0,1,2.347-1.574,5.426,5.426,0,0,1,2.193.394,8.134,8.134,0,0,0,1,.3,3.809,3.809,0,0,0,3.866-1.645,8.013,8.013,0,0,0,.647-1.406,5.5,5.5,0,0,1,1.645-2.516c1.406-.97,3.247-.8,5.623.52,1.406.759,3.064,1.7,4.442,1.11a4.961,4.961,0,0,0,1.56-1.307l.323-.337A13.747,13.747,0,0,1,126,180.244a3.992,3.992,0,0,1,2.811-.351c2.094.675,2.277,3.345,1.8,5.426a38.178,38.178,0,0,1-2.811,7.9,3.275,3.275,0,0,0-.52,1.687,3.149,3.149,0,0,0,.8,1.546c7.97,10.486,12.285,19.538,14.056,29.35a15.167,15.167,0,0,1-2.151,11.442c-3.88,5.355-10.472,5.988-16.291,6.55h-.155A147.433,147.433,0,0,1,107.583,244.65Zm-7.028-55.2h-.169a1.856,1.856,0,0,0-1.406.97,3.317,3.317,0,0,0-.2,2.91,9.713,9.713,0,0,0,3.95,3.753l.141.1c2.713,1.771,4.357,3.191,2.614,6.606a20.3,20.3,0,0,1-4.821,5.623l-.464.436a42.492,42.492,0,0,0-8.546,9.966,19.412,19.412,0,0,0-1.406,17.233h0c2.038,4.849,5.538,6,10.163,6.227a159.551,159.551,0,0,0,23.01-.6h.155c5.623-.548,11.85-1.153,15.462-6.058a13.93,13.93,0,0,0,1.926-10.5c-1.673-9.6-5.918-18.484-13.761-28.816a4.217,4.217,0,0,1-1.054-2.193,4.54,4.54,0,0,1,.6-2.277,35.508,35.508,0,0,0,2.713-7.689c.3-1.265.408-3.514-.97-3.964a2.924,2.924,0,0,0-1.87.309,12.567,12.567,0,0,0-4.076,2.811l-.309.323a6.03,6.03,0,0,1-2,1.6c-1.926.829-4.006-.323-5.524-1.167-1.94-1.068-3.4-1.265-4.315-.59a4.442,4.442,0,0,0-1.237,1.982,10.149,10.149,0,0,1-.731,1.532,5.046,5.046,0,0,1-5.173,2.207,11.645,11.645,0,0,1-1.139-.337,4.822,4.822,0,0,0-1.56-.394Z" transform="translate(-9.329 -28.125)" fill="#231f20"/>
    <path id="Path_887" data-name="Path 887" d="M108.506,196.454c-1.954,0-3.851-.169-5.623-.323a.717.717,0,0,1-.633-.773.689.689,0,0,1,.759-.633,40.116,40.116,0,0,0,8.827.112,13.185,13.185,0,0,0,7.619-3.486.706.706,0,1,1,1.012.984,14.562,14.562,0,0,1-8.434,3.894A24.9,24.9,0,0,1,108.506,196.454Z" transform="translate(-3.392 -23.518)" fill="#fff"/>
    <path id="Path_888" data-name="Path 888" d="M111.974,202.042a.717.717,0,0,1-.633-.408c-.731-1.546-1.406-3.149-2.108-4.751l-3.978,4.217a.689.689,0,0,1-.984,0,.675.675,0,0,1,0-.984l4.723-5.06a.7.7,0,0,1,.6-.042.675.675,0,0,1,.52.422c.8,1.926,1.645,3.837,2.516,5.707a.7.7,0,0,1-.337.928.759.759,0,0,1-.323-.028Z" transform="translate(-2.658 -21.965)" fill="#fff"/>
    <path id="Path_889" data-name="Path 889" d="M85.818,246.4a28.717,28.717,0,0,0,10.6-2.713c7.548-3.992,11.062-13.55,9.6-21.97s-7.028-15.645-13.846-20.874a75.543,75.543,0,0,0-6.9-5.06l.942-13.143a3.416,3.416,0,0,0-.127-1.56c-.436-1.054-1.954-.815-2.811-.8a9.84,9.84,0,0,0-5.988,2.179,4.849,4.849,0,0,1-1.6,1.068c-2.066.633-3.767-2.151-5.932-2.108-1.631,0-2.811,1.616-3.556,3.036s-1.884,3.036-3.514,3.121a6.536,6.536,0,0,1-2.53-.647,10.345,10.345,0,0,0-3.866-.59,14.436,14.436,0,0,0,2.319,4.934l4.625,7.309c-4.737,6.283-10.3,11.343-13.607,18.625-2.572,5.623-4.92,13.55-1.321,19.313C54.866,247.061,75.191,247.5,85.818,246.4Z" transform="translate(-26.022 -27.936)" fill="#101a56"/>
    <path id="Path_890" data-name="Path 890" d="M77.68,247.625c-11.99,0-24.8-2.7-29.715-10.584-2.98-4.765-2.558-11.456,1.265-19.89a57.631,57.631,0,0,1,9.137-13.185c1.406-1.687,2.91-3.43,4.3-5.243l-4.414-6.944a15.561,15.561,0,0,1-2.418-5.131.633.633,0,0,1,.127-.492.661.661,0,0,1,.464-.239,11.048,11.048,0,0,1,4.1.618L61,186.7a4.217,4.217,0,0,0,1.715.422c1.279-.07,2.207-1.406,3.022-2.811s2.137-3.317,4.09-3.345a5.735,5.735,0,0,1,3.121,1.223c.97.633,1.8,1.167,2.629.914a3.374,3.374,0,0,0,1.139-.745l.267-.211a10.289,10.289,0,0,1,6.368-2.319h.394c1,0,2.516-.112,3.064,1.195a4.048,4.048,0,0,1,.169,1.841l-.928,12.763a62.028,62.028,0,0,1,5.285,3.837l1.406,1.068c7.731,5.974,12.735,13.522,14.056,21.253,1.588,9.221-2.572,18.751-9.924,22.631a29.66,29.66,0,0,1-10.809,2.811C83.4,247.456,80.562,247.625,77.68,247.625ZM86,246.57ZM57.242,187.1a16.39,16.39,0,0,0,2.052,3.978l4.639,7.309a.618.618,0,0,1,0,.7c-1.49,1.982-3.064,3.837-4.6,5.623-3.458,4.076-6.719,7.928-8.954,12.862-2.5,5.524-4.779,13.255-1.406,18.737,5.791,9.277,23.516,10.95,36.912,9.558h0a28.113,28.113,0,0,0,10.388-2.544c6.9-3.641,10.8-12.651,9.291-21.324-1.293-7.422-6.129-14.689-13.621-20.48l-1.406-1.068a56.616,56.616,0,0,0-5.482-3.964.59.59,0,0,1-.3-.576l.942-13.129a3.022,3.022,0,0,0-.084-1.293c-.2-.464-.956-.464-1.855-.422h-.436a9.151,9.151,0,0,0-5.623,2.038l-.239.211a4.442,4.442,0,0,1-1.574.97,4.329,4.329,0,0,1-3.669-1.054,4.47,4.47,0,0,0-2.432-1.026c-1.321,0-2.319,1.406-3.036,2.727-.984,1.729-2.151,3.331-4.02,3.43a5.2,5.2,0,0,1-2.235-.492l-.422-.169A10.065,10.065,0,0,0,57.242,187.1Z" transform="translate(-26.206 -28.105)" fill="#231f20"/>
    <path id="Path_891" data-name="Path 891" d="M64.921,197.6a23.418,23.418,0,0,1-6.325-.843.728.728,0,0,1,.38-1.406A23.685,23.685,0,0,0,80.565,190.3a.707.707,0,0,1,.942,1.054A25.2,25.2,0,0,1,64.921,197.6Z" transform="translate(-21.318 -23.93)" fill="#fff"/>
    <path id="Path_892" data-name="Path 892" d="M64.531,204.138h-.169a.7.7,0,0,1-.506-.857l2.249-8.8a.717.717,0,0,1,1.139-.366,62.48,62.48,0,0,1,7.239,7.45.689.689,0,0,1,.562-.126.731.731,0,0,1,.506.886,1.279,1.279,0,0,1-.942.984.689.689,0,0,1-.717-.239,59.634,59.634,0,0,0-6.719-7.127l-1.954,7.675a.7.7,0,0,1-.689.52Z" transform="translate(-18.974 -22.374)" fill="#fff"/>
    <path id="Path_895" data-name="Path 895" d="M231.4,115.156h-7.619a.7.7,0,1,1,0-1.406H231.4a.7.7,0,1,1,0,1.406Z" transform="translate(45.622 -54.909)" fill="#231f20"/>
    <path id="Path_903" data-name="Path 903" d="M330.242,205.383H209.2a.7.7,0,0,1-.7-.7V189.373a.7.7,0,0,1,.7-.7H330.3a.7.7,0,0,1,.7.7V204.68a.7.7,0,0,1-.759.7Zm-120.393-1.406h119.69v-13.9H209.849Z" transform="translate(39.708 -24.519)" fill="#101a56"/>
  </g>
  <g id="_040---Folded-Shirts" data-name="040---Folded-Shirts" transform="translate(341.57 43.187)">
    <g id="Icons" transform="translate(0.475 0.485)">
      <path id="Shape" d="M31.766,20.963v13.57a1.635,1.635,0,0,1-1.64,1.64H9.64A1.635,1.635,0,0,1,8,34.533V32.371H26.323a1.635,1.635,0,0,0,1.64-1.64V17.161a4.045,4.045,0,0,0-.071-.761l1.022.566.751.418A4.1,4.1,0,0,1,31.766,20.963Z" transform="translate(-4.197 -8.605)" fill="#0377bc"/>
      <path id="Shape-2" data-name="Shape" d="M30.34,21.881v13.57a1.635,1.635,0,0,1-1.64,1.64H9.64A1.635,1.635,0,0,1,8,35.452V33.289H26.323a1.635,1.635,0,0,0,1.64-1.64V18.15l.271.152A4.1,4.1,0,0,1,30.34,21.881Z" transform="translate(-4.197 -9.523)" fill="#22cae8"/>
      <path id="Shape-3" data-name="Shape" d="M23.766,12.265v13.57a1.635,1.635,0,0,1-1.64,1.64H1.64A1.635,1.635,0,0,1,0,25.836V12.265A4.1,4.1,0,0,1,2.106,8.686L5.015,7.07H18.751L21.66,8.686A4.1,4.1,0,0,1,23.766,12.265Z" transform="translate(0 -3.71)" fill="#cfd8dc"/>
      <path id="Shape-4" data-name="Shape" d="M22.34,12.265v13.57a1.635,1.635,0,0,1-1.64,1.64H1.64A1.635,1.635,0,0,1,0,25.836V12.265A4.1,4.1,0,0,1,2.106,8.686L5.015,7.07H17.325l2.909,1.616A4.1,4.1,0,0,1,22.34,12.265Z" transform="translate(0 -3.71)" fill="#f5f5f5"/>
      <g id="Group_1218" data-name="Group 1218" transform="translate(8.08 10.932)">
        <circle id="Oval" cx="0.951" cy="0.951" r="0.951" fill="#545c60"/>
        <circle id="Oval-2" data-name="Oval" cx="0.951" cy="0.951" r="0.951" transform="translate(0 3.803)" fill="#545c60"/>
        <circle id="Oval-3" data-name="Oval" cx="0.951" cy="0.951" r="0.951" transform="translate(0 7.605)" fill="#545c60"/>
      </g>
      <path id="Shape-5" data-name="Shape" d="M23.045.818C21.405,0,17.308,0,17.308,0s-4.1,0-5.737.818A5.386,5.386,0,0,0,10.34,4.506a17.164,17.164,0,0,0,4.511,3.688,6.012,6.012,0,0,1,2.457-2.852,6.077,6.077,0,0,1,2.457,2.852,17.164,17.164,0,0,0,4.511-3.688A5.386,5.386,0,0,0,23.045.818Z" transform="translate(-5.425 0)" fill="#d1d4d1"/>
      <path id="Shape-6" data-name="Shape" d="M17.308,6.215a6.077,6.077,0,0,0-2.457,2.852A17.164,17.164,0,0,1,10.34,5.378,5.386,5.386,0,0,1,11.571,1.69a14.374,14.374,0,0,0,1.782,1.954A13.784,13.784,0,0,0,17.308,6.215Z" transform="translate(-5.425 -0.887)" fill="#cfd8dc"/>
      <path id="Shape-7" data-name="Shape" d="M24.4.818a14.374,14.374,0,0,1-1.782,1.954,27.24,27.24,0,0,0-3.955-.314,27.24,27.24,0,0,0-3.955.314A14.374,14.374,0,0,1,12.93.818C14.57,0,18.667,0,18.667,0s4.1,0,5.737.818Z" transform="translate(-6.784 0)" fill="#9e9e9e"/>
      <path id="Shape-8" data-name="Shape" d="M24.589,5.484a13.784,13.784,0,0,1-3.955,2.557A13.784,13.784,0,0,1,16.68,5.484a27.24,27.24,0,0,1,3.955-.314A27.24,27.24,0,0,1,24.589,5.484Z" transform="translate(-8.752 -2.713)" fill="#37474f"/>
      <path id="Shape-9" data-name="Shape" d="M31.968,5.424a17.164,17.164,0,0,1-4.511,3.688A6.012,6.012,0,0,0,25,6.261,13.784,13.784,0,0,0,28.955,3.7,14.374,14.374,0,0,0,30.737,1.75,5.326,5.326,0,0,1,31.968,5.424Z" transform="translate(-13.117 -0.918)" fill="#cfd8dc"/>
    </g>
    <g id="Layer_9" transform="translate(0 0)">
      <path id="Shape-10" data-name="Shape" d="M26.171,9.83l-1.592-.884a4.563,4.563,0,0,0-2.215-2.923L19.654,4.516A5.385,5.385,0,0,0,18.442,1.94a.5.5,0,0,0-.143-.1C16,.695,8.717.695,6.417,1.836a.5.5,0,0,0-.143.1A5.385,5.385,0,0,0,5.062,4.5L2.348,6.023a4.582,4.582,0,0,0-2.348,4v13.57a2.12,2.12,0,0,0,2.115,2.115H3.8v1.687a2.12,2.12,0,0,0,2.115,2.115H26.4a2.12,2.12,0,0,0,2.115-2.115V13.823A4.563,4.563,0,0,0,26.171,9.83ZM21.893,6.855a3.627,3.627,0,0,1,1.873,3.166v13.57A1.165,1.165,0,0,1,22.6,24.755H12.834V7.677a6.441,6.441,0,0,1,1.545,2.158.475.475,0,0,0,.675.238A17.549,17.549,0,0,0,19.7,6.27c.133-.171.1-.337.1-.589Zm-9.535-.58A13.394,13.394,0,0,1,9.53,4.559a25.862,25.862,0,0,1,5.656,0,13.394,13.394,0,0,1-2.828,1.716Zm5.7-3.213A5.39,5.39,0,0,1,18.823,5.8a17.069,17.069,0,0,1-3.8,3.185,6.864,6.864,0,0,0-1.683-2.12,15.239,15.239,0,0,0,4.748-3.8Zm-.761-.57a13.309,13.309,0,0,1-1.141,1.236,26.409,26.409,0,0,0-7.605,0A13.309,13.309,0,0,1,7.386,2.492a23.058,23.058,0,0,1,9.939,0Zm-10.676.57a14.991,14.991,0,0,0,4.753,3.8A6.864,6.864,0,0,0,9.7,8.984,17.054,17.054,0,0,1,5.894,5.8,5.433,5.433,0,0,1,6.626,3.062ZM.951,23.591V10.021A3.627,3.627,0,0,1,2.814,6.855l2.11-1.174c0,.261-.038.418.1.589a17.549,17.549,0,0,0,4.644,3.8.475.475,0,0,0,.68-.238,6.236,6.236,0,0,1,1.54-2.158V24.755H2.115A1.165,1.165,0,0,1,.951,23.591Zm3.8,3.8V25.706H15.685v2.852H5.918a1.165,1.165,0,0,1-1.165-1.165Zm22.815,0A1.165,1.165,0,0,1,26.4,28.558H16.636V25.706H22.6a2.12,2.12,0,0,0,2.115-2.115V10.106l.989.551a3.627,3.627,0,0,1,1.863,3.166Z" transform="translate(0 -0.98)" fill="#101a56"/>
      <path id="Shape-11" data-name="Shape" d="M18.426,26.852A1.426,1.426,0,1,0,17,25.426,1.426,1.426,0,0,0,18.426,26.852Zm0-1.9a.475.475,0,1,1-.475.475A.475.475,0,0,1,18.426,24.951Z" transform="translate(-8.92 -13.058)"/>
      <path id="Shape-12" data-name="Shape" d="M18.426,34.852A1.426,1.426,0,1,0,17,33.426,1.426,1.426,0,0,0,18.426,34.852Zm0-1.9a.475.475,0,1,1-.475.475A.475.475,0,0,1,18.426,32.951Z" transform="translate(-8.92 -17.256)"/>
      <path id="Shape-13" data-name="Shape" d="M18.426,42.852A1.426,1.426,0,1,0,17,41.426,1.426,1.426,0,0,0,18.426,42.852Zm0-1.9a.475.475,0,1,1-.475.475A.475.475,0,0,1,18.426,40.951Z" transform="translate(-8.92 -21.453)"/>
    </g>
  </g>
  <g id="Group_1217" data-name="Group 1217" transform="translate(147.592 81.527)">
    <g id="Group_51" data-name="Group 51" transform="translate(0 0)">
      <ellipse id="Ellipse_235" data-name="Ellipse 235" cx="18.5" cy="18" rx="18.5" ry="18" transform="translate(-0.233 0.473)" fill="#22cae8"/>
      <g id="sewing-machine_1_" data-name="sewing-machine (1)" transform="translate(8.8 10.807)">
        <g id="Group_50" data-name="Group 50" transform="translate(0 0)">
          <g id="Group_49" data-name="Group 49">
            <path id="Path_5" data-name="Path 5" d="M18.255,75.358h-.811a.406.406,0,1,0,0-.811h-.58a9.153,9.153,0,0,1-.637-2.84,3.08,3.08,0,0,1,.292-1.017,5.757,5.757,0,0,0,.519-2.229,2.789,2.789,0,0,0-2.434-2.8V64.406a.406.406,0,1,0-.811,0V65.64c-.77.049-2.086.206-3.475.372-1.732.207-3.524.422-4.233.422a2.057,2.057,0,0,1-2.028-1.217,1.217,1.217,0,1,0-2.434,0V70.9a1.215,1.215,0,0,0,.811,1.142v2.1a.406.406,0,1,0,.811,0v-2.1a1.213,1.213,0,0,0,.8-1.059c.232-1.038,2.579-1.565,5.029-1.122,1.533.276,3.264,1.017,3.1,2.2a3.846,3.846,0,0,1-1.363,2.492h-.669a.406.406,0,1,0,0,.811H1.217A1.218,1.218,0,0,0,0,76.575v.811A1.218,1.218,0,0,0,1.217,78.6H18.255a1.218,1.218,0,0,0,1.217-1.217v-.811A1.218,1.218,0,0,0,18.255,75.358ZM3.245,70.9a.406.406,0,1,1-.811,0V65.217a.406.406,0,1,1,.811,0Zm9.731,1.275c.209-1.464-1.23-2.656-3.755-3.111-1.933-.349-4.032-.158-5.165.636V66.559a3.333,3.333,0,0,0,2.028.686c.757,0,2.573-.217,4.328-.428,1.575-.189,3.2-.384,3.784-.384a1.986,1.986,0,0,1,2.028,2.028,5,5,0,0,1-.462,1.928,3.643,3.643,0,0,0-.35,1.318,10.315,10.315,0,0,0,.571,2.84h-4A4.907,4.907,0,0,0,12.976,72.171Zm5.684,5.216a.406.406,0,0,1-.406.406H1.217a.406.406,0,0,1-.406-.406v-.811a.406.406,0,0,1,.406-.406H18.255a.406.406,0,0,1,.406.406Z" transform="translate(0 -64)" fill="#fff"/>
            <path id="Path_6" data-name="Path 6" d="M448.406,111.534a.406.406,0,0,0,.406-.406v-4.057a.406.406,0,1,0-.811,0v4.057A.406.406,0,0,0,448.406,111.534Z" transform="translate(-430.962 -105.043)" fill="#fff"/>
          </g>
        </g>
      </g>
    </g>
  </g>
  <g id="Group_1219" data-name="Group 1219" transform="translate(334.609 37.179)">
    <path id="Path_846" data-name="Path 846" d="M275.568,103.876a13.268,13.268,0,0,1,2.516-2.347c1.588-1.026,3.43-1.11,2.488,1.167a16.754,16.754,0,0,1-3.388,4.484,6.044,6.044,0,0,1,3.6-2.024c.45,0,1.04,0,1.153.436a1,1,0,0,1-.183.731,15.87,15.87,0,0,1-4.3,4.821,4.765,4.765,0,0,1,1.94-1.167.857.857,0,0,1,.562,0c.52.183.323.97,0,1.406a8.968,8.968,0,0,1-2.249,2.179A4.006,4.006,0,0,0,276.3,114.8c-.633,1.125.155,2.586-.239,3.823a.45.45,0,0,1-.2.281c-.141.1-.337,0-.492,0-4.119-1.8-5.1-8.181-4.807-12.215.253-3.458,3.275-6.086,6.269-7.492a2.53,2.53,0,0,1,1.223-.3.942.942,0,0,1,.885.773,1.406,1.406,0,0,1-.464.942Z" transform="translate(-269.745 -98.112)" fill="#fff"/>
    <path id="Path_847" data-name="Path 847" d="M275.875,119.889a1.405,1.405,0,0,1-.618-.155c-4.709-2.052-5.51-9.094-5.243-12.932.239-3.2,2.741-6.241,6.691-8.082a3.289,3.289,0,0,1,1.6-.38,1.645,1.645,0,0,1,1.532,1.406,1.547,1.547,0,0,1-.07.576,1.785,1.785,0,0,1,1.49.351c.422.351.8,1.068.211,2.516a8.552,8.552,0,0,1-.815,1.5h.225a1.616,1.616,0,0,1,1.982.956,1.687,1.687,0,0,1-.253,1.293,17.246,17.246,0,0,1-1.94,2.7,1.124,1.124,0,0,1,.492.661,2.179,2.179,0,0,1-.394,1.743,9.206,9.206,0,0,1-2.432,2.347l-.253.169a2.924,2.924,0,0,0-.97.843,2.811,2.811,0,0,0-.112,1.6,4.919,4.919,0,0,1-.07,2.066,1.251,1.251,0,0,1-.506.689,1.012,1.012,0,0,1-.548.127Zm2.235-20.1a2.164,2.164,0,0,0-.787.239c-1.293.6-5.623,2.91-5.862,6.888-.225,3.149.365,9.5,4.217,11.386a5.4,5.4,0,0,0,0-1.153,3.2,3.2,0,0,1,1.729-3.823l.239-.155a8.208,8.208,0,0,0,2.052-2.01.912.912,0,0,0,.127-.225,3.514,3.514,0,0,0-.773.365c-.267.225-.548.436-.829.647a.717.717,0,0,1-.984-.112.731.731,0,0,1,0-.984,5.622,5.622,0,0,1,.914-.731,14.8,14.8,0,0,0,3.261-3.922v-.112h-.281a5.384,5.384,0,0,0-3.163,1.771h0a.723.723,0,0,1-1.1-.942h0c.3-.351.6-.689.914-1.026a10.95,10.95,0,0,0,2.347-3.233c.267-.661.183-.871.183-.871a2.811,2.811,0,0,0-1.616.576,13.2,13.2,0,0,0-2.376,2.235.745.745,0,0,1-1.026,0,.731.731,0,0,1,0-1.026l2.811-3.317c.239-.267.281-.38.281-.422a.478.478,0,0,0-.225-.1Z" transform="translate(-269.968 -98.339)" fill="#231f20"/>
  </g>
  <path id="Path_904" data-name="Path 904" d="M305.572,125.485l-2.643-.984a11.6,11.6,0,0,1-4.217-2.052,49.055,49.055,0,0,1-4.217-4.976,2.5,2.5,0,0,0-.942-.815.914.914,0,0,0-1.124.239,1.279,1.279,0,0,0,.141,1.279c.7,1.406,1.659,2.811,1.406,4.217-3.809-1.645-7.59-3.261-11.245-5.271a3.261,3.261,0,0,0-2.418-.59,1.026,1.026,0,0,0-.422.267,1.237,1.237,0,0,0,.084,1.293c1.111,2.193,3.556,3.2,5.51,4.61-.843-.618-1.9-.773-2.811-1.406a29.381,29.381,0,0,0-3.2-2.038,2.094,2.094,0,0,0-.745-.281c-1.869-.141.267,2.4.731,2.811,1.785,1.307,4.076,2.066,5.623,3.556-.773-.365-1.645-.464-2.418-.829l-3.88-1.954c-.351-.169-.815-.323-1.082,0s-.112.7.084,1.026c1.406,2.418,4.133,3.753,6.677,4.976l-5.623-1.715a1.125,1.125,0,0,0-.928,0c-1.729,1.209,2.052,3.106,2.924,3.5a27.818,27.818,0,0,0,8.434,2.277c2.966.309,5.735,0,8.6,1.04.436.155,4.709,1.855,4.611,2.151Z" transform="translate(67.681 -53.797)" fill="#fff"/>
  <path id="Path_905" data-name="Path 905" d="M302.7,136.681h-.1a.8.8,0,0,1-.506-.337,41.885,41.885,0,0,0-4.217-1.869,18.737,18.737,0,0,0-5.622-.815,27.64,27.64,0,0,1-2.811-.169,28.113,28.113,0,0,1-8.645-2.347c-1.1-.492-3.655-1.813-3.8-3.3a1.56,1.56,0,0,1,.745-1.406,1.743,1.743,0,0,1,1.56-.112h.084a9.418,9.418,0,0,1-1.912-2.235,1.546,1.546,0,0,1,0-1.9,1.307,1.307,0,0,1,1.1-.365c-.6-.717-1.307-1.8-1.012-2.586a1.214,1.214,0,0,1,1.406-.745,1.6,1.6,0,0,1,.464.1,1.757,1.757,0,0,1,0-2.038,1.659,1.659,0,0,1,.745-.492,3.908,3.908,0,0,1,2.994.647c3.275,1.813,6.747,3.331,10.135,4.807a8.165,8.165,0,0,0-.942-2.165l-.337-.618a2.052,2.052,0,0,1-.112-2.01,1.659,1.659,0,0,1,2.038-.52,3.4,3.4,0,0,1,1.209,1.026c.45.534.886,1.11,1.335,1.7a23.7,23.7,0,0,0,2.811,3.2,7.957,7.957,0,0,0,3.05,1.56l.984.337,2.643,1a.717.717,0,0,1,.45.886s-2.938,9.839-3.064,10.247h0a.745.745,0,0,1-.675.52Zm-.689-.928a.715.715,0,0,0,0,.183,1.218,1.218,0,0,1,0-.183ZM278.533,127.6h0a.239.239,0,0,0-.084.112c0,.309,1.139,1.293,2.938,2.108a27.143,27.143,0,0,0,8.209,2.221c.914.1,1.813.126,2.7.169a19.257,19.257,0,0,1,6.058.9,28.549,28.549,0,0,1,3.978,1.673c.351-1.181,1.068-3.613,2.572-8.659l-2.01-.745-.942-.337a9.081,9.081,0,0,1-3.57-1.855,25.065,25.065,0,0,1-2.924-3.388c-.436-.576-.857-1.139-1.293-1.659a2.277,2.277,0,0,0-.675-.618.408.408,0,0,0-.253,0,1.884,1.884,0,0,0,.2.534l.323.6a6.1,6.1,0,0,1,1.1,4.1.7.7,0,0,1-.38.492.731.731,0,0,1-.618,0l-.562-.239c-3.556-1.546-7.225-3.149-10.711-5.06a2.629,2.629,0,0,0-1.841-.534c-.084,0-.084.211.084.52a9.123,9.123,0,0,0,3.669,3.289c.548.351,1.1.689,1.616,1.068h0a.731.731,0,0,1-.843,1.181h0a5.861,5.861,0,0,0-1.223-.618,7.225,7.225,0,0,1-1.546-.773,29.732,29.732,0,0,0-3.121-2l-.323-.155a5.82,5.82,0,0,0,1.1,1.406,18.274,18.274,0,0,0,2.418,1.406,15.56,15.56,0,0,1,3.331,2.165.717.717,0,0,1-.8,1.181,5.945,5.945,0,0,0-1.068-.253,7.5,7.5,0,0,1-1.406-.478l-2.629-1.321-1.251-.633h0c1.406,2.305,4.147,3.613,6.353,4.667a.749.749,0,0,1-.52,1.406l-5.693-1.7Z" transform="translate(67.493 -54.001)" fill="#231f20"/>
  <g id="_040---Folded-Shirts-2" data-name="040---Folded-Shirts" transform="translate(94.178 183.751)">
    <g id="Icons-2" data-name="Icons" transform="translate(0.404 0.412)">
      <path id="Shape-14" data-name="Shape" d="M28.217,20.282V31.825a1.391,1.391,0,0,1-1.395,1.395H9.395A1.391,1.391,0,0,1,8,31.825v-1.84H23.587a1.391,1.391,0,0,0,1.395-1.395V17.047a3.441,3.441,0,0,0-.061-.647l.869.481.639.356A3.485,3.485,0,0,1,28.217,20.282Z" transform="translate(-4.765 -9.769)" fill="#485189"/>
      <path id="Shape-15" data-name="Shape" d="M27,21.324V32.868a1.391,1.391,0,0,1-1.395,1.395H9.395A1.391,1.391,0,0,1,8,32.868v-1.84H23.587a1.391,1.391,0,0,0,1.395-1.395V18.15l.23.129A3.485,3.485,0,0,1,27,21.324Z" transform="translate(-4.765 -10.811)" fill="#2f3979"/>
      <path id="Shape-16" data-name="Shape" d="M20.217,11.489V23.033a1.391,1.391,0,0,1-1.395,1.395H1.395A1.391,1.391,0,0,1,0,23.033V11.489A3.485,3.485,0,0,1,1.791,8.445L4.266,7.07H15.951l2.475,1.375A3.485,3.485,0,0,1,20.217,11.489Z" transform="translate(0 -4.211)" fill="#cfd8dc"/>
      <path id="Shape-17" data-name="Shape" d="M19,11.489V23.033a1.391,1.391,0,0,1-1.395,1.395H1.395A1.391,1.391,0,0,1,0,23.033V11.489A3.485,3.485,0,0,1,1.791,8.445L4.266,7.07H14.738l2.475,1.375A3.485,3.485,0,0,1,19,11.489Z" transform="translate(0 -4.211)" fill="#f5f5f5"/>
      <g id="Group_1218-2" data-name="Group 1218" transform="translate(6.874 9.3)">
        <circle id="Oval-4" data-name="Oval" cx="0.809" cy="0.809" r="0.809" fill="#545c60"/>
        <circle id="Oval-5" data-name="Oval" cx="0.809" cy="0.809" r="0.809" transform="translate(0 3.235)" fill="#545c60"/>
        <circle id="Oval-6" data-name="Oval" cx="0.809" cy="0.809" r="0.809" transform="translate(0 6.469)" fill="#545c60"/>
      </g>
      <path id="Shape-18" data-name="Shape" d="M21.148.7c-1.395-.7-4.88-.7-4.88-.7s-3.485,0-4.88.7A4.582,4.582,0,0,0,10.34,3.833a14.6,14.6,0,0,0,3.837,3.138,5.114,5.114,0,0,1,2.09-2.426,5.17,5.17,0,0,1,2.09,2.426A14.6,14.6,0,0,0,22.2,3.833,4.582,4.582,0,0,0,21.148.7Z" transform="translate(-6.159 0)" fill="#d1d4d1"/>
      <path id="Shape-19" data-name="Shape" d="M16.268,5.539a5.17,5.17,0,0,0-2.09,2.426A14.6,14.6,0,0,1,10.34,4.828,4.582,4.582,0,0,1,11.387,1.69,12.227,12.227,0,0,0,12.9,3.352,11.726,11.726,0,0,0,16.268,5.539Z" transform="translate(-6.159 -1.007)" fill="#cfd8dc"/>
      <path id="Shape-20" data-name="Shape" d="M22.691.7a12.227,12.227,0,0,1-1.516,1.662A23.173,23.173,0,0,0,17.81,2.09a23.173,23.173,0,0,0-3.364.267A12.227,12.227,0,0,1,12.93.7C14.325,0,17.81,0,17.81,0s3.485,0,4.88.7Z" transform="translate(-7.702 0)" fill="#9e9e9e"/>
      <path id="Shape-21" data-name="Shape" d="M23.408,5.437a11.726,11.726,0,0,1-3.364,2.175A11.726,11.726,0,0,1,16.68,5.437a23.172,23.172,0,0,1,3.364-.267A23.172,23.172,0,0,1,23.408,5.437Z" transform="translate(-9.936 -3.08)" fill="#37474f"/>
      <path id="Shape-22" data-name="Shape" d="M30.928,4.876A14.6,14.6,0,0,1,27.09,8.013,5.114,5.114,0,0,0,25,5.587a11.726,11.726,0,0,0,3.364-2.175A12.227,12.227,0,0,0,29.88,1.75,4.53,4.53,0,0,1,30.928,4.876Z" transform="translate(-14.892 -1.042)" fill="#cfd8dc"/>
    </g>
    <g id="Layer_9-2" data-name="Layer_9" transform="translate(0 0)">
      <path id="Shape-23" data-name="Shape" d="M22.263,8.509l-1.355-.752A3.882,3.882,0,0,0,19.024,5.27l-2.3-1.282A4.581,4.581,0,0,0,15.688,1.8a.425.425,0,0,0-.121-.089c-1.953-.97-8.151-.97-10.108,0a.425.425,0,0,0-.121.089A4.581,4.581,0,0,0,4.306,3.972L2,5.27a3.9,3.9,0,0,0-2,3.4V20.214a1.8,1.8,0,0,0,1.8,1.8H3.235v1.435a1.8,1.8,0,0,0,1.8,1.8H22.461a1.8,1.8,0,0,0,1.8-1.8V11.905a3.882,3.882,0,0,0-2-3.4ZM18.624,5.978A3.085,3.085,0,0,1,20.217,8.67V20.214a.991.991,0,0,1-.991.991H10.917V6.677a5.479,5.479,0,0,1,1.314,1.836.4.4,0,0,0,.574.2,14.928,14.928,0,0,0,3.95-3.235c.113-.146.089-.287.081-.5Zm-8.111-.493a11.394,11.394,0,0,1-2.406-1.46,22,22,0,0,1,4.812,0,11.394,11.394,0,0,1-2.406,1.46Zm4.852-2.733a4.585,4.585,0,0,1,.647,2.329,14.52,14.52,0,0,1-3.235,2.709,5.839,5.839,0,0,0-1.431-1.8,12.963,12.963,0,0,0,4.039-3.235Zm-.647-.485a11.322,11.322,0,0,1-.97,1.051,22.465,22.465,0,0,0-6.469,0,11.321,11.321,0,0,1-.995-1.051,19.615,19.615,0,0,1,8.455,0Zm-9.081.485A12.753,12.753,0,0,0,9.68,5.986a5.839,5.839,0,0,0-1.431,1.8A14.508,14.508,0,0,1,5.014,5.08,4.622,4.622,0,0,1,5.636,2.751ZM.809,20.214V8.67A3.085,3.085,0,0,1,2.394,5.978l1.8-1c0,.222-.032.356.081.5A14.928,14.928,0,0,0,8.22,8.715a.4.4,0,0,0,.578-.2,5.3,5.3,0,0,1,1.31-1.836V21.2H1.8a.991.991,0,0,1-.991-.991Zm3.235,3.235V22.014h9.3V24.44H5.034a.991.991,0,0,1-.991-.991Zm19.408,0a.991.991,0,0,1-.991.991H14.152V22.014h5.074a1.8,1.8,0,0,0,1.8-1.8V8.743l.841.469a3.085,3.085,0,0,1,1.585,2.693Z" transform="translate(0 -0.98)" fill="#101a56"/>
      <path id="Shape-24" data-name="Shape" d="M18.213,26.426A1.213,1.213,0,1,0,17,25.213,1.213,1.213,0,0,0,18.213,26.426Zm0-1.617a.4.4,0,1,1-.4.4A.4.4,0,0,1,18.213,24.809Z" transform="translate(-10.126 -14.692)"/>
      <path id="Shape-25" data-name="Shape" d="M18.213,34.426A1.213,1.213,0,1,0,17,33.213,1.213,1.213,0,0,0,18.213,34.426Zm0-1.617a.4.4,0,1,1-.4.4A.4.4,0,0,1,18.213,32.809Z" transform="translate(-10.126 -19.457)"/>
      <path id="Shape-26" data-name="Shape" d="M18.213,42.426A1.213,1.213,0,1,0,17,41.213,1.213,1.213,0,0,0,18.213,42.426Zm0-1.617a.4.4,0,1,1-.4.4A.4.4,0,0,1,18.213,40.809Z" transform="translate(-10.126 -24.223)"/>
    </g>
  </g>
  <g id="_040---Folded-Shirts-3" data-name="040---Folded-Shirts" transform="translate(39.358 183.751)">
    <g id="Icons-3" data-name="Icons" transform="translate(0.404 0.412)">
      <path id="Shape-27" data-name="Shape" d="M28.217,20.282V31.825a1.391,1.391,0,0,1-1.395,1.395H9.395A1.391,1.391,0,0,1,8,31.825v-1.84H23.587a1.391,1.391,0,0,0,1.395-1.395V17.047a3.441,3.441,0,0,0-.061-.647l.869.481.639.356A3.485,3.485,0,0,1,28.217,20.282Z" transform="translate(-4.765 -9.769)" fill="#485189"/>
      <path id="Shape-28" data-name="Shape" d="M27,21.324V32.868a1.391,1.391,0,0,1-1.395,1.395H9.395A1.391,1.391,0,0,1,8,32.868v-1.84H23.587a1.391,1.391,0,0,0,1.395-1.395V18.15l.23.129A3.485,3.485,0,0,1,27,21.324Z" transform="translate(-4.765 -10.811)" fill="#2f3979"/>
      <path id="Shape-29" data-name="Shape" d="M20.217,11.489V23.033a1.391,1.391,0,0,1-1.395,1.395H1.395A1.391,1.391,0,0,1,0,23.033V11.489A3.485,3.485,0,0,1,1.791,8.445L4.266,7.07H15.951l2.475,1.375A3.485,3.485,0,0,1,20.217,11.489Z" transform="translate(0 -4.211)" fill="#cfd8dc"/>
      <path id="Shape-30" data-name="Shape" d="M19,11.489V23.033a1.391,1.391,0,0,1-1.395,1.395H1.395A1.391,1.391,0,0,1,0,23.033V11.489A3.485,3.485,0,0,1,1.791,8.445L4.266,7.07H14.738l2.475,1.375A3.485,3.485,0,0,1,19,11.489Z" transform="translate(0 -4.211)" fill="#f5f5f5"/>
      <g id="Group_1218-3" data-name="Group 1218" transform="translate(6.874 9.3)">
        <circle id="Oval-7" data-name="Oval" cx="0.809" cy="0.809" r="0.809" fill="#545c60"/>
        <circle id="Oval-8" data-name="Oval" cx="0.809" cy="0.809" r="0.809" transform="translate(0 3.235)" fill="#545c60"/>
        <circle id="Oval-9" data-name="Oval" cx="0.809" cy="0.809" r="0.809" transform="translate(0 6.469)" fill="#545c60"/>
      </g>
      <path id="Shape-31" data-name="Shape" d="M21.148.7c-1.395-.7-4.88-.7-4.88-.7s-3.485,0-4.88.7A4.582,4.582,0,0,0,10.34,3.833a14.6,14.6,0,0,0,3.837,3.138,5.114,5.114,0,0,1,2.09-2.426,5.17,5.17,0,0,1,2.09,2.426A14.6,14.6,0,0,0,22.2,3.833,4.582,4.582,0,0,0,21.148.7Z" transform="translate(-6.159 0)" fill="#d1d4d1"/>
      <path id="Shape-32" data-name="Shape" d="M16.268,5.539a5.17,5.17,0,0,0-2.09,2.426A14.6,14.6,0,0,1,10.34,4.828,4.582,4.582,0,0,1,11.387,1.69,12.227,12.227,0,0,0,12.9,3.352,11.726,11.726,0,0,0,16.268,5.539Z" transform="translate(-6.159 -1.007)" fill="#cfd8dc"/>
      <path id="Shape-33" data-name="Shape" d="M22.691.7a12.227,12.227,0,0,1-1.516,1.662A23.173,23.173,0,0,0,17.81,2.09a23.173,23.173,0,0,0-3.364.267A12.227,12.227,0,0,1,12.93.7C14.325,0,17.81,0,17.81,0s3.485,0,4.88.7Z" transform="translate(-7.702 0)" fill="#9e9e9e"/>
      <path id="Shape-34" data-name="Shape" d="M23.408,5.437a11.726,11.726,0,0,1-3.364,2.175A11.726,11.726,0,0,1,16.68,5.437a23.172,23.172,0,0,1,3.364-.267A23.172,23.172,0,0,1,23.408,5.437Z" transform="translate(-9.936 -3.08)" fill="#37474f"/>
      <path id="Shape-35" data-name="Shape" d="M30.928,4.876A14.6,14.6,0,0,1,27.09,8.013,5.114,5.114,0,0,0,25,5.587a11.726,11.726,0,0,0,3.364-2.175A12.227,12.227,0,0,0,29.88,1.75,4.53,4.53,0,0,1,30.928,4.876Z" transform="translate(-14.892 -1.042)" fill="#cfd8dc"/>
    </g>
    <g id="Layer_9-3" data-name="Layer_9" transform="translate(0 0)">
      <path id="Shape-36" data-name="Shape" d="M22.263,8.509l-1.355-.752A3.882,3.882,0,0,0,19.024,5.27l-2.3-1.282A4.581,4.581,0,0,0,15.688,1.8a.425.425,0,0,0-.121-.089c-1.953-.97-8.151-.97-10.108,0a.425.425,0,0,0-.121.089A4.581,4.581,0,0,0,4.306,3.972L2,5.27a3.9,3.9,0,0,0-2,3.4V20.214a1.8,1.8,0,0,0,1.8,1.8H3.235v1.435a1.8,1.8,0,0,0,1.8,1.8H22.461a1.8,1.8,0,0,0,1.8-1.8V11.905a3.882,3.882,0,0,0-2-3.4ZM18.624,5.978A3.085,3.085,0,0,1,20.217,8.67V20.214a.991.991,0,0,1-.991.991H10.917V6.677a5.479,5.479,0,0,1,1.314,1.836.4.4,0,0,0,.574.2,14.928,14.928,0,0,0,3.95-3.235c.113-.146.089-.287.081-.5Zm-8.111-.493a11.394,11.394,0,0,1-2.406-1.46,22,22,0,0,1,4.812,0,11.394,11.394,0,0,1-2.406,1.46Zm4.852-2.733a4.585,4.585,0,0,1,.647,2.329,14.52,14.52,0,0,1-3.235,2.709,5.839,5.839,0,0,0-1.431-1.8,12.963,12.963,0,0,0,4.039-3.235Zm-.647-.485a11.322,11.322,0,0,1-.97,1.051,22.465,22.465,0,0,0-6.469,0,11.321,11.321,0,0,1-.995-1.051,19.615,19.615,0,0,1,8.455,0Zm-9.081.485A12.753,12.753,0,0,0,9.68,5.986a5.839,5.839,0,0,0-1.431,1.8A14.508,14.508,0,0,1,5.014,5.08,4.622,4.622,0,0,1,5.636,2.751ZM.809,20.214V8.67A3.085,3.085,0,0,1,2.394,5.978l1.8-1c0,.222-.032.356.081.5A14.928,14.928,0,0,0,8.22,8.715a.4.4,0,0,0,.578-.2,5.3,5.3,0,0,1,1.31-1.836V21.2H1.8a.991.991,0,0,1-.991-.991Zm3.235,3.235V22.014h9.3V24.44H5.034a.991.991,0,0,1-.991-.991Zm19.408,0a.991.991,0,0,1-.991.991H14.152V22.014h5.074a1.8,1.8,0,0,0,1.8-1.8V8.743l.841.469a3.085,3.085,0,0,1,1.585,2.693Z" transform="translate(0 -0.98)" fill="#101a56"/>
      <path id="Shape-37" data-name="Shape" d="M18.213,26.426A1.213,1.213,0,1,0,17,25.213,1.213,1.213,0,0,0,18.213,26.426Zm0-1.617a.4.4,0,1,1-.4.4A.4.4,0,0,1,18.213,24.809Z" transform="translate(-10.126 -14.692)"/>
      <path id="Shape-38" data-name="Shape" d="M18.213,34.426A1.213,1.213,0,1,0,17,33.213,1.213,1.213,0,0,0,18.213,34.426Zm0-1.617a.4.4,0,1,1-.4.4A.4.4,0,0,1,18.213,32.809Z" transform="translate(-10.126 -19.457)"/>
      <path id="Shape-39" data-name="Shape" d="M18.213,42.426A1.213,1.213,0,1,0,17,41.213,1.213,1.213,0,0,0,18.213,42.426Zm0-1.617a.4.4,0,1,1-.4.4A.4.4,0,0,1,18.213,40.809Z" transform="translate(-10.126 -24.223)"/>
    </g>
  </g>
  <g id="_040---Folded-Shirts-4" data-name="040---Folded-Shirts" transform="translate(67.471 74.111)">
    <g id="Icons-4" data-name="Icons" transform="translate(0.404 0.412)">
      <path id="Shape-40" data-name="Shape" d="M28.217,20.282V31.825a1.391,1.391,0,0,1-1.395,1.395H9.395A1.391,1.391,0,0,1,8,31.825v-1.84H23.587a1.391,1.391,0,0,0,1.395-1.395V17.047a3.441,3.441,0,0,0-.061-.647l.869.481.639.356A3.485,3.485,0,0,1,28.217,20.282Z" transform="translate(-4.765 -9.769)" fill="#485189"/>
      <path id="Shape-41" data-name="Shape" d="M27,21.324V32.868a1.391,1.391,0,0,1-1.395,1.395H9.395A1.391,1.391,0,0,1,8,32.868v-1.84H23.587a1.391,1.391,0,0,0,1.395-1.395V18.15l.23.129A3.485,3.485,0,0,1,27,21.324Z" transform="translate(-4.765 -10.811)" fill="#2f3979"/>
      <path id="Shape-42" data-name="Shape" d="M20.217,11.489V23.033a1.391,1.391,0,0,1-1.395,1.395H1.395A1.391,1.391,0,0,1,0,23.033V11.489A3.485,3.485,0,0,1,1.791,8.445L4.266,7.07H15.951l2.475,1.375A3.485,3.485,0,0,1,20.217,11.489Z" transform="translate(0 -4.211)" fill="#cfd8dc"/>
      <path id="Shape-43" data-name="Shape" d="M19,11.489V23.033a1.391,1.391,0,0,1-1.395,1.395H1.395A1.391,1.391,0,0,1,0,23.033V11.489A3.485,3.485,0,0,1,1.791,8.445L4.266,7.07H14.738l2.475,1.375A3.485,3.485,0,0,1,19,11.489Z" transform="translate(0 -4.211)" fill="#f5f5f5"/>
      <g id="Group_1218-4" data-name="Group 1218" transform="translate(6.874 9.3)">
        <circle id="Oval-10" data-name="Oval" cx="0.809" cy="0.809" r="0.809" fill="#545c60"/>
        <circle id="Oval-11" data-name="Oval" cx="0.809" cy="0.809" r="0.809" transform="translate(0 3.235)" fill="#545c60"/>
        <circle id="Oval-12" data-name="Oval" cx="0.809" cy="0.809" r="0.809" transform="translate(0 6.469)" fill="#545c60"/>
      </g>
      <path id="Shape-44" data-name="Shape" d="M21.148.7c-1.395-.7-4.88-.7-4.88-.7s-3.485,0-4.88.7A4.582,4.582,0,0,0,10.34,3.833a14.6,14.6,0,0,0,3.837,3.138,5.114,5.114,0,0,1,2.09-2.426,5.17,5.17,0,0,1,2.09,2.426A14.6,14.6,0,0,0,22.2,3.833,4.582,4.582,0,0,0,21.148.7Z" transform="translate(-6.159 0)" fill="#d1d4d1"/>
      <path id="Shape-45" data-name="Shape" d="M16.268,5.539a5.17,5.17,0,0,0-2.09,2.426A14.6,14.6,0,0,1,10.34,4.828,4.582,4.582,0,0,1,11.387,1.69,12.227,12.227,0,0,0,12.9,3.352,11.726,11.726,0,0,0,16.268,5.539Z" transform="translate(-6.159 -1.007)" fill="#cfd8dc"/>
      <path id="Shape-46" data-name="Shape" d="M22.691.7a12.227,12.227,0,0,1-1.516,1.662A23.173,23.173,0,0,0,17.81,2.09a23.173,23.173,0,0,0-3.364.267A12.227,12.227,0,0,1,12.93.7C14.325,0,17.81,0,17.81,0s3.485,0,4.88.7Z" transform="translate(-7.702 0)" fill="#9e9e9e"/>
      <path id="Shape-47" data-name="Shape" d="M23.408,5.437a11.726,11.726,0,0,1-3.364,2.175A11.726,11.726,0,0,1,16.68,5.437a23.172,23.172,0,0,1,3.364-.267A23.172,23.172,0,0,1,23.408,5.437Z" transform="translate(-9.936 -3.08)" fill="#37474f"/>
      <path id="Shape-48" data-name="Shape" d="M30.928,4.876A14.6,14.6,0,0,1,27.09,8.013,5.114,5.114,0,0,0,25,5.587a11.726,11.726,0,0,0,3.364-2.175A12.227,12.227,0,0,0,29.88,1.75,4.53,4.53,0,0,1,30.928,4.876Z" transform="translate(-14.892 -1.042)" fill="#cfd8dc"/>
    </g>
    <g id="Layer_9-4" data-name="Layer_9" transform="translate(0 0)">
      <path id="Shape-49" data-name="Shape" d="M22.263,8.509l-1.355-.752A3.882,3.882,0,0,0,19.024,5.27l-2.3-1.282A4.581,4.581,0,0,0,15.688,1.8a.425.425,0,0,0-.121-.089c-1.953-.97-8.151-.97-10.108,0a.425.425,0,0,0-.121.089A4.581,4.581,0,0,0,4.306,3.972L2,5.27a3.9,3.9,0,0,0-2,3.4V20.214a1.8,1.8,0,0,0,1.8,1.8H3.235v1.435a1.8,1.8,0,0,0,1.8,1.8H22.461a1.8,1.8,0,0,0,1.8-1.8V11.905a3.882,3.882,0,0,0-2-3.4ZM18.624,5.978A3.085,3.085,0,0,1,20.217,8.67V20.214a.991.991,0,0,1-.991.991H10.917V6.677a5.479,5.479,0,0,1,1.314,1.836.4.4,0,0,0,.574.2,14.928,14.928,0,0,0,3.95-3.235c.113-.146.089-.287.081-.5Zm-8.111-.493a11.394,11.394,0,0,1-2.406-1.46,22,22,0,0,1,4.812,0,11.394,11.394,0,0,1-2.406,1.46Zm4.852-2.733a4.585,4.585,0,0,1,.647,2.329,14.52,14.52,0,0,1-3.235,2.709,5.839,5.839,0,0,0-1.431-1.8,12.963,12.963,0,0,0,4.039-3.235Zm-.647-.485a11.322,11.322,0,0,1-.97,1.051,22.465,22.465,0,0,0-6.469,0,11.321,11.321,0,0,1-.995-1.051,19.615,19.615,0,0,1,8.455,0Zm-9.081.485A12.753,12.753,0,0,0,9.68,5.986a5.839,5.839,0,0,0-1.431,1.8A14.508,14.508,0,0,1,5.014,5.08,4.622,4.622,0,0,1,5.636,2.751ZM.809,20.214V8.67A3.085,3.085,0,0,1,2.394,5.978l1.8-1c0,.222-.032.356.081.5A14.928,14.928,0,0,0,8.22,8.715a.4.4,0,0,0,.578-.2,5.3,5.3,0,0,1,1.31-1.836V21.2H1.8a.991.991,0,0,1-.991-.991Zm3.235,3.235V22.014h9.3V24.44H5.034a.991.991,0,0,1-.991-.991Zm19.408,0a.991.991,0,0,1-.991.991H14.152V22.014h5.074a1.8,1.8,0,0,0,1.8-1.8V8.743l.841.469a3.085,3.085,0,0,1,1.585,2.693Z" transform="translate(0 -0.98)" fill="#101a56"/>
      <path id="Shape-50" data-name="Shape" d="M18.213,26.426A1.213,1.213,0,1,0,17,25.213,1.213,1.213,0,0,0,18.213,26.426Zm0-1.617a.4.4,0,1,1-.4.4A.4.4,0,0,1,18.213,24.809Z" transform="translate(-10.126 -14.692)"/>
      <path id="Shape-51" data-name="Shape" d="M18.213,34.426A1.213,1.213,0,1,0,17,33.213,1.213,1.213,0,0,0,18.213,34.426Zm0-1.617a.4.4,0,1,1-.4.4A.4.4,0,0,1,18.213,32.809Z" transform="translate(-10.126 -19.457)"/>
      <path id="Shape-52" data-name="Shape" d="M18.213,42.426A1.213,1.213,0,1,0,17,41.213,1.213,1.213,0,0,0,18.213,42.426Zm0-1.617a.4.4,0,1,1-.4.4A.4.4,0,0,1,18.213,40.809Z" transform="translate(-10.126 -24.223)"/>
    </g>
  </g>
</svg>
