<svg xmlns="http://www.w3.org/2000/svg" width="238.609" height="219.519" viewBox="0 0 238.609 219.519">
  <g id="Group_1232" data-name="Group 1232" transform="translate(1691 -1258)">
    <g id="_36_vr" data-name="#36_vr" transform="translate(-1691 1258)">
      <path id="Path_1234" data-name="Path 1234" d="M200.143,53.822H80.977l-.32-5.061A13.96,13.96,0,0,1,94.768,33.71h89.177a16.208,16.208,0,0,1,15.992,15.051Z" transform="translate(-80.146 -33.267)" fill="#7fd5e5"/>
      <path id="Path_1235" data-name="Path 1235" d="M200.113,54.264H80.948a.47.47,0,0,1-.47-.442l-.32-5.061A14.43,14.43,0,0,1,94.719,33.24H183.9A16.688,16.688,0,0,1,200.311,48.7l.32,5.07a.48.48,0,0,1-.47.5ZM81.343,53.324H199.615l-.282-4.562a15.738,15.738,0,0,0-15.484-14.581H94.672A13.489,13.489,0,0,0,81.051,48.7Z" transform="translate(-80.116 -33.239)" fill="#231f20"/>
      <path id="Path_1236" data-name="Path 1236" d="M212.364,252.467H93.151L80.96,55.29H200.173Z" transform="translate(-80.166 -34.547)" fill="#dee2e8"/>
      <path id="Path_1237" data-name="Path 1237" d="M212.332,252.907H93.119a.47.47,0,0,1-.47-.442L80.42,55.289a.489.489,0,0,1,.122-.357.48.48,0,0,1,.348-.141h119.25a.47.47,0,0,1,.47.442L212.84,252.409a.48.48,0,0,1-.47.5Zm-118.771-.941H211.833L199.7,55.731H81.426Z" transform="translate(-80.134 -34.517)" fill="#231f20"/>
      <path id="Path_1238" data-name="Path 1238" d="M146.915,46.751H132.87a.47.47,0,0,1,0-.941h14.044a.47.47,0,0,1,0,.941Z" transform="translate(-83.217 -33.985)" fill="#101a56"/>
      <path id="Path_1239" data-name="Path 1239" d="M154.408,46.751H151.2a.47.47,0,0,1-.47-.47.48.48,0,0,1,.47-.47h3.208a.47.47,0,0,1,0,.941Z" transform="translate(-84.305 -33.985)" fill="#101a56"/>
      <path id="Path_1240" data-name="Path 1240" d="M198.229,142.1h-51a.47.47,0,0,1-.47-.442L141.91,75.129a.467.467,0,0,1,.461-.5h49.856a.452.452,0,0,1,.461.423l5.964,66.525a.527.527,0,0,1-.122.367.489.489,0,0,1-.3.151Zm-50.571-.941h50.054l-5.86-65.584H142.879Z" transform="translate(-83.781 -35.694)" fill="#101a56"/>
      <path id="Path_1244" data-name="Path 1244" d="M168.421,101.353a.451.451,0,0,1-.32-.122.47.47,0,0,1,0-.668c3.161-3.415,9.7-5.55,11.081-5.973a5.014,5.014,0,0,0-.263-3.509,9.293,9.293,0,0,0-.941-1.223c-.941-1.148-2.107-2.587-1.816-4.148a4.186,4.186,0,0,1,2.352-2.737,2.483,2.483,0,0,1,2.352-.273c1.524.658,2.06,2.926,2.088,3.02a.482.482,0,1,1-.941.207c-.122-.527-.64-1.975-1.533-2.371a1.637,1.637,0,0,0-1.514.226,3.462,3.462,0,0,0-1.881,2.1c-.207,1.138.762,2.333,1.627,3.386a9.919,9.919,0,0,1,1,1.364,6.124,6.124,0,0,1,.263,4.5.461.461,0,0,1-.31.292c-.075,0-7.62,2.229-10.912,5.785A.433.433,0,0,1,168.421,101.353Z" transform="translate(-85.327 -36.162)" fill="#231f20"/>
      <path id="Path_1245" data-name="Path 1245" d="M189.017,103.34a.489.489,0,0,1-.4-.226,18.729,18.729,0,0,0-8.532-6.952.461.461,0,0,1-.282-.6.48.48,0,0,1,.6-.282,19.312,19.312,0,0,1,9.012,7.347.461.461,0,0,1-.15.649.451.451,0,0,1-.245.066Z" transform="translate(-86.027 -36.917)" fill="#231f20"/>
      <path id="Path_1246" data-name="Path 1246" d="M178.2,106.975a19.425,19.425,0,0,1-2.512-.169c-8.588-1.148-9.162-6.3-9.181-6.519a.473.473,0,1,1,.941-.094c0,.207.583,4.647,8.372,5.644a18.974,18.974,0,0,0,13.772-3.763.454.454,0,1,1,.611.668,19.641,19.641,0,0,1-12,4.233Z" transform="translate(-85.24 -37.185)" fill="#231f20"/>
      <path id="Path_1247" data-name="Path 1247" d="M239.987,94.9s-4.449,10.216-3.142,11.288,4.7.263,4.7.263" transform="translate(-89.398 -36.896)" fill="#fff"/>
      <path id="Path_1248" data-name="Path 1248" d="M239.075,107.2a4.158,4.158,0,0,1-2.549-.658c-1.383-1.1,1.289-7.874,3.01-11.815a.47.47,0,0,1,.856.376c-2.258,5.2-3.763,10.1-3.274,10.714.941.734,3.424.367,4.308.16a.473.473,0,0,1,.216.922A12.6,12.6,0,0,1,239.075,107.2Z" transform="translate(-89.371 -36.872)" fill="#231f20"/>
      <path id="Path_1249" data-name="Path 1249" d="M254.865,122.537l-2.587-5.418s-4.242,3.067-8.72-3.763S238.14,80.14,238.14,80.14s11.777,16.518,15.051,13.866c-.658-4.769,2.041-7.789,5.428-1.881,2.653,4.638-2.512,7.413-2.512,7.413l4.374,16.387" transform="translate(-89.489 -36.021)" fill="#fff"/>
      <path id="Path_1250" data-name="Path 1250" d="M254.839,122.977a.47.47,0,0,1-.423-.263l-2.323-4.967a5.23,5.23,0,0,1-3.189.4c-2.051-.376-3.979-1.881-5.719-4.572-4.5-6.867-5.456-32.378-5.494-33.46a.473.473,0,0,1,.856-.292C241.2,83.59,248.818,93.3,252.167,93.769a1.242,1.242,0,0,0,.574,0c-.3-2.69.414-4.788,1.825-5.268.8-.273,2.455-.188,4.525,3.424a5.24,5.24,0,0,1,.63,4.139,7.187,7.187,0,0,1-3.01,3.763L261,115.818a.486.486,0,0,1-.941.245l-4.384-16.387a.48.48,0,0,1,.235-.536,6.491,6.491,0,0,0,2.878-3.358,4.336,4.336,0,0,0-.546-3.405c-1.251-2.182-2.521-3.311-3.405-3s-1.515,1.975-1.157,4.553a.451.451,0,0,1-.169.433,1.881,1.881,0,0,1-1.505.367c-3.678-.508-10.79-9.642-13.339-13.066.292,5.738,1.543,25.728,5.277,31.428,1.59,2.427,3.3,3.829,5.08,4.167a4.073,4.073,0,0,0,2.973-.527.48.48,0,0,1,.7.188l2.587,5.418a.461.461,0,0,1-.216.621.414.414,0,0,1-.226.019Z" transform="translate(-89.463 -35.991)" fill="#231f20"/>
      <ellipse id="Ellipse_267" data-name="Ellipse 267" cx="0.884" cy="2.549" rx="0.884" ry="2.549" transform="translate(152.28 55.438) rotate(-6.31)" fill="#231f20"/>
      <path id="Path_1251" data-name="Path 1251" d="M305.251,159.954a.471.471,0,0,1-.066-.941c10.63-1.355,19.754-9.529,21.137-19.03.611-4.007,0-8.466-1.731-13.518a31.786,31.786,0,0,0-7-11.937c-5.042-5.117-11.89-7.525-18.5-9.915a96.657,96.657,0,0,1-10-3.988c-7.695-3.763-10.639-9.689-13.753-15.992a74.317,74.317,0,0,0-4.7-8.466,21.259,21.259,0,0,0-29.66-6.133l-.894.593a16.82,16.82,0,0,1-3.114,1.759,14.29,14.29,0,0,1-1.411.442c-.4.122-.809.235-1.2.376a8.2,8.2,0,0,0,.442,15.559.48.48,0,0,1,.31.593.47.47,0,0,1-.583.31,9.153,9.153,0,0,1-.5-17.346c.423-.151.847-.273,1.279-.4a13.669,13.669,0,0,0,1.326-.423,14.9,14.9,0,0,0,2.926-1.656l.941-.6a22.172,22.172,0,0,1,30.948,6.4,75.724,75.724,0,0,1,4.779,8.607c3.17,6.378,5.908,11.89,13.32,15.521a95.1,95.1,0,0,0,9.9,3.951c6.716,2.389,13.668,4.873,18.861,10.141a32.482,32.482,0,0,1,7.177,12.314c1.825,5.23,2.408,9.8,1.778,13.969-1.486,9.9-10.921,18.419-21.946,19.83Z" transform="translate(-88.89 -35.153)" fill="#231f20"/>
      <path id="Path_1252" data-name="Path 1252" d="M248.078,148.692s-10.084,1.232-30.779-14.044-27.59-42.077-28.888-43.554-1.881-1.486-3.763-1.768a8.118,8.118,0,0,1-5.5-3.669,1.185,1.185,0,0,1-.235-.715.875.875,0,0,1,.941-.64,3.5,3.5,0,0,1,1.195.461,6.321,6.321,0,0,0,2.512.64,1.618,1.618,0,0,0,.847-.141,1.543,1.543,0,0,0,.621-1.4c0-1.75-1.11-5-3.462-3.913a2.107,2.107,0,0,0-1.185,2.126,1.129,1.129,0,0,1,0,.64c-.132.263-.489.32-.79.3a2.907,2.907,0,1,1,.8-5.748l-3.095-.611a5.2,5.2,0,0,1-1.957-.668,1.8,1.8,0,0,1-.856-1.759,1.966,1.966,0,0,1,.508-.941c1.223-1.345,3.2-1.627,5-1.816,2.907-.31,5.917-.574,8.72.273,5.644,1.7,8.466,6.161,11.288,11.015a95.974,95.974,0,0,0,37.674,36.79c7.083,3.763,15.051,7.008,23.047,6.359" transform="translate(-85.712 -35.489)" fill="#fff"/>
      <path id="Path_1253" data-name="Path 1253" d="M247.371,149.161c-2.653,0-12.615-1.016-30.431-14.167-17.017-12.586-24.787-32.971-27.713-40.685a24.39,24.39,0,0,0-1.213-2.935c-1.091-1.242-1.609-1.326-3.311-1.6h-.122a8.57,8.57,0,0,1-5.879-3.9,1.543,1.543,0,0,1-.292-1.016,1.326,1.326,0,0,1,1.467-1.054,3.066,3.066,0,0,1,1.176.414l.188.094a5.861,5.861,0,0,0,2.333.593,1.213,1.213,0,0,0,.593-.075c.348-.2.376-.809.376-1,0-1.223-.536-2.9-1.42-3.462a1.326,1.326,0,0,0-1.373,0,1.665,1.665,0,0,0-.941,1.646v.094a1.336,1.336,0,0,1-.075.818,1.2,1.2,0,0,1-1.251.546,3.33,3.33,0,0,1-2.314-1.279,3.236,3.236,0,0,1,.658-4.788l.207-.132-.941-.2a5.644,5.644,0,0,1-2.126-.743A2.286,2.286,0,0,1,174,74.066a2.465,2.465,0,0,1,.621-1.129c1.317-1.439,3.339-1.759,5.3-1.966,3.217-.339,6.105-.555,8.918.292,5.644,1.7,8.466,5.907,11.542,11.232a94.915,94.915,0,0,0,37.486,36.611c6.227,3.292,14.449,6.97,22.793,6.3a.472.472,0,0,1,.075.941c-8.588.7-16.932-3.057-23.3-6.406a95.865,95.865,0,0,1-37.872-36.969c-2.982-5.146-5.644-9.209-11-10.808-2.643-.79-5.428-.593-8.541-.263-1.787.188-3.612.47-4.7,1.674a1.562,1.562,0,0,0-.4.677,1.355,1.355,0,0,0,.658,1.27,4.7,4.7,0,0,0,1.787.6l3.132.649a.461.461,0,0,1,.367.546.489.489,0,0,1-.555.376,2.433,2.433,0,1,0-.668,4.816.621.621,0,0,0,.339-.047,1.3,1.3,0,0,0,0-.245V82.1a2.6,2.6,0,0,1,1.411-2.653,2.277,2.277,0,0,1,2.276.094c1.355.875,1.881,3.076,1.881,4.261a1.928,1.928,0,0,1-.865,1.806,2.079,2.079,0,0,1-1.091.2,6.9,6.9,0,0,1-2.7-.687l-.207-.1a2.21,2.21,0,0,0-.818-.31c-.207,0-.442.1-.461.226s.113.329.16.414a7.62,7.62,0,0,0,5.155,3.509h.122c1.759.282,2.559.4,3.876,1.881a16.405,16.405,0,0,1,1.392,3.227c2.9,7.61,10.592,27.835,27.421,40.252,20.244,14.947,30.365,13.969,30.469,13.96a.469.469,0,0,1,.113.931A5.023,5.023,0,0,1,247.371,149.161Z" transform="translate(-85.683 -35.459)" fill="#231f20"/>
      <path id="Path_1254" data-name="Path 1254" d="M204.781,187.436c-1.1-1.477-17.741-36.216-17.741-36.216l18.484.367,16.283,32.529Z" transform="translate(-86.458 -40.237)" fill="#101a56"/>
      <path id="Path_1318" data-name="Path 1318" d="M137.925,242.768H122.207a4.845,4.845,0,0,1-4.807-4.619h0a4.393,4.393,0,0,1,4.431-4.619h15.719a4.854,4.854,0,0,1,4.807,4.619h0a4.393,4.393,0,0,1-4.431,4.619Z" transform="translate(-33.54 -82.24)" fill="#b1bbcb"/>
      <path id="Path_1319" data-name="Path 1319" d="M198.229,121.165h-51c-.249,0-.455-.133-.47-.3L141.91,74.974a.251.251,0,0,1,.122-.24.535.535,0,0,1,.339-.1h49.856c.242,0,.446.125.461.292l5.964,45.886a.3.3,0,0,1-.122.253.592.592,0,0,1-.3.1Zm-50.571-.649h50.054l-5.86-45.238H142.879Z" transform="translate(-74.236 41.729)" fill="#101a56"/>
      <path id="Path_1255" data-name="Path 1255" d="M204.751,187.877a.442.442,0,0,1-.367-.188c-1.129-1.5-17.111-34.881-17.788-36.3a.433.433,0,0,1,0-.452.546.546,0,0,1,.4-.216l18.484.367a.5.5,0,0,1,.414.263l16.283,32.557a.48.48,0,0,1,0,.423.414.414,0,0,1-.329.245l-17,3.292ZM187.762,151.67c4.656,9.717,15.6,32.425,17.215,35.219l16.086-3.151-15.86-31.72Z" transform="translate(-86.428 -40.207)" fill="#231f20"/>
      <path id="Path_1256" data-name="Path 1256" d="M205.3,183.012,190.59,153.39l14.308.706,13.094,27.562Z" transform="translate(-86.669 -40.366)" fill="#7fd5e5"/>
      <path id="Path_1257" data-name="Path 1257" d="M311.112,201.51s13.3,16.264,12.934,28.832-3.33,15.154-3.33,15.154l3.208,16.6L255,262.269l3.913-43.761Z" transform="translate(-90.489 -43.22)" fill="#101a56"/>
      <path id="Path_1258" data-name="Path 1258" d="M254.97,262.707a.47.47,0,0,1-.47-.508l3.923-43.761a.452.452,0,0,1,.32-.4L310.932,201a.47.47,0,0,1,.508.141c.546.677,13.414,16.547,13.038,29.161-.32,10.912-2.6,14.449-3.283,15.286l3.161,16.368a.442.442,0,0,1-.1.386.47.47,0,0,1-.357.179Zm4.337-43.836L255.459,261.8l67.87-.169-3.1-16.048a.489.489,0,0,1,.151-.442s2.822-2.737,3.17-14.816c.339-11.411-10.978-26.179-12.633-28.221Z" transform="translate(-90.46 -43.188)" fill="#231f20"/>
      <path id="Path_1259" data-name="Path 1259" d="M253.951,217.613s-1.712-1.8-3.142-26.753-14.515-24.712-9.51-50.007c4.5-22.774,20.441-24,30.695-22.774,22.153,2.634,16.772,30.045,42.641,79.958C314.662,198.019,298.436,230.444,253.951,217.613Z" transform="translate(-89.609 -38.252)" fill="#22cae8"/>
      <path id="Path_1260" data-name="Path 1260" d="M247.851,152.033c.743,0,5.541,20.808,4.9,24.335-.715,3.9-11.834,3.038-14.421,3.02-3.65,0-14.308,1.072-17.374-.856-2.606-1.637-5.644-3.462-7.723-5.719-1.721-1.825-3.02-3.951-4.816-5.795a10.216,10.216,0,0,0-2.455-2.041,10.686,10.686,0,0,0-2.822-.856,2.1,2.1,0,0,0-1.5.075,1.42,1.42,0,0,0-.574,1.383,4.176,4.176,0,0,0,.564,1.467c.611,1.129,3.885,5.644,3.151,6.763s-6.086-.113-7.384-.245c-3.5-.348-4.355,2.719-3.763,5.588,1.383,6.171,9.238,8.946,14.374,11.232a105.008,105.008,0,0,0,19.82,6.425,170.179,170.179,0,0,0,31.1,3.612c6.858.254,17.873.367,21.777-6.651,7.591-13.678-5.418-47.561-5.418-47.561" transform="translate(-86.839 -39.94)" fill="#fff"/>
      <path id="Path_1261" data-name="Path 1261" d="M262.831,200.984c-1.467,0-2.822-.047-3.913-.085a169.751,169.751,0,0,1-31.184-3.631,105.648,105.648,0,0,1-19.942-6.491l-1.609-.7c-5.221-2.258-11.721-5.07-13.028-10.855a5.8,5.8,0,0,1,.837-5.033,3.763,3.763,0,0,1,3.386-1.129,10.69,10.69,0,0,1,1.336.216c1.289.216,5.193.941,5.644.245s-1.74-4.007-2.446-5.108c-.32-.508-.583-.941-.724-1.176a4.7,4.7,0,0,1-.621-1.637,1.881,1.881,0,0,1,.8-1.881,2.474,2.474,0,0,1,1.834-.132,8.212,8.212,0,0,1,5.559,3.029,32.918,32.918,0,0,1,2.6,3.1,34.944,34.944,0,0,0,2.22,2.7,36.688,36.688,0,0,0,7.168,5.343l.47.3c2.229,1.4,9.078,1.091,13.612.894,1.43-.066,2.653-.113,3.518-.113h1.2c3.33.113,12.229.4,12.746-2.662.593-3.274-3.81-22.4-4.7-23.865a.47.47,0,0,1,.263-.856.734.734,0,0,1,.442.216c1.016,1.223,5.578,21.062,4.92,24.674-.706,3.857-9.482,3.575-13.7,3.433h-1.185c-.837,0-2.051.047-3.462.113-4.929.216-11.683.517-14.11-1.044l-.47-.292a37.159,37.159,0,0,1-7.356-5.5,32.848,32.848,0,0,1-2.276-2.766,34.42,34.42,0,0,0-2.53-3.02,9.774,9.774,0,0,0-2.333-1.947,9.924,9.924,0,0,0-2.737-.818,1.722,1.722,0,0,0-1.157,0,.988.988,0,0,0-.348.941,3.7,3.7,0,0,0,.508,1.3c.132.245.386.64.7,1.119,1.731,2.719,3.114,5.051,2.436,6.124s-3.377.724-6.585.169c-.546-.094-1-.169-1.27-.2a2.888,2.888,0,0,0-2.587.809,4.854,4.854,0,0,0-.621,4.2c1.195,5.315,7.45,8.024,12.483,10.2l1.618.706a104.417,104.417,0,0,0,19.754,6.425,167.9,167.9,0,0,0,31.043,3.612c5.644.2,17.44.621,21.354-6.425,7.394-13.32-5.324-46.818-5.456-47.156a.47.47,0,0,1,.273-.611.48.48,0,0,1,.611.273c.527,1.392,13,34.25,5.39,47.975C277.731,200.109,269.1,200.984,262.831,200.984ZM247.78,152.473ZM247.78,152.473Z" transform="translate(-86.807 -39.91)" fill="#231f20"/>
      <line id="Line_55" data-name="Line 55" x1="6.161" y1="13.301" transform="translate(181.095 88.068)" fill="#fff"/>
      <path id="Path_1262" data-name="Path 1262" d="M278.762,140.6a.451.451,0,0,1-.423-.273l-6.161-13.3a.47.47,0,0,1,.226-.63.489.489,0,0,1,.63.235l6.152,13.3a.47.47,0,0,1-.226.63.49.49,0,0,1-.2.038Z" transform="translate(-91.506 -38.762)" fill="#231f20"/>
      <path id="Path_1267" data-name="Path 1267" d="M242.566,111.07a2.013,2.013,0,0,1-.442,0,.461.461,0,0,1-.4-.527.48.48,0,0,1,.527-.4c.226,0,5.428.621,7.159-6.792a.47.47,0,0,1,.564-.348.461.461,0,0,1,.348.564C248.7,110.525,244.034,111.07,242.566,111.07Z" transform="translate(-89.701 -37.376)" fill="#231f20"/>
      <path id="Path_1270" data-name="Path 1270" d="M127.482,147.417H106.006A4.854,4.854,0,0,1,101.2,142.8h0a4.384,4.384,0,0,1,4.421-4.619H127.1a4.873,4.873,0,0,1,4.816,4.619h0a4.4,4.4,0,0,1-4.431,4.619Z" transform="translate(-81.366 -39.464)" fill="#101a56"/>
      <path id="Path_1271" data-name="Path 1271" d="M137.925,242.768H122.207a4.845,4.845,0,0,1-4.807-4.619h0a4.393,4.393,0,0,1,4.431-4.619h15.719a4.854,4.854,0,0,1,4.807,4.619h0a4.393,4.393,0,0,1-4.431,4.619Z" transform="translate(-88.691 -82.24)" fill="#b1bbcb"/>
      <path id="Path_1273" data-name="Path 1273" d="M125.056,76.505h0l-28.305-.564a.489.489,0,0,1-.461-.48A.452.452,0,0,1,96.77,75l28.3.527a.47.47,0,0,1,.461.48.461.461,0,0,1-.47.5Z" transform="translate(-81.075 -35.716)" fill="#22cae8"/>
      <path id="Path_1274" data-name="Path 1274" d="M125.676,86.527h0L97.371,86a.47.47,0,0,1-.461-.48.461.461,0,0,1,.48-.461l28.3.527a.489.489,0,0,1,.461.48A.47.47,0,0,1,125.676,86.527Z" transform="translate(-81.112 -36.313)" fill="#22cae8"/>
      <path id="Path_1275" data-name="Path 1275" d="M126.286,96.547h0l-28.315-.527a.489.489,0,0,1-.461-.48.47.47,0,0,1,.48-.461l28.3.527a.47.47,0,0,1,0,.941Z" transform="translate(-81.148 -36.907)" fill="#22cae8"/>
      <path id="Path_1276" data-name="Path 1276" d="M126.9,106.567h0l-28.3-.536a.461.461,0,0,1-.461-.48.442.442,0,0,1,.48-.461l28.286.536a.47.47,0,0,1,.461.48.461.461,0,0,1-.47.461Z" transform="translate(-81.185 -37.501)" fill="#22cae8"/>
      <path id="Path_1277" data-name="Path 1277" d="M127.517,116.587h0l-28.3-.536a.47.47,0,0,1-.461-.48.508.508,0,0,1,.48-.461l28.3.536a.489.489,0,0,1,.461.48A.48.48,0,0,1,127.517,116.587Z" transform="translate(-81.222 -38.095)" fill="#22cae8"/>
      <path id="Path_1278" data-name="Path 1278" d="M119.425,126.447h0l-19.585-.376a.47.47,0,0,1,0-.941l19.594.376a.47.47,0,1,1,0,.941Z" transform="translate(-81.258 -38.69)" fill="#22cae8"/>
      <path id="Path_1284" data-name="Path 1284" d="M294.3,261.25a.423.423,0,0,1-.4-.32l-7.065-31.043a.414.414,0,1,1,.809-.179l7.065,31.043a.4.4,0,0,1-.31.5Z" transform="translate(-92.377 -44.873)" fill="#fff"/>
      <path id="Path_1285" data-name="Path 1285" d="M292.493,237.791a.433.433,0,0,1-.273-.1.414.414,0,0,1-.047-.593c.047-.047,4.111-4.863,3.434-9.915a.417.417,0,1,1,.828-.1c.724,5.418-3.452,10.348-3.631,10.564a.414.414,0,0,1-.31.15Z" transform="translate(-92.688 -44.715)" fill="#fff"/>
      <path id="Path_1317" data-name="Path 1317" d="M198.229,121.165h-51c-.249,0-.455-.133-.47-.3L141.91,74.974a.251.251,0,0,1,.122-.24.535.535,0,0,1,.339-.1h49.856c.242,0,.446.125.461.292l5.964,45.886a.3.3,0,0,1-.122.253.592.592,0,0,1-.3.1Zm-50.571-.649h50.054l-5.86-45.238H142.879Z" transform="translate(-129.387 41.729)" fill="#101a56"/>
      <path id="Path_1320" data-name="Path 1320" d="M137.925,242.768H122.207a4.845,4.845,0,0,1-4.807-4.619h0a4.393,4.393,0,0,1,4.431-4.619h15.719a4.854,4.854,0,0,1,4.807,4.619h0a4.393,4.393,0,0,1-4.431,4.619Z" transform="translate(-27.176 -30.271)" fill="#b1bbcb"/>
      <path id="Path_1321" data-name="Path 1321" d="M198.229,121.165h-51c-.249,0-.455-.133-.47-.3L141.91,74.974a.251.251,0,0,1,.122-.24.535.535,0,0,1,.339-.1h49.856c.242,0,.446.125.461.292l5.964,45.886a.3.3,0,0,1-.122.253.592.592,0,0,1-.3.1Zm-50.571-.649h50.054l-5.86-45.238H142.879Z" transform="translate(-67.872 93.699)" fill="#101a56"/>
      <path id="Path_1322" data-name="Path 1322" d="M137.925,242.768H122.207a4.845,4.845,0,0,1-4.807-4.619h0a4.393,4.393,0,0,1,4.431-4.619h15.719a4.854,4.854,0,0,1,4.807,4.619h0a4.393,4.393,0,0,1-4.431,4.619Z" transform="translate(-82.327 -30.271)" fill="#b1bbcb"/>
      <path id="Path_1323" data-name="Path 1323" d="M198.229,121.165h-51c-.249,0-.455-.133-.47-.3L141.91,74.974a.251.251,0,0,1,.122-.24.535.535,0,0,1,.339-.1h49.856c.242,0,.446.125.461.292l5.964,45.886a.3.3,0,0,1-.122.253.592.592,0,0,1-.3.1Zm-50.571-.649h50.054l-5.86-45.238H142.879Z" transform="translate(-123.023 93.699)" fill="#101a56"/>
    </g>
    <g id="shirt_4_" data-name="shirt (4)" transform="translate(-1618.095 1315.272)">
      <path id="Path_1286" data-name="Path 1286" d="M85.822,51.859,75.016,48H61.122L50.316,51.859,48,65.753l.772,15.438v3.088h6.8l.151,6.175h9.263l3.088-2.316,3.088,2.316h9.263l.151-6.175h6.8V81.191l.772-15.438Z" transform="translate(-47.228 -44.912)" fill="#b1bbcb"/>
      <path id="Path_1287" data-name="Path 1287" d="M190.947,32.491l-3.859.772L184,26.316,186.316,24Z" transform="translate(-170.106 -23.228)" fill="#7fd5e5"/>
      <path id="Path_1288" data-name="Path 1288" d="M256,32.491l3.859.772,3.088-6.947L260.631,24Z" transform="translate(-235.159 -23.228)" fill="#7fd5e5"/>
      <path id="Path_1289" data-name="Path 1289" d="M217.263,24l-1.684,3.088-2.948,5.4-2.948-5.4L208,24Z" transform="translate(-191.79 -23.228)" fill="#7fd5e5"/>
      <path id="Path_1290" data-name="Path 1290" d="M56,392h6.947v3.087H56Z" transform="translate(-54.456 -355.721)" fill="#7fd5e5"/>
      <path id="Path_1291" data-name="Path 1291" d="M384,392h6.947v3.087H384Z" transform="translate(-350.809 -355.721)" fill="#7fd5e5"/>
      <path id="Path_1292" data-name="Path 1292" d="M231.345,56,228.4,61.4,225.45,56Z" transform="translate(-207.557 -52.141)" fill="#7fd5e5"/>
      <path id="Path_1293" data-name="Path 1293" d="M81.681,36.879a.778.778,0,0,0-.01-.165L79.356,22.82a.772.772,0,0,0-.5-.6l-10.642-3.8-2.193-2.193A.771.771,0,0,0,65.473,16H56.21a.771.771,0,0,0-.545.226l-2.193,2.193-10.643,3.8a.772.772,0,0,0-.5.6L40.011,36.714a.778.778,0,0,0-.01.165L40.772,52.3v3.068a.772.772,0,0,0,.772.772h6.043l.132,5.422a.772.772,0,0,0,.772.753h9.263a.772.772,0,0,0,.463-.154l2.624-1.968,2.624,1.968a.772.772,0,0,0,.463.154h9.263a.772.772,0,0,0,.772-.753l.132-5.422h6.043a.772.772,0,0,0,.772-.772V52.3ZM60.841,23.651l-1.647-3.019h3.294Zm4.815-5.6,1.211,1.211-2.621,5.9-2.225-.445Zm-1.484-.5-.842,1.544H58.352l-.842-1.544Zm-8.146.5,3.635,6.664-2.225.445-2.621-5.9ZM42.316,54.594V53.05h5.2l.038,1.544ZM57.5,60.769H49.245l-.753-30.894-1.544.038.527,21.594h-5.2l-.731-14.621,2.227-13.364,9.7-3.466,2.8,6.293a.772.772,0,0,0,.857.444l2.936-.588V58.84Zm14.942,0H64.186l-2.573-1.93V26.2l2.936.587a.772.772,0,0,0,.857-.444l2.8-6.292,9.7,3.466,2.227,13.364L79.4,51.507h-5.2l.527-21.593-1.544-.038Zm6.928-6.175H74.133l.038-1.544h5.2Z" transform="translate(-40 -16)" fill="#101a56"/>
      <path id="Path_1294" data-name="Path 1294" d="M216,152h1.544v1.544H216Z" transform="translate(-199.019 -138.878)"/>
      <path id="Path_1295" data-name="Path 1295" d="M216,216h1.544v1.544H216Z" transform="translate(-199.019 -196.703)"/>
      <path id="Path_1296" data-name="Path 1296" d="M216,280h1.544v1.544H216Z" transform="translate(-199.019 -254.528)"/>
      <path id="Path_1297" data-name="Path 1297" d="M216,344h1.544v1.544H216Z" transform="translate(-199.019 -312.353)"/>
      <path id="Path_1298" data-name="Path 1298" d="M216,408h1.544v1.544H216Z" transform="translate(-199.019 -370.178)"/>
    </g>
    <g id="Group_1230" data-name="Group 1230" transform="translate(-1663.425 1379.969)">
      <path id="Path_1299" data-name="Path 1299" d="M207.119,31.559a7.559,7.559,0,0,1-7.336,7.556c-.074,0-.148,0-.223,0a7.559,7.559,0,1,1,7.559-7.559Z" transform="translate(-182.761 -23.58)" fill="#7fd5e5"/>
      <path id="Path_1300" data-name="Path 1300" d="M199.742,92.34a2.471,2.471,0,0,0,.01.695,4.824,4.824,0,0,1,.027.893c-.075,0-.149,0-.224,0A7.559,7.559,0,0,1,193.5,81.85a1.084,1.084,0,0,0,.266.136.9.9,0,0,0,.222.021c.14,0,.3-.015.472-.032.2-.019.409-.039.626-.039a2.118,2.118,0,0,1,1.087.258,2.8,2.8,0,0,1,1.053,1.386,2.5,2.5,0,0,0,.328.594,2.47,2.47,0,0,0,.594.328,2.243,2.243,0,0,1,1.606,2.766,1.221,1.221,0,0,0,.33,1.256,2.283,2.283,0,0,1,0,3.252A2.463,2.463,0,0,0,199.742,92.34Z" transform="translate(-182.757 -78.393)" fill="#20bbb6"/>
      <path id="Path_1301" data-name="Path 1301" d="M242.919,69.46a5.459,5.459,0,0,1-4.954,5.436q-.249.024-.505.024a5.46,5.46,0,1,1,5.46-5.46Z" transform="translate(-220.661 -61.48)" fill="#abdde2"/>
      <ellipse id="Ellipse_268" data-name="Ellipse 268" cx="1.5" cy="1" rx="1.5" ry="1" transform="translate(15.425 4.031)" fill="#57c3c1"/>
      <ellipse id="Ellipse_269" data-name="Ellipse 269" cx="1" cy="1.5" rx="1" ry="1.5" transform="translate(18.425 7.031)" fill="#57c3c1"/>
      <path id="Path_1302" data-name="Path 1302" d="M238.662,95.61a2.811,2.811,0,0,1-.68,1.626l-.022.03q-.25.024-.506.024a5.46,5.46,0,0,1-3.464-9.68l.079.043a2.8,2.8,0,0,1,1.053,1.386,2.5,2.5,0,0,0,.328.594,2.472,2.472,0,0,0,.594.328,2.243,2.243,0,0,1,1.606,2.765,1.221,1.221,0,0,0,.33,1.256A2.814,2.814,0,0,1,238.662,95.61Z" transform="translate(-220.656 -83.851)" fill="#80ced0"/>
      <path id="Path_1303" data-name="Path 1303" d="M41.694,89.347c0,.714-.816,1.312-.992,1.971-.182.682.22,1.606-.125,2.2s-1.356.717-1.847,1.208-.6,1.5-1.208,1.847-1.522-.058-2.2.125c-.659.176-1.256.993-1.971.993s-1.312-.816-1.971-.993c-.682-.182-1.606.22-2.2-.125s-.717-1.356-1.208-1.847-1.5-.6-1.847-1.208.058-1.522-.125-2.2c-.176-.659-.992-1.257-.992-1.971s.816-1.312.992-1.971c.182-.682-.22-1.606.125-2.2s1.356-.717,1.847-1.208.6-1.5,1.208-1.847,1.522.057,2.2-.125c.659-.176,1.256-.992,1.971-.992s1.312.816,1.971.992c.682.182,1.606-.22,2.2.125s.717,1.356,1.208,1.847,1.5.6,1.847,1.208-.058,1.522.125,2.2c.176.659.992,1.256.992,1.971Z" transform="translate(-24.528 -77.588)" fill="#7fd5e5"/>
      <circle id="Ellipse_270" data-name="Ellipse 270" cx="5.5" cy="5.5" r="5.5" transform="translate(3.425 6.031)" fill="#22cae8"/>
      <g id="Group_1229" data-name="Group 1229" transform="translate(5.303 8.485)">
        <ellipse id="Ellipse_271" data-name="Ellipse 271" cx="0.5" cy="1" rx="0.5" ry="1" transform="translate(3.122 -0.453)" fill="#0093b9"/>
        <circle id="Ellipse_272" data-name="Ellipse 272" cx="1" cy="1" r="1" transform="translate(0.122 2.547)" fill="#0093b9"/>
        <circle id="Ellipse_273" data-name="Ellipse 273" cx="0.5" cy="0.5" r="0.5" transform="translate(3.122 5.547)" fill="#0093b9"/>
        <circle id="Ellipse_274" data-name="Ellipse 274" cx="1" cy="1" r="1" transform="translate(5.122 2.547)" fill="#0093b9"/>
      </g>
      <path id="Path_1304" data-name="Path 1304" d="M24,340.765a2.942,2.942,0,0,1,1.9-1.122l20.836-3.158a1.238,1.238,0,1,1,.327,2.453l-20.936,2.412A2.942,2.942,0,0,1,24,340.765Z" transform="translate(-23.58 -319.648)" fill="#e3e4e2"/>
      <path id="Path_1305" data-name="Path 1305" d="M40.982,329.909a1.658,1.658,0,0,0-1.891-1.42l-20.836,3.158a3.345,3.345,0,0,0-2.167,1.282.42.42,0,0,0,.078.589,3.342,3.342,0,0,0,2.037.692,3.392,3.392,0,0,0,.39-.022l19.667-2.266v1.459a1.366,1.366,0,0,1-1.365,1.365H25.66a1.26,1.26,0,1,0,0,2.52h6.3v-.84h-6.3a.42.42,0,1,1,0-.84H36.894a2.207,2.207,0,0,0,2.2-2.2v-1.556l.429-.049a1.657,1.657,0,0,0,1.453-1.866Zm-1,.722a.812.812,0,0,1-.551.31l-.333.038v-.853h-.84v.95L18.5,333.352a2.509,2.509,0,0,1-1.428-.255,2.508,2.508,0,0,1,1.311-.62l20.836-3.158a.818.818,0,0,1,.768,1.311Z" transform="translate(-16.001 -312.067)" fill="#101a56"/>
      <path id="Path_1306" data-name="Path 1306" d="M336,480h.84v.84H336Z" transform="translate(-319.201 -455.642)"/>
      <path id="Path_1307" data-name="Path 1307" d="M228.653,16.84a7.14,7.14,0,0,1,.4,14.268l.046.839a7.98,7.98,0,1,0-6.39-13.287l.626.56a7.151,7.151,0,0,1,5.322-2.38Z" transform="translate(-211.855 -16)" fill="#101a56"/>
      <path id="Path_1308" data-name="Path 1308" d="M279.757,67.69a5.88,5.88,0,1,0-4.07-10.765l.453.707a5.04,5.04,0,1,1,3.489,9.228Z" transform="translate(-262.054 -53.9)"/>
      <path id="Path_1309" data-name="Path 1309" d="M313.26,96a1.26,1.26,0,1,0,1.26,1.26A1.26,1.26,0,0,0,313.26,96Zm0,1.68a.42.42,0,1,1,.42-.42A.42.42,0,0,1,313.26,97.68Z" transform="translate(-296.461 -91.8)"/>
      <path id="Path_1310" data-name="Path 1310" d="M361.26,146.52a1.26,1.26,0,1,0-1.26-1.26A1.26,1.26,0,0,0,361.26,146.52Zm0-1.68a.42.42,0,1,1-.42.42A.42.42,0,0,1,361.26,144.84Z" transform="translate(-341.941 -137.281)"/>
      <path id="Path_1311" data-name="Path 1311" d="M18.007,83.846a2.607,2.607,0,0,1,0,.843,2.412,2.412,0,0,0,.165,1.462,2.429,2.429,0,0,0,1.2.881,2.558,2.558,0,0,1,.717.414,2.563,2.563,0,0,1,.414.717c.05.109.1.221.156.332l.751-.376c-.048-.1-.094-.2-.143-.3a3.169,3.169,0,0,0-.584-.964,3.167,3.167,0,0,0-.964-.584,1.819,1.819,0,0,1-.817-.537,1.809,1.809,0,0,1-.056-.962,3.224,3.224,0,0,0-.027-1.139,3.108,3.108,0,0,0-.533-.97,1.118,1.118,0,0,1,0-1.786,3.1,3.1,0,0,0,.533-.97,3.219,3.219,0,0,0,.027-1.139A1.809,1.809,0,0,1,18.9,77.8a1.818,1.818,0,0,1,.817-.537,3.168,3.168,0,0,0,.964-.584,3.169,3.169,0,0,0,.584-.964A1.819,1.819,0,0,1,21.8,74.9a1.808,1.808,0,0,1,.962-.056,3.226,3.226,0,0,0,1.139-.027,3.108,3.108,0,0,0,.97-.533,1.825,1.825,0,0,1,.893-.445,1.825,1.825,0,0,1,.893.445,3.1,3.1,0,0,0,.97.533,3.224,3.224,0,0,0,1.139.027,1.81,1.81,0,0,1,.962.056,1.818,1.818,0,0,1,.537.817,2.369,2.369,0,0,0,1.548,1.548,1.819,1.819,0,0,1,.817.537,1.809,1.809,0,0,1,.056.962,3.224,3.224,0,0,0,.027,1.139,3.108,3.108,0,0,0,.533.97,1.118,1.118,0,0,1,0,1.786,3.1,3.1,0,0,0-.533.97,3.219,3.219,0,0,0-.027,1.139,1.809,1.809,0,0,1-.056.962,1.817,1.817,0,0,1-.817.537,5.068,5.068,0,0,0-.64.329l.453.707a4.389,4.389,0,0,1,.535-.272,1.847,1.847,0,0,0,1.361-2.344,2.607,2.607,0,0,1,0-.843,2.512,2.512,0,0,1,.4-.7,1.887,1.887,0,0,0,0-2.763,2.51,2.51,0,0,1-.4-.7,2.607,2.607,0,0,1,0-.843A1.847,1.847,0,0,0,32.163,76.5a2.558,2.558,0,0,1-.717-.414,2.563,2.563,0,0,1-.414-.717,2.429,2.429,0,0,0-.881-1.2,2.411,2.411,0,0,0-1.462-.165,2.6,2.6,0,0,1-.843,0,2.512,2.512,0,0,1-.7-.4,2.446,2.446,0,0,0-1.382-.6,2.446,2.446,0,0,0-1.382.6,2.51,2.51,0,0,1-.7.4,2.611,2.611,0,0,1-.843,0,2.412,2.412,0,0,0-1.462.165,2.429,2.429,0,0,0-.881,1.2,2.558,2.558,0,0,1-.414.717,2.563,2.563,0,0,1-.717.414,2.429,2.429,0,0,0-1.2.881,2.412,2.412,0,0,0-.165,1.462,2.607,2.607,0,0,1,0,.843,2.512,2.512,0,0,1-.4.7,1.887,1.887,0,0,0,0,2.763A2.518,2.518,0,0,1,18.007,83.846Z" transform="translate(-16.948 -70.008)"/>
      <path id="Path_1312" data-name="Path 1312" d="M77.88,128a5.88,5.88,0,1,0,5.88,5.88A5.88,5.88,0,0,0,77.88,128Zm0,10.919a5.04,5.04,0,1,1,5.04-5.04A5.04,5.04,0,0,1,77.88,138.919Z" transform="translate(-69.06 -122.12)"/>
      <path id="Path_1313" data-name="Path 1313" d="M161.26,170.52a1.26,1.26,0,1,0-1.26-1.26A1.26,1.26,0,0,0,161.26,170.52Zm0-1.68a.42.42,0,1,1-.42.42A.42.42,0,0,1,161.26,168.84Z" transform="translate(-152.441 -160.021)"/>
      <path id="Path_1314" data-name="Path 1314" d="M113.26,216a1.26,1.26,0,1,0,1.26,1.26A1.26,1.26,0,0,0,113.26,216Zm0,1.68a.42.42,0,1,1,.42-.42A.42.42,0,0,1,113.26,217.68Z" transform="translate(-106.96 -205.501)"/>
      <path id="Path_1315" data-name="Path 1315" d="M161.26,264a1.26,1.26,0,1,0,1.26,1.26A1.26,1.26,0,0,0,161.26,264Zm0,1.68a.42.42,0,1,1,.42-.42A.42.42,0,0,1,161.26,265.68Z" transform="translate(-152.441 -250.981)"/>
      <path id="Path_1316" data-name="Path 1316" d="M209.26,216a1.26,1.26,0,1,0,1.26,1.26A1.26,1.26,0,0,0,209.26,216Zm0,1.68a.42.42,0,1,1,.42-.42A.42.42,0,0,1,209.26,217.68Z" transform="translate(-197.921 -205.501)"/>
    </g>
    <g id="pocket" transform="translate(-1606.706 1383.703) rotate(-3)">
      <path id="Path_1324" data-name="Path 1324" d="M18.049,0a.821.821,0,0,1,.82.822V12.373a.822.822,0,0,1-.267.607L9.988,20.857a.819.819,0,0,1-1.106,0L.267,12.98A.822.822,0,0,1,0,12.373V.822A.821.821,0,0,1,.82,0H18.049Z" transform="translate(1.365 0.319)" fill="#7fd5e5"/>
      <path id="Path_1325" data-name="Path 1325" d="M12.664.822V12.373a.822.822,0,0,1-.267.607L3.782,20.857a.819.819,0,0,1-1.106,0L0,18.41c5.536-2.617,9.423-8.768,9.423-15.94A19.553,19.553,0,0,0,9.267,0h2.576A.821.821,0,0,1,12.664.822Z" transform="translate(7.57 0.319)" fill="#22cae8"/>
      <path id="Path_1326" data-name="Path 1326" d="M9.458,17.78l1.3,1.186a.091.091,0,0,0,.123,0l1.3-1.186a.318.318,0,1,1,.429.469l-1.3,1.186a.724.724,0,0,1-.982,0l-1.3-1.186a.318.318,0,0,1,.429-.469ZM2.706,9.372a.318.318,0,0,0,.636,0V7.315a.318.318,0,0,0-.636,0Zm0,2.772a.732.732,0,0,0,.237.539l.44.4a.318.318,0,1,0,.429-.469l-.44-.4a.094.094,0,0,1-.03-.07V10.607a.318.318,0,0,0-.636,0v1.538Zm2.532-10.5h-1.8a.73.73,0,0,0-.728.73v.412a.318.318,0,0,0,.636,0V2.376a.093.093,0,0,1,.092-.094h1.8a.318.318,0,1,0,0-.636Zm3.6.318a.318.318,0,0,0-.318-.318H6.469a.318.318,0,1,0,0,.636h2.05A.318.318,0,0,0,8.837,1.964Zm7.571,14.17L11.154,20.94a.5.5,0,0,1-.677,0L1.866,13.063a.505.505,0,0,1-.164-.372V1.14a.5.5,0,0,1,.5-.5H3.886a.318.318,0,1,0,0-.636H2.2A1.14,1.14,0,0,0,1.066,1.14V12.691a1.143,1.143,0,0,0,.371.841l2.3,2.107H1.548A1.552,1.552,0,0,0,0,17.192v.823a1.552,1.552,0,0,0,1.548,1.553h2.46a.915.915,0,0,1,.912.917.318.318,0,0,0,.636,0,1.552,1.552,0,0,0-1.548-1.553H1.548a.915.915,0,0,1-.912-.917v-.823a.915.915,0,0,1,.912-.917H4.435l5.613,5.135a1.131,1.131,0,0,0,1.535,0L16.837,16.6a.318.318,0,0,0-.429-.469ZM4.184,13.387a.318.318,0,0,0,.02.449l1.64,1.5a.318.318,0,1,0,.429-.469l-1.64-1.5A.318.318,0,0,0,4.184,13.387Zm2.575,2.355a.318.318,0,0,0,.02.449l1.35,1.235a.318.318,0,1,0,.429-.469l-1.35-1.235A.318.318,0,0,0,6.759,15.743ZM3.024,6.4a.318.318,0,0,0,.318-.318V4.022a.318.318,0,0,0-.636,0V6.08A.318.318,0,0,0,3.024,6.4Zm11.4,9.325-1.35,1.235a.318.318,0,0,0,.429.469l1.35-1.235a.318.318,0,1,0-.429-.469ZM15.08,1.646H13.03a.318.318,0,1,0,0,.636h2.05a.318.318,0,1,0,0-.636ZM19.427,0H5.116a.318.318,0,1,0,0,.636H19.427a.5.5,0,0,1,.5.5V12.691a.506.506,0,0,1-.164.372L17.2,15.407a.318.318,0,0,0,.429.469l2.562-2.344a1.143,1.143,0,0,0,.371-.841V1.14A1.14,1.14,0,0,0,19.427,0ZM15.256,15.392a.318.318,0,0,0,.449.02l1.4-1.278a.318.318,0,1,0-.429-.469l-1.4,1.278A.318.318,0,0,0,15.256,15.392Zm3.351-5.1a.318.318,0,0,0-.318.318v1.538a.094.094,0,0,1-.03.07l-.686.627a.318.318,0,0,0,.429.469l.686-.627a.732.732,0,0,0,.237-.539V10.607A.318.318,0,0,0,18.607,10.289Zm.318-2.974a.318.318,0,0,0-.636,0V9.372a.318.318,0,0,0,.636,0Zm0-4.939a.73.73,0,0,0-.728-.73H16.31a.318.318,0,1,0,0,.636H18.2a.093.093,0,0,1,.092.094v.412a.318.318,0,0,0,.636,0ZM9.749,2.282H11.8a.318.318,0,1,0,0-.636H9.749a.318.318,0,1,0,0,.636Zm9.175,1.74a.318.318,0,0,0-.636,0V6.08a.318.318,0,0,0,.636,0Z" transform="translate(0 0)" fill="#101a56"/>
    </g>
    <g id="Polo_Shirt" data-name="Polo Shirt" transform="translate(-1654.94 1432.998)">
      <path id="Path_1327" data-name="Path 1327" d="M23.06,22.814v3.931H9.7V22.814H6.26L7.337,6.305,11.405,4.56l2.614,4.1A1.179,1.179,0,0,1,15.2,7.484a1.114,1.114,0,0,1,.456.094,1.169,1.169,0,0,1,.723,1.085A1.169,1.169,0,0,1,17.1,7.579a1.114,1.114,0,0,1,.456-.094,1.179,1.179,0,0,1,1.179,1.179l2.614-4.1,4.068,1.745L26.5,22.814Z" transform="translate(-5.766 -3.554)" fill="#7fd5e5"/>
      <g id="Group_1231" data-name="Group 1231" transform="translate(0 0)">
        <path id="Path_1328" data-name="Path 1328" d="M25.049,4.726a.393.393,0,0,0-.236-.336l-5.5-2.358A.387.387,0,0,0,19.153,2H12.078a.387.387,0,0,0-.155.032L6.42,4.39a.393.393,0,0,0-.236.336L5,22.807a.393.393,0,0,0,.391.419H8.54v1.965a.393.393,0,0,0,.393.393H22.3a.393.393,0,0,0,.393-.393V23.226h3.145a.393.393,0,0,0,.393-.419ZM20.007,3.187,18.081,6.209a1.572,1.572,0,0,0-.969-.636L18.97,2.786h.1ZM15.168,5.729,13.205,2.786h4.821L16.06,5.731a1.552,1.552,0,0,0-.445.335,1.517,1.517,0,0,0-.448-.337ZM12.158,2.786h.1l1.858,2.786a1.572,1.572,0,0,0-.969.636L11.223,3.187ZM5.815,22.44l.052-.786H8.54v.786ZM21.9,7.9V24.8H9.326V7.9H8.54V20.867H5.917L6.951,5.018,10.492,3.5l2.434,3.821a.393.393,0,0,0,.725-.211.791.791,0,0,1,1.094-.721.772.772,0,0,1,.478.721v5.11h.786V7.11a.777.777,0,0,1,.49-.726.725.725,0,0,1,.3-.061.786.786,0,0,1,.786.786.393.393,0,0,0,.725.211L20.739,3.5l3.54,1.517,1.034,15.85H22.691V7.9Zm.786,14.544v-.786h2.673l.051.786Z" transform="translate(-5.004 -2)" fill="#101a56"/>
        <path id="Path_1329" data-name="Path 1329" d="M35,18h.786v.786H35Z" transform="translate(-23.209 -11.711)" fill="#101a56"/>
        <path id="Path_1330" data-name="Path 1330" d="M35,22h.786v.786H35Z" transform="translate(-23.209 -14.139)" fill="#101a56"/>
        <path id="Path_1331" data-name="Path 1331" d="M35,26h.786v.786H35Z" transform="translate(-23.209 -16.566)" fill="#101a56"/>
      </g>
    </g>
    <g id="Polo_Shirt-2" data-name="Polo Shirt" transform="translate(-1601.367 1431.938)">
      <path id="Path_1332" data-name="Path 1332" d="M23.671,11.3V27.8H9.643V11.3H5.88l.875-4.951L11.417,4.48l2.764,4.341a1.238,1.238,0,0,1,1.238-1.238,1.17,1.17,0,0,1,.479.1,1.227,1.227,0,0,1,.759,1.139,1.227,1.227,0,0,1,.759-1.139,1.17,1.17,0,0,1,.479-.1,1.238,1.238,0,0,1,1.238,1.238L21.9,4.48,26.56,6.345l.928,4.951Z" transform="translate(-5.104 -3.457)" fill="#7fd5e5"/>
      <path id="Path_1333" data-name="Path 1333" d="M25.861,4.812a.413.413,0,0,0-.252-.307L19.42,2.029A.418.418,0,0,0,19.266,2H11.839a.418.418,0,0,0-.153.029L5.5,4.5a.413.413,0,0,0-.253.312L4.006,11.831a.413.413,0,0,0,.406.484H8.126V26.344a.413.413,0,0,0,.413.413H22.567a.413.413,0,0,0,.413-.413V11.9h3.713a.413.413,0,0,0,.406-.489ZM20.178,3.222l-2.036,3.2a1.652,1.652,0,0,0-1.017-.667l1.95-2.925h.113ZM15.083,5.915l-2.06-3.09h5.06L16.02,5.917a1.629,1.629,0,0,0-.467.352A1.589,1.589,0,0,0,15.083,5.915Zm-3.164-3.09h.113l1.95,2.925a1.652,1.652,0,0,0-1.017.667l-2.036-3.2ZM4.9,11.49l.218-1.238h3V11.49Zm17.25-4.126V25.931H8.951V7.364H8.126V9.427H5.268l.748-4.241,4.131-1.653,2.581,4.052a.413.413,0,0,0,.761-.222.825.825,0,0,1,.825-.825.776.776,0,0,1,.323.069.81.81,0,0,1,.5.756.413.413,0,1,0,.825,0,.815.815,0,0,1,.514-.762.761.761,0,0,1,.311-.064.825.825,0,0,1,.825.825.413.413,0,0,0,.76.222l2.582-4.052,4.134,1.654.794,4.239H22.98V7.364Zm.825,3.713v-.825h3.062l.155.825Z" transform="translate(-4 -2)" fill="#101a56"/>
    </g>
  </g>
</svg>
