<svg xmlns="http://www.w3.org/2000/svg" width="394.105" height="219.519" viewBox="0 0 394.105 219.519">
  <g id="Group_1228" data-name="Group 1228" transform="translate(1191.769 -1258)">
    <g id="Group_1222" data-name="Group 1222" transform="translate(174.231 -438)">
      <rect id="Rectangle_488" data-name="Rectangle 488" width="236.067" height="162.094" transform="translate(-1300.546 1706.479)" fill="#dee2e8"/>
      <path id="Path_958" data-name="Path 958" d="M333.918,203.974H97.85a.48.48,0,0,1-.48-.48V41.39a.48.48,0,0,1,.48-.48H333.918a.49.49,0,0,1,.48.48v162.1a.49.49,0,0,1-.48.48Zm-235.587-.96H333.437V41.87H98.33Z" transform="translate(-1398.396 1665.088)" fill="#231f20"/>
      <rect id="Rectangle_489" data-name="Rectangle 489" width="236.067" height="10.046" transform="translate(-1300.546 1696.432)" fill="#7fd5e5"/>
      <path id="Path_959" data-name="Path 959" d="M333.918,41.459H97.85a.48.48,0,0,1-.48-.48v-10a.48.48,0,0,1,.48-.48H333.918a.48.48,0,0,1,.48.48v10A.48.48,0,0,1,333.918,41.459ZM98.33,40.5H333.437V31.422H98.33Z" transform="translate(-1398.396 1665.5)" fill="#231f20"/>
      <path id="Path_960" data-name="Path 960" d="M193.392,143.665h-.115c-10.613-2.795-10.978-22.859-11.439-48.253v-.134c-.336-18.719-5.59-19-5.638-19a.49.49,0,0,1-.48-.48.461.461,0,0,1,.461-.48,3.083,3.083,0,0,1,2.142,1.066c1.921,1.825,4.255,6.579,4.476,18.873v.134c.451,24.972.816,44.737,10.728,47.34a.48.48,0,0,1,.336.586.471.471,0,0,1-.471.346Z" transform="translate(-1401.495 1663.727)" fill="#d1d3d4"/>
      <path id="Path_961" data-name="Path 961" d="M181.98,180.8a.451.451,0,0,1-.288-.1.49.49,0,0,1-.1-.672c.058-.077,5.446-7.251,5.446-22.628,0-9.528,6.723-9.806,6.723-9.806a.5.5,0,0,1,.49.461.48.48,0,0,1-.471.5c-.231,0-5.82.288-5.82,8.846,0,15.732-5.407,22.916-5.638,23.214A.509.509,0,0,1,181.98,180.8Z" transform="translate(-1401.724 1660.868)" fill="#d1d3d4"/>
      <path id="Path_962" data-name="Path 962" d="M255.356,169.012H255.3c-7.088-1.469-9.941-18.844-11.16-26.259-.182-1.124-.327-1.988-.432-2.507-.749-3.477-5.042-4.9-5.09-4.917a.5.5,0,1,1,.3-.96c.2.067,4.869,1.623,5.763,5.628.106.528.25,1.412.442,2.555,1.085,6.6,3.957,24.136,10.4,25.471a.483.483,0,1,1-.1.96Z" transform="translate(-1403.969 1661.392)" fill="#d1d3d4"/>
      <path id="Path_963" data-name="Path 963" d="M240.176,130.809a4.073,4.073,0,0,1-1.508-.288.5.5,0,0,1-.24-.644.471.471,0,0,1,.634-.23,3.083,3.083,0,0,0,2.171,0,4.5,4.5,0,0,0,2.334-2.593c.788-1.806,1.114-7.223,1.527-14.08.557-9.191,1.249-20.621,3.4-30.139,1.527-6.723,9.019-11.045,9.336-11.228a.49.49,0,0,1,.653.192.48.48,0,0,1-.182.653c-.077,0-7.434,4.245-8.875,10.565-2.132,9.441-2.814,20.832-3.371,29.985-.423,6.954-.759,12.486-1.614,14.407a5.388,5.388,0,0,1-2.881,3.112,3.842,3.842,0,0,1-1.383.288Z" transform="translate(-1403.974 1663.876)" fill="#d1d3d4"/>
      <path id="Path_1165" data-name="Path 1165" d="M0,0H42.586V71.611H0Z" transform="translate(-1207.997 1768.85)" fill="#7fd5e5"/>
      <path id="Path_964" data-name="Path 964" d="M236.806,178.421h-42.6a.48.48,0,0,1-.48-.48V106.33a.49.49,0,0,1,.48-.48h42.6a.49.49,0,0,1,.48.48v71.611A.48.48,0,0,1,236.806,178.421Zm-42.115-.96h41.635V106.81H194.69Z" transform="translate(-1402.208 1662.519)" fill="#231f20"/>
      <rect id="Rectangle_492" data-name="Rectangle 492" width="42.586" height="71.611" transform="translate(-1268.15 1720.799)" fill="#dee2e8"/>
      <path id="Path_966" data-name="Path 966" d="M174.224,128.391H131.58a.48.48,0,0,1-.48-.48V56.3a.48.48,0,0,1,.48-.48h42.644a.48.48,0,0,1,.48.48v71.611A.48.48,0,0,1,174.224,128.391Zm-42.115-.96h41.635V56.78H132.06Z" transform="translate(-1399.73 1664.498)" fill="#231f20"/>
      <path id="Path_967" data-name="Path 967" d="M168.27,105.96h-28.9a.48.48,0,0,1,0-.96h28.9a.48.48,0,0,1,0,.96Z" transform="translate(-1400.038 1662.553)" fill="#101a56"/>
      <rect id="Rectangle_493" data-name="Rectangle 493" width="44.353" height="37.323" transform="translate(-1264.443 1819.734)" fill="#b1bbcb"/>
      <path id="Path_968" data-name="Path 968" d="M179.794,197.113H135.44a.48.48,0,0,1-.48-.48V159.31a.48.48,0,0,1,.48-.48h44.353a.49.49,0,0,1,.48.48v37.323A.48.48,0,0,1,179.794,197.113Zm-43.873-.96h43.393V159.79H135.959Z" transform="translate(-1399.883 1660.424)" fill="#231f20"/>
      <rect id="Rectangle_494" data-name="Rectangle 494" width="44.353" height="37.323" transform="translate(-1145.818 1719.502)" fill="#7fd5e5"/>
      <path id="Path_969" data-name="Path 969" d="M303.3,92.745H258.98a.48.48,0,0,1-.48-.48V54.98a.48.48,0,0,1,.48-.48h44.353a.48.48,0,0,1,.48.48V92.265a.48.48,0,0,1-.509.48Zm-43.873-.96h43.393V55.432H259.432Z" transform="translate(-1404.77 1664.551)" fill="#231f20"/>
      <rect id="Rectangle_495" data-name="Rectangle 495" width="33.798" height="49.761" transform="translate(-1144.378 1793.149)" fill="#fff"/>
      <path id="Path_974" data-name="Path 974" d="M286.028,189.26H268.98a.48.48,0,0,1-.48-.48.49.49,0,0,1,.48-.48h17.038a.48.48,0,0,1,.01.96Z" transform="translate(-1405.165 1659.258)" fill="#d1d3d4"/>
      <path id="Path_975" data-name="Path 975" d="M286.028,192.64H268.98a.48.48,0,0,1-.48-.48.49.49,0,0,1,.48-.48h17.038a.48.48,0,0,1,.01.96Z" transform="translate(-1405.165 1659.124)" fill="#d1d3d4"/>
      <rect id="Rectangle_496" data-name="Rectangle 496" width="30.878" height="8.923" rx="3.34" transform="translate(-1201.706 1826.906)" fill="#22cae8" stroke="#101a56" stroke-width="1"/>
      <path id="Path_1164" data-name="Path 1164" d="M3.208,0H27.67a3.208,3.208,0,0,1,3.208,3.208V5.715A3.208,3.208,0,0,1,27.67,8.923H3.208A3.208,3.208,0,0,1,0,5.715V3.208A3.208,3.208,0,0,1,3.208,0Z" transform="translate(-1201.706 1794.59)" fill="none"/>
      <path id="Path_979" data-name="Path 979" d="M225.709,113.81H206.98a.48.48,0,1,1,0-.96h18.729a.48.48,0,0,1,.48.48.49.49,0,0,1-.48.48Z" transform="translate(-1402.713 1662.243)" fill="#101a56"/>
      <rect id="Rectangle_500" data-name="Rectangle 500" width="30.292" height="25.154" transform="translate(-1262.464 1727.618)" fill="#7fd5e5"/>
      <path id="Path_980" data-name="Path 980" d="M167.793,89.025H137.5a.48.48,0,0,1-.48-.48V63.4a.48.48,0,0,1,.48-.48h30.292a.48.48,0,0,1,.48.48V88.545A.48.48,0,0,1,167.793,89.025Zm-29.774-.96h29.332V63.88h-29.39Z" transform="translate(-1399.964 1664.218)" fill="#101a56"/>
      <path id="Path_981" data-name="Path 981" d="M175.975,192.437H139.19a.48.48,0,0,1-.48-.48V164.19a.49.49,0,0,1,.48-.48h36.785a.49.49,0,0,1,.48.48v27.766a.48.48,0,0,1-.48.48Zm-36.3-.96h35.815V164.67H139.661Z" transform="translate(-1400.031 1660.231)" fill="#22cae8"/>
      <rect id="Rectangle_502" data-name="Rectangle 502" width="14.426" height="14.599" transform="translate(-1090.554 1756.508)" fill="#7fd5e5"/>
      <path id="Path_986" data-name="Path 986" d="M330.917,108.559H316.51a.48.48,0,0,1-.48-.48V93.48a.48.48,0,0,1,.48-.48h14.407a.48.48,0,0,1,.48.48v14.6A.48.48,0,0,1,330.917,108.559Zm-13.946-.96h13.446V93.96H316.962Z" transform="translate(-1407.045 1663.028)" fill="#101a56"/>
      <path id="Path_987" data-name="Path 987" d="M327.669,97.96H320.1a.48.48,0,1,1,0-.96h7.568a.48.48,0,1,1,0,.96Z" transform="translate(-1407.187 1662.87)" fill="#101a56"/>
      <path id="Path_988" data-name="Path 988" d="M327.669,101.23H320.1a.48.48,0,1,1,0-.96h7.568a.48.48,0,1,1,0,.96Z" transform="translate(-1407.187 1662.74)" fill="#101a56"/>
      <path id="Path_989" data-name="Path 989" d="M325.333,105.12H320.06a.48.48,0,1,1,0-.96h5.273a.48.48,0,1,1,0,.96Z" transform="translate(-1407.186 1662.586)" fill="#101a56"/>
      <path id="Path_990" data-name="Path 990" d="M324.07,95.222a.48.48,0,0,1-.48-.48V91.86a.48.48,0,0,1,.96,0v2.881A.48.48,0,0,1,324.07,95.222Z" transform="translate(-1407.344 1663.092)" fill="#101a56"/>
      <rect id="Rectangle_503" data-name="Rectangle 503" width="14.426" height="14.599" transform="translate(-1200.88 1724.323)" fill="#7fd5e5"/>
      <path id="Path_991" data-name="Path 991" d="M216.037,75.05H201.63a.48.48,0,0,1-.48-.48V59.98a.48.48,0,0,1,.48-.48h14.407a.48.48,0,0,1,.48.48v14.6A.48.48,0,0,1,216.037,75.05Zm-13.936-.96h13.446V60.451H202.1Z" transform="translate(-1402.501 1664.353)" fill="#101a56"/>
      <path id="Path_992" data-name="Path 992" d="M212.758,64.49H205.18a.48.48,0,1,1,0-.96h7.578a.48.48,0,1,1,0,.96Z" transform="translate(-1402.642 1664.193)" fill="#101a56"/>
      <path id="Path_993" data-name="Path 993" d="M212.758,67.72H205.18a.48.48,0,1,1,0-.96h7.578a.48.48,0,1,1,0,.96Z" transform="translate(-1402.642 1664.066)" fill="#101a56"/>
      <path id="Path_994" data-name="Path 994" d="M210.453,71.62H205.18a.49.49,0,0,1-.48-.48.48.48,0,0,1,.48-.48h5.273a.48.48,0,1,1,0,.96Z" transform="translate(-1402.642 1663.911)" fill="#101a56"/>
      <path id="Path_995" data-name="Path 995" d="M209.19,61.722a.49.49,0,0,1-.48-.48V58.36a.48.48,0,0,1,.96,0v2.881A.48.48,0,0,1,209.19,61.722Z" transform="translate(-1402.8 1664.417)" fill="#101a56"/>
      <rect id="Rectangle_504" data-name="Rectangle 504" width="14.426" height="14.599" transform="translate(-1074.323 1734.062)" fill="#7fd5e5"/>
      <path id="Path_996" data-name="Path 996" d="M347.807,85.189H333.4a.48.48,0,0,1-.48-.48V70.11a.48.48,0,0,1,.48-.48h14.407a.48.48,0,0,1,.48.48v14.6A.48.48,0,0,1,347.807,85.189Zm-13.936-.96h13.446V70.59H333.871Z" transform="translate(-1407.714 1663.952)" fill="#101a56"/>
      <path id="Path_997" data-name="Path 997" d="M344.529,74.63H336.98a.49.49,0,0,1-.48-.48.48.48,0,0,1,.48-.48h7.578a.48.48,0,0,1,.48.48.49.49,0,0,1-.509.48Z" transform="translate(-1407.855 1663.792)" fill="#101a56"/>
      <path id="Path_998" data-name="Path 998" d="M344.529,77.86H336.98a.49.49,0,0,1-.48-.48.48.48,0,0,1,.48-.48h7.578a.48.48,0,0,1,.48.48.49.49,0,0,1-.509.48Z" transform="translate(-1407.855 1663.665)" fill="#101a56"/>
      <path id="Path_999" data-name="Path 999" d="M340.98,71.842a.48.48,0,0,1-.48-.48V68.48a.49.49,0,0,1,.48-.48.48.48,0,0,1,.48.48v2.881A.48.48,0,0,1,340.98,71.842Z" transform="translate(-1408.013 1664.017)" fill="#101a56"/>
      <path id="Path_1000" data-name="Path 1000" d="M246.071,191.56H227.14a.48.48,0,0,1-.48-.48.49.49,0,0,1,.48-.48h18.93a.48.48,0,1,1,0,.96Z" transform="translate(-1403.51 1659.167)" fill="#d1d3d4"/>
      <path id="Path_1001" data-name="Path 1001" d="M246.071,196.63H227.14a.48.48,0,0,1-.48-.48.49.49,0,0,1,.48-.48h18.93a.48.48,0,1,1,0,.96Z" transform="translate(-1403.51 1658.966)" fill="#d1d3d4"/>
      <path id="Path_1002" data-name="Path 1002" d="M231.586,88.51H216.44a.48.48,0,0,1-.48-.48.49.49,0,0,1,.48-.48h15.146a.48.48,0,0,1,0,.96Z" transform="translate(-1403.087 1663.243)" fill="#d1d3d4"/>
      <path id="Path_1003" data-name="Path 1003" d="M226.09,94.14h-11.9a.48.48,0,0,1-.48-.48.49.49,0,0,1,.48-.48h11.9a.48.48,0,0,1,0,.96Z" transform="translate(-1402.998 1663.021)" fill="#d1d3d4"/>
      <path id="Path_1004" data-name="Path 1004" d="M356.328,230.42H30.2a.48.48,0,0,1,0-.96H356.328a.48.48,0,0,1,0,.96Z" transform="translate(-1395.72 1657.63)" fill="#d1d3d4"/>
      <path id="Path_1005" data-name="Path 1005" d="M61.915,248.68s-3.064,8.385-1.71,9.2,28.391,0,26.768-1.623-8.836-7.03-8.836-7.03" transform="translate(-1396.912 1656.87)" fill="#fff"/>
      <path id="Path_1006" data-name="Path 1006" d="M66.362,258.63c-3.448,0-6.051-.125-6.445-.365-1.469-.884.317-6.493,1.508-9.768a.48.48,0,0,1,.9.327c-1.508,4.13-2.4,8.164-1.921,8.644,1.873.826,22.964-.154,25.932-1.143-2-1.844-8.423-6.665-8.5-6.723a.49.49,0,0,1-.1-.672.48.48,0,0,1,.672-.1c.3.221,7.261,5.446,8.894,7.069a.653.653,0,0,1,.067.884C86.377,258.015,74.18,258.63,66.362,258.63Z" transform="translate(-1396.893 1656.889)" fill="#231f20"/>
      <path id="Path_1007" data-name="Path 1007" d="M90.083,80.791c-1.277-.058-2.555-.279-4.043-.4s-3.16-.634-3.179-2.017c0-1.191,1.393-2.161,1.085-3.3a2.622,2.622,0,0,0-.49-.836,12.793,12.793,0,0,1,2.2-17.567c-.384.134-.8-.25-.836-.653a1.633,1.633,0,0,1,.442-1.153A7.9,7.9,0,0,1,89.1,52.525a24.357,24.357,0,0,1,14.349,0c3.582,1.047,7.885,3.909,7.415,8.231a3.448,3.448,0,0,1-2.977,3.2c-.8,4.629-3.227,7.8-6.281,11.151a18.681,18.681,0,0,1-7.53,5.119A10.373,10.373,0,0,1,90.083,80.791Z" transform="translate(-1397.745 1664.672)" fill="#fff"/>
      <path id="Path_1008" data-name="Path 1008" d="M90.63,81.273h-.586a19.417,19.417,0,0,1-2.315-.221c-.557-.067-1.133-.134-1.748-.192-2.247-.182-3.6-1.114-3.621-2.478a3.41,3.41,0,0,1,.643-1.8c.307-.519.576-.96.461-1.393a2.2,2.2,0,0,0-.365-.615,13.235,13.235,0,0,1,1.6-17.73,1.277,1.277,0,0,1-.384-.8,2.046,2.046,0,0,1,.5-1.469,8.557,8.557,0,0,1,4.072-2.488,24.972,24.972,0,0,1,14.628,0c4.207,1.229,8.231,4.418,7.751,8.75a3.976,3.976,0,0,1-3.016,3.525c-.96,4.8-3.64,8.068-6.339,11.045a19.074,19.074,0,0,1-7.684,5.244A10.4,10.4,0,0,1,90.63,81.273ZM85.568,56.158a.528.528,0,0,1,.451.259.49.49,0,0,1-.077.615,12.294,12.294,0,0,0-2.084,16.9,2.958,2.958,0,0,1,.567.96,2.756,2.756,0,0,1-.567,2.171,2.641,2.641,0,0,0-.509,1.287c0,1.249,2.286,1.508,2.737,1.546a14.54,14.54,0,0,1,1.786.192c.778.086,1.508.173,2.238.211h0a9.768,9.768,0,0,0,3.842-.547,18.172,18.172,0,0,0,7.328-4.985c3.342-3.688,5.427-6.646,6.166-10.92a.48.48,0,0,1,.423-.365,2.977,2.977,0,0,0,2.5-2.718c.471-4.322-4.216-6.886-7.069-7.684a23.934,23.934,0,0,0-14.061,0,7.28,7.28,0,0,0-3.611,2.18,1.153,1.153,0,0,0-.346.768.394.394,0,0,0,.144.231.432.432,0,0,1,.144-.106Z" transform="translate(-1397.726 1664.689)" fill="#231f20"/>
      <path id="Path_1009" data-name="Path 1009" d="M156.492,91.7l12.918,10.267.346.605,1.719,2.987-3.294-1-.672-.2L154.59,94.092Z" transform="translate(-1400.659 1663.079)" fill="#231f20"/>
      <path id="Path_1010" data-name="Path 1010" d="M171.455,106.02h-.134l-3.967-1.2a.442.442,0,0,1-.163-.086L154.272,94.446a.471.471,0,0,1-.182-.317.538.538,0,0,1,.106-.355l1.921-2.391a.471.471,0,0,1,.672-.077l12.9,10.267a.394.394,0,0,1,.115.134l2.065,3.592a.48.48,0,0,1,0,.538A.49.49,0,0,1,171.455,106.02Zm-3.746-2.113,2.737.826-1.421-2.468-12.486-9.912-1.306,1.642Z" transform="translate(-1400.64 1663.099)" fill="#22cae8"/>
      <path id="Path_1011" data-name="Path 1011" d="M.768,0H3.016a.759.759,0,0,1,.759.759V8.6H0V.768A.759.759,0,0,1,.768,0Z" transform="matrix(0.622, -0.783, 0.783, 0.622, -1249.484, 1754.913)" fill="#22cae8"/>
      <path id="Path_1012" data-name="Path 1012" d="M157.765,97.539a.49.49,0,0,1-.3-.106l-6.137-4.879a1.22,1.22,0,0,1-.461-.826,1.248,1.248,0,0,1,.259-.96l.375.3-.375-.3,1.4-1.758a1.22,1.22,0,0,1,.826-.461,1.248,1.248,0,0,1,.912.259l6.137,4.975a.461.461,0,0,1,.173.327.452.452,0,0,1-.1.346L158.14,97.4a.47.47,0,0,1-.317.182ZM153.5,89.549a.269.269,0,0,0-.221.106l-1.4,1.758h0a.279.279,0,0,0-.058.211.259.259,0,0,0,.106.182l5.763,4.581,1.748-2.2-5.763-4.581a.307.307,0,0,0-.173-.058Z" transform="translate(-1400.512 1663.204)" fill="#231f20"/>
      <path id="Path_1013" data-name="Path 1013" d="M156.105,98.354a.49.49,0,0,1-.3-.106c-.336-.259-3.227-2.536-3.63-2.881a7.8,7.8,0,0,1-1.028-2.881.5.5,0,0,1,.384-.586.49.49,0,0,1,.586.384,9.96,9.96,0,0,0,.74,2.4c.317.288,2.67,2.151,3.554,2.881a.48.48,0,0,1,.086.692A.49.49,0,0,1,156.105,98.354Z" transform="translate(-1400.523 1663.072)" fill="#22cae8"/>
      <path id="Path_1014" data-name="Path 1014" d="M70.02,110.978s-9.989,20.285-9.191,26.5,21.37,3.784,21.37,3.784L81.161,110.44Z" transform="translate(-1396.949 1662.338)" fill="#fff"/>
      <path id="Path_1015" data-name="Path 1015" d="M73.678,142.193H71.757c-7.223-.23-11.074-1.8-11.439-4.639-.826-6.291,8.826-25.932,9.239-26.777a.48.48,0,0,1,.4-.269l11.084-.538a.48.48,0,0,1,.355.125.5.5,0,0,1,.154.336l1.076,30.83a.471.471,0,0,1-.423.49,81.208,81.208,0,0,1-8.529.442Zm-3.371-30.734c-1.143,2.363-9.758,20.342-9.019,25.98.6,4.591,14.512,4.063,20.39,3.419l-1.047-29.9Z" transform="translate(-1396.928 1662.356)" fill="#231f20"/>
      <path id="Path_1016" data-name="Path 1016" d="M111.79,244.223l.547,13.168s24.693.173,23.252-1.623-12.62-9.739-12.62-9.739l-1.806-9.739Z" transform="translate(-1398.966 1657.36)" fill="#fff"/>
      <path id="Path_1017" data-name="Path 1017" d="M115.478,257.862h-3.169a.49.49,0,0,1-.471-.461l-.547-13.168a.5.5,0,0,1,.173-.384l9.374-7.933a.5.5,0,0,1,.471-.086.509.509,0,0,1,.317.365l1.767,9.547c1.421,1.018,11.17,7.981,12.553,9.71a.663.663,0,0,1,.1.739C135.359,257.593,124,257.862,115.478,257.862Zm-2.7-.96c9.883.058,20.429-.317,22.225-1.056-1.594-1.671-8.644-6.829-12.332-9.432a.5.5,0,0,1-.192-.307l-1.652-8.923-8.567,7.251Z" transform="translate(-1398.947 1657.379)" fill="#231f20"/>
      <path id="Path_1018" data-name="Path 1018" d="M114.281,148.23l9.6,96.121-15.867.355L89.982,176.822l-9.989,68.441-18.383-.9s3.2-38.226,4.869-52.776,4.245-39.734,4.245-39.734Z" transform="translate(-1396.981 1660.843)" fill="#101a56"/>
      <path id="Path_1019" data-name="Path 1019" d="M110.275,71.48s3.314,5.455,2.536,6.521-3.15.25-3.15.25" transform="translate(-1398.882 1663.879)" fill="#fff"/>
      <path id="Path_1020" data-name="Path 1020" d="M111.358,79.019a6.54,6.54,0,0,1-1.921-.327.49.49,0,0,1-.3-.615.48.48,0,0,1,.605-.3c.672.23,2.19.509,2.612-.077s-.96-3.275-2.555-5.993a.471.471,0,0,1,.154-.653.48.48,0,0,1,.663.154c1.047,1.719,3.381,5.849,2.516,7.05a2.132,2.132,0,0,1-1.777.759Z" transform="translate(-1398.86 1663.899)" fill="#231f20"/>
      <path id="Path_1021" data-name="Path 1021" d="M109.063,64.055c2.171,1.921,1.373,5.763,1.258,8.25-.163,3.534-.413,7.05-.74,10.565-.2,2.228-5.993,2.055-6.992,1.345l.567,8.865L91.17,87.932l.8-10.161s3.842.173,6.243-4.245S100.822,62,100.822,62,106.95,62.192,109.063,64.055Z" transform="translate(-1398.151 1664.254)" fill="#fff"/>
      <path id="Path_1022" data-name="Path 1022" d="M103.138,93.55a.461.461,0,0,1-.192,0L90.988,88.383a.509.509,0,0,1-.288-.48l.778-10.19a.48.48,0,0,1,.5-.442c.144,0,3.563.1,5.82-4.043,2.353-4.312,2.555-11.189,2.555-11.256a.48.48,0,0,1,.154-.336.442.442,0,0,1,.346-.134c.259,0,6.329.221,8.538,2.18,1.988,1.748,1.729,4.8,1.518,7.28,0,.48-.077.96-.1,1.354-.163,3.525-.413,7.088-.74,10.565a2.055,2.055,0,0,1-1.383,1.681,9.893,9.893,0,0,1-5.561.336l.519,8.125a.48.48,0,0,1-.2.423A.5.5,0,0,1,103.138,93.55ZM91.612,87.634l10.949,4.687-.519-8.087a.5.5,0,0,1,.25-.451.49.49,0,0,1,.509,0,8.548,8.548,0,0,0,5.407-.106q.778-.355.836-.893c.317-3.486.567-7.04.73-10.565,0-.432.058-.893.1-1.383.192-2.257.432-5.052-1.191-6.483s-6.012-1.825-7.463-1.921c-.086,1.69-.528,7.319-2.651,11.2s-5.081,4.428-6.233,4.524Z" transform="translate(-1398.132 1664.274)" fill="#231f20"/>
      <path id="Path_1023" data-name="Path 1023" d="M126.506,113.109S112.329,98.126,106.711,92.5c-5.206-5.225-20.361-9.969-27.248-2.5,0,0-11.362,15.828-13.523,25.02l6.627,4.053a302.542,302.542,0,0,0-2.574,32.857c12.486,9.9,44.5-6.156,44.5-6.156l-2.881-22.551,5.177,5.167Z" transform="translate(-1397.153 1663.3)" fill="#22cae8"/>
      <path id="Path_1024" data-name="Path 1024" d="M110.189,80.946s-2.795,1.585-4.149-1.306" transform="translate(-1398.739 1663.556)" fill="#fff"/>
      <path id="Path_1025" data-name="Path 1025" d="M108.489,81.827a3.054,3.054,0,0,1-.96-.144,3.265,3.265,0,0,1-1.921-1.921.471.471,0,0,1,.231-.634.48.48,0,0,1,.643.231,2.372,2.372,0,0,0,1.364,1.364,3.073,3.073,0,0,0,2.113-.269.48.48,0,0,1,.653.182.49.49,0,0,1-.182.653,4.3,4.3,0,0,1-1.94.538Z" transform="translate(-1398.72 1663.578)" fill="#231f20"/>
      <path id="Path_1026" data-name="Path 1026" d="M102.925,73.373a4.8,4.8,0,0,0-.893-2.459,6.944,6.944,0,0,0-1.191-1.652,2.315,2.315,0,0,0-1.921-.653A2.132,2.132,0,0,0,97.5,69.647a4.053,4.053,0,0,0-.5,1.738,7.578,7.578,0,0,0,3.237,6.848l-.192-.221" transform="translate(-1398.38 1663.993)" fill="#fff"/>
      <path id="Path_1027" data-name="Path 1027" d="M100.216,78.694a.451.451,0,0,1-.269-.086,8.087,8.087,0,0,1-3.448-7.29,4.486,4.486,0,0,1,.576-1.921,2.641,2.641,0,0,1,1.758-1.268,2.747,2.747,0,0,1,2.276.778,7.011,7.011,0,0,1,1.316,1.758,5.311,5.311,0,0,1,.96,2.718.471.471,0,0,1-.49.471.48.48,0,0,1-.471-.49,4.38,4.38,0,0,0-.826-2.209,6.5,6.5,0,0,0-1.133-1.537A1.844,1.844,0,0,0,99,69.08a1.633,1.633,0,0,0-1.057.845,3.506,3.506,0,0,0-.442,1.527,7.136,7.136,0,0,0,2.881,6.32h0l.192.211a.48.48,0,0,1,0,.634.49.49,0,0,1-.355.077Z" transform="translate(-1398.36 1664.012)" fill="#231f20"/>
      <path id="Path_1028" data-name="Path 1028" d="M102.884,85.01A9.393,9.393,0,0,1,98.6,81.85s0,5.378,4.533,7.107Z" transform="translate(-1398.445 1663.469)" fill="#231f20"/>
      <path id="Path_1029" data-name="Path 1029" d="M103.115,89.419a.548.548,0,0,1-.173,0c-4.8-1.825-4.8-7.5-4.8-7.559a.48.48,0,0,1,.346-.461.471.471,0,0,1,.538.2,8.98,8.98,0,0,0,4.043,2.968.461.461,0,0,1,.317.423l.25,3.947a.461.461,0,0,1-.192.413A.451.451,0,0,1,103.115,89.419Zm-3.842-6.06a6.877,6.877,0,0,0,3.342,4.8l-.182-2.881a11.16,11.16,0,0,1-3.189-1.921Z" transform="translate(-1398.426 1663.487)" fill="#231f20"/>
      <path id="Path_1030" data-name="Path 1030" d="M119.53,126.688a29.111,29.111,0,0,0,16.328,7.011c5.83.413,20.909-13.859,24.856-18.248,3.621-4.053,6.416-8.317,6.3-13.994a5.09,5.09,0,0,0-1.585-3.775c-.49-.423-1.124-.788-1.239-1.412a2.768,2.768,0,0,0-.058-.692,1.162,1.162,0,0,0-1.22-.74,2.881,2.881,0,0,0-1.393.634,19.305,19.305,0,0,0-5.119,5.215,10.979,10.979,0,0,0-.864,2.247c-.807,2.632-1.21,5.282-3.1,7.309s-12.563,11.641-16.741,9.854c-5.148-2.209-9.019-4.274-9.019-4.274" transform="translate(-1399.273 1662.955)" fill="#fff"/>
      <path id="Path_1031" data-name="Path 1031" d="M136.117,134.2h-.279a29.265,29.265,0,0,1-16.654-7.136.48.48,0,0,1,0-.682.471.471,0,0,1,.672,0,28.813,28.813,0,0,0,16.068,6.877c5.426.384,19.881-12.985,24.472-18.124,3.275-3.669,6.291-7.866,6.176-13.667a4.581,4.581,0,0,0-1.469-3.448,3.462,3.462,0,0,0-.288-.24,2.468,2.468,0,0,1-1.1-1.45,1.815,1.815,0,0,1,0-.394,1.92,1.92,0,0,0,0-.269c-.067-.25-.423-.394-.711-.375a2.4,2.4,0,0,0-1.143.538,19.208,19.208,0,0,0-4.994,5.062,11.862,11.862,0,0,0-.826,2.151c-.154.519-.288,1.028-.432,1.537-.576,2.084-1.172,4.245-2.766,5.964s-12.63,11.977-17.288,9.979c-5.11-2.19-9.019-4.274-9.057-4.293a.481.481,0,0,1,.461-.845s3.909,2.084,8.98,4.255c3.592,1.527,13.561-6.867,16.241-9.749,1.431-1.546,1.969-3.5,2.545-5.571.134-.519.279-1.037.442-1.556a11.668,11.668,0,0,1,.9-2.343,19.843,19.843,0,0,1,5.2-5.369,3.448,3.448,0,0,1,1.633-.72,1.6,1.6,0,0,1,1.719,1.095,2.4,2.4,0,0,1,.058.49,2.011,2.011,0,0,0,0,.24c.058.327.4.586.759.874l.317.259a5.484,5.484,0,0,1,1.758,4.13c.125,6.147-3.169,10.69-6.416,14.32C157.554,119.714,142.485,134.2,136.117,134.2Z" transform="translate(-1399.253 1662.976)" fill="#231f20"/>
      <path id="Path_1032" data-name="Path 1032" d="M113.423,125.87a.49.49,0,0,1-.346-.144,143.5,143.5,0,0,1-10.171-11.7.48.48,0,0,1,.106-.672.461.461,0,0,1,.663.1,144.944,144.944,0,0,0,10.085,11.612.471.471,0,0,1-.336.807Z" transform="translate(-1398.611 1662.226)" fill="#231f20"/>
      <path id="Path_1033" data-name="Path 1033" d="M90.615,175.991a.49.49,0,0,1-.307-.115c-.24-.2-5.849-4.975-5.878-12.486a.48.48,0,0,1,.471-.48h0a.471.471,0,0,1,.471.48c0,7.078,5.484,11.737,5.542,11.785a.48.48,0,0,1-.307.845Z" transform="translate(-1397.884 1660.262)" fill="#fff"/>
      <ellipse id="Ellipse_266" data-name="Ellipse 266" cx="1.258" cy="0.499" rx="1.258" ry="0.499" transform="translate(-1291.265 1733.969) rotate(-78.19)" fill="#231f20"/>
      <path id="Path_1034" data-name="Path 1034" d="M72.64,116.6h-.077a.5.5,0,0,1-.4-.557c.115-.682,2.756-16.9,5.763-22.33a.484.484,0,1,1,.845.471c-2.881,5.273-5.6,21.85-5.628,22.013a.471.471,0,0,1-.5.4Z" transform="translate(-1397.399 1663.01)" fill="#231f20"/>
      <rect id="Rectangle_505" data-name="Rectangle 505" width="184.043" height="82.745" rx="13.1" transform="translate(-1156.284 1801.599)" fill="#dee2e8"/>
      <path id="Path_1063" data-name="Path 1063" d="M239.336,215.893H73.072a9.239,9.239,0,0,1-9.232-9.226V141.7a9.246,9.246,0,0,1,9.232-9.232H239.336a9.246,9.246,0,0,1,9.232,9.232v64.965a9.239,9.239,0,0,1-9.232,9.226ZM73.072,133.135a8.568,8.568,0,0,0-8.554,8.554v64.965a8.568,8.568,0,0,0,8.554,8.547H239.336a8.568,8.568,0,0,0,8.554-8.547V141.7a8.568,8.568,0,0,0-8.554-8.554Z" transform="translate(-1220.463 1668.79)" fill="#101a56"/>
      <path id="Path_1064" data-name="Path 1064" d="M247.357,115.261l-2.883,16.85H82.64l3.8-33.951Z" transform="translate(-1226.51 1679.826)" fill="#dee2e8"/>
      <path id="Path_1065" data-name="Path 1065" d="M244.312,132.289H82.478a.326.326,0,0,1-.251-.115.339.339,0,0,1-.088-.265l3.8-33.951a.339.339,0,0,1,.373-.3l160.918,17.1a.339.339,0,0,1,.231.136.326.326,0,0,1,.068.258L244.644,132A.339.339,0,0,1,244.312,132.289ZM82.865,131.61H244.027l2.768-16.213L86.576,98.371Z" transform="translate(-1226.349 1679.988)" fill="#231f20"/>
      <path id="Path_1066" data-name="Path 1066" d="M238.246,132.591H77.375L76.29,115.184,236.36,99.65Z" transform="translate(-1224.468 1679.347)" fill="#b1bbcb"/>
      <path id="Path_1067" data-name="Path 1067" d="M238.058,132.768H77.214a.346.346,0,0,1-.339-.319L75.79,115.043a.346.346,0,0,1,.305-.36l160.09-15.534a.339.339,0,0,1,.251.081.326.326,0,0,1,.122.237l1.886,32.941a.339.339,0,0,1-.088.251A.353.353,0,0,1,238.058,132.768ZM77.506,132.09H237.725L235.88,99.862,76.489,115.328Z" transform="translate(-1224.307 1679.508)" fill="#231f20"/>
      <path id="Path_1068" data-name="Path 1068" d="M301.165,124.736a17.6,17.6,0,0,1-3.236,10.209h-29.06a17.752,17.752,0,1,1,32.3-10.209Z" transform="translate(-1285.379 1676.979)" fill="#22cae8"/>
      <path id="Path_1069" data-name="Path 1069" d="M297.739,135.113H268.7a.346.346,0,0,1-.278-.142,18.093,18.093,0,1,1,29.6.007.332.332,0,0,1-.278.136Zm-28.864-.678h28.687a17.42,17.42,0,1,0-28.687,0Z" transform="translate(-1285.21 1677.15)" fill="#231f20"/>
      <path id="Path_1070" data-name="Path 1070" d="M295.495,128.046A17.637,17.637,0,0,1,293.609,136h-31.74a17.752,17.752,0,1,1,33.626-7.957Z" transform="translate(-1283.555 1675.921)" fill="#dee2e8"/>
      <path id="Path_1071" data-name="Path 1071" d="M293.444,136.175H261.7a.346.346,0,0,1-.305-.19,18.095,18.095,0,1,1,34.27-8.106,17.826,17.826,0,0,1-1.92,8.106A.346.346,0,0,1,293.444,136.175Zm-31.53-.678h31.319a17.17,17.17,0,0,0,1.757-7.618,17.44,17.44,0,0,0-17.413-17.42,17.21,17.21,0,0,0-6.892,1.411,17.4,17.4,0,0,0-10.548,16.009A17.168,17.168,0,0,0,261.915,135.5Z" transform="translate(-1283.39 1676.089)" fill="#231f20"/>
      <path id="Path_1072" data-name="Path 1072" d="M259.917,137.017v1.16H220.044c0-.387-.034-.767-.034-1.16a19.955,19.955,0,1,1,39.911,0Z" transform="translate(-1270.696 1673.747)" fill="#22cae8"/>
      <path id="Path_1073" data-name="Path 1073" d="M259.723,138.355H219.883a.346.346,0,0,1-.339-.319c0-.393-.034-.78-.034-1.18a20.294,20.294,0,1,1,40.589,0c0,.4,0,.787,0,1.18a.346.346,0,0,1-.373.319Zm-39.521-.678h39.2v-.821a19.616,19.616,0,1,0-39.232,0c.024.278.031.549.037.821Z" transform="translate(-1270.535 1673.908)" fill="#231f20"/>
      <path id="Path_1074" data-name="Path 1074" d="M254.9,139.47H215.12a19.95,19.95,0,0,1,39.778,0Z" transform="translate(-1269.123 1672.454)" fill="#dee2e8"/>
      <path id="Path_1075" data-name="Path 1075" d="M254.737,139.641H214.959a.339.339,0,0,1-.339-.366,20.289,20.289,0,0,1,40.457,0,.326.326,0,0,1-.088.258.346.346,0,0,1-.251.109Zm-39.412-.678h39.046a19.611,19.611,0,0,0-39.046,0Z" transform="translate(-1268.961 1672.622)" fill="#231f20"/>
      <path id="Path_1076" data-name="Path 1076" d="M246.452,155.12v56.222a7.706,7.706,0,0,1-7.706,7.7H77.482a7.7,7.7,0,0,1-7.692-7.7V155.12Z" transform="translate(-1222.377 1661.505)" fill="#dee2e8"/>
      <path id="Path_1077" data-name="Path 1077" d="M329.577,156.316a.339.339,0,0,1-.339-.339V155.3h-.678a.339.339,0,0,1,0-.678h1.018a.339.339,0,0,1,.339.339v1.018A.339.339,0,0,1,329.577,156.316Z" transform="translate(-1305.501 1661.666)" fill="#d1d3d4"/>
      <path id="Path_1078" data-name="Path 1078" d="M238.551,220.721h-2.035a.339.339,0,1,1,0-.678h2.035a.339.339,0,0,1,.339.339A.346.346,0,0,1,238.551,220.721Zm-4.07,0h-2.035a.339.339,0,1,1,0-.678h2.035a.339.339,0,1,1-.014.678Zm-4.07,0h-2.035a.339.339,0,1,1,0-.678h2.035a.339.339,0,0,1,.339.339.346.346,0,0,1-.359.339Zm-4.07,0h-2.035a.346.346,0,0,1-.339-.339.339.339,0,0,1,.339-.339h2.035a.34.34,0,1,1-.034.678Zm-4.07,0h-2.035a.339.339,0,1,1,0-.678h2.035a.339.339,0,0,1,.339.339.346.346,0,0,1-.38.339Zm-4.07,0h-2.035a.339.339,0,1,1,0-.678H218.2a.341.341,0,1,1-.054.678Zm-4.07,0H212.1a.339.339,0,1,1,0-.678h2.035a.339.339,0,0,1,.339.339.346.346,0,0,1-.4.339Zm-4.07,0h-2.035a.339.339,0,1,1,0-.678h2.035a.343.343,0,1,1-.075.678Zm-4.07,0h-2.035a.339.339,0,1,1,0-.678h2.035a.339.339,0,0,1,.339.339.346.346,0,0,1-.421.339Zm-4.07,0h-2.035a.339.339,0,1,1,0-.678h2.035a.346.346,0,1,1-.095.678Zm-4.07,0h-2.035a.339.339,0,1,1,0-.678h2.035a.339.339,0,0,1,.339.339.346.346,0,0,1-.441.339Zm-4.07,0h-2.035a.339.339,0,1,1,0-.678h2.035a.349.349,0,1,1-.115.678Zm-4.07,0h-2.035a.339.339,0,1,1,0-.678h2.035a.339.339,0,0,1,.339.339.346.346,0,0,1-.461.339Zm-4.07,0h-2.035a.339.339,0,1,1,0-.678h2.035a.353.353,0,1,1-.136.678Zm-4.07,0h-2.035a.339.339,0,1,1,0-.678h2.035a.339.339,0,0,1,.339.339.346.346,0,0,1-.482.339Zm-4.07,0h-2.035a.339.339,0,1,1,0-.678H177.5a.357.357,0,1,1-.156.678Zm-4.07,0h-2.035a.339.339,0,1,1,0-.678h2.035a.339.339,0,0,1,.339.339.346.346,0,0,1-.5.339Zm-4.07,0h-2.035a.339.339,0,1,1,0-.678h2.035a.363.363,0,1,1-.176.678Zm-4.07,0h-2.035a.339.339,0,0,1,0-.678h2.035a.339.339,0,0,1,.339.339.346.346,0,0,1-.522.339Zm-4.07,0h-2.035a.339.339,0,0,1,0-.678h2.035a.37.37,0,1,1-.2.678Zm-4.07,0h-2.035a.339.339,0,1,1,0-.678h2.035a.339.339,0,0,1,.339.339.346.346,0,0,1-.543.339Zm-4.07,0h-2.035a.339.339,0,1,1,0-.678h2.035a.38.38,0,1,1-.217.678Zm-4.07,0h-2.035a.339.339,0,1,1,0-.678h2.035a.339.339,0,0,1,.339.339.346.346,0,0,1-.563.339Zm-4.07,0H142.9a.339.339,0,1,1,0-.678h2.035a.394.394,0,1,1-.237.678Zm-4.07,0h-2.035a.339.339,0,1,1,0-.678h2.035a.339.339,0,0,1,.339.339.346.346,0,0,1-.583.339Zm-4.07,0h-2.035a.339.339,0,1,1,0-.678H136.8a.339.339,0,0,1,.339.339.343.343,0,1,1-.6.339Zm-4.07,0h-2.035a.339.339,0,0,1,0-.678h2.035a.339.339,0,0,1,.339.339.346.346,0,0,1-.6.339Zm-4.07,0h-2.035a.339.339,0,0,1,0-.678h2.035a.339.339,0,0,1,.339.339.352.352,0,0,1-.617.339Zm-4.07,0h-2.035a.339.339,0,1,1,0-.678h2.035a.339.339,0,0,1,.339.339.355.355,0,0,1-.624.339Zm-4.07,0h-2.035a.339.339,0,1,1,0-.678h2.035a.339.339,0,0,1,.339.339.361.361,0,0,1-.638.339Zm-4.07,0h-2.035a.339.339,0,1,1,0-.678h2.035a.339.339,0,0,1,.339.339.364.364,0,1,1-.644.339Zm-4.07,0h-2.035a.339.339,0,1,1,0-.678h2.035a.339.339,0,0,1,.339.339.37.37,0,0,1-.658.339Zm-4.07,0h-2.035a.339.339,0,1,1,0-.678h2.035a.339.339,0,0,1,.339.339.373.373,0,0,1-.665.339Zm-4.07,0H102.2a.339.339,0,1,1,0-.678h2.035a.339.339,0,0,1,.339.339.379.379,0,1,1-.678.339Zm-4.07,0H98.133a.339.339,0,1,1,0-.678h2.035a.339.339,0,0,1,.339.339.382.382,0,0,1-.685.339Zm-4.07,0H94.063a.339.339,0,1,1,0-.678H96.1a.339.339,0,0,1,.339.339.388.388,0,0,1-.7.339Zm-4.07,0H89.993a.339.339,0,1,1,0-.678h2.035a.339.339,0,0,1,.339.339.391.391,0,1,1-.705.339Zm-4.07,0H85.923a.339.339,0,1,1,0-.678h2.035a.339.339,0,0,1,.339.339.4.4,0,0,1-.719.339Zm-4.07,0H81.853a.339.339,0,1,1,0-.678h2.035a.339.339,0,0,1,.339.339.4.4,0,1,1-.726.339Zm-4.07,0H77.783a.339.339,0,1,1,0-.678h2.035a.339.339,0,0,1,.339.339.407.407,0,1,1-.739.339Zm-4.07-.251h-.088a8.235,8.235,0,0,1-1.96-.807.34.34,0,0,1,.339-.59,7.178,7.178,0,0,0,1.8.739.339.339,0,0,1,.237.414.376.376,0,0,1-.712.244Zm165.205,0a.339.339,0,0,1-.326-.251.353.353,0,0,1,.237-.421,7.177,7.177,0,0,0,1.8-.739.339.339,0,1,1,.339.583,7.876,7.876,0,0,1-1.96.814Zm-168.7-2.035a.319.319,0,0,1-.237-.1,8.012,8.012,0,0,1-1.289-1.689.339.339,0,0,1,.129-.461.332.332,0,0,1,.461.129,7.414,7.414,0,0,0,1.18,1.547.332.332,0,0,1,0,.475.321.321,0,0,1-.631.122Zm172.185,0a.339.339,0,0,1-.237-.577,7.088,7.088,0,0,0,1.174-1.553.346.346,0,0,1,.468-.122.332.332,0,0,1,.122.461,7.984,7.984,0,0,1-1.282,1.689.346.346,0,0,1-.631.109Zm-174.573-3.48a.339.339,0,0,1-.326-.258,7.7,7.7,0,0,1-.251-2.035v-.088a.339.339,0,1,1,.678,0v.122a7.022,7.022,0,0,0,.231,1.845.339.339,0,0,1-.244.414Zm176.188,0h-.088a.339.339,0,0,1-.244-.414,7.249,7.249,0,0,0,.231-1.832v-.1a.339.339,0,0,1,.678,0v.088a8.257,8.257,0,0,1-.251,2.035.339.339,0,0,1-.326.2Zm-176.425-4.07a.339.339,0,0,1-.339-.339V208.51a.339.339,0,0,1,.678,0v2.035a.339.339,0,0,1-.339.346Zm176.662,0a.339.339,0,0,1-.339-.339V208.51a.339.339,0,0,1,.678,0v2.035a.339.339,0,0,1-.339.332Zm-176.662-4.07a.339.339,0,0,1-.339-.339V204.44a.339.339,0,1,1,.678,0v2.035a.346.346,0,0,1-.339.339Zm176.662,0a.339.339,0,0,1-.339-.339V204.44a.339.339,0,0,1,.678,0v2.035a.339.339,0,0,1-.339.319Zm-176.662-4.07a.339.339,0,0,1-.339-.339V200.37a.339.339,0,0,1,.678,0v2.035a.339.339,0,0,1-.339.326Zm176.662,0a.339.339,0,0,1-.339-.339V200.37a.339.339,0,0,1,.678,0v2.035a.339.339,0,0,1-.339.312Zm-176.662-4.07a.339.339,0,0,1-.339-.339V196.3a.339.339,0,1,1,.678,0v2.035a.346.346,0,0,1-.339.319Zm176.662,0a.339.339,0,0,1-.339-.339V196.3a.339.339,0,0,1,.678,0v2.035a.339.339,0,0,1-.339.3ZM69.629,194.6a.339.339,0,0,1-.339-.339V192.23a.339.339,0,1,1,.678,0v2.035a.339.339,0,0,1-.339.305Zm176.662,0a.339.339,0,0,1-.339-.339V192.23a.339.339,0,0,1,.678,0v2.035a.339.339,0,0,1-.339.292Zm-176.662-4.07a.339.339,0,0,1-.339-.339V188.16a.339.339,0,1,1,.678,0v2.035a.346.346,0,0,1-.339.3Zm176.662,0a.339.339,0,0,1-.339-.339V188.16a.339.339,0,1,1,.678,0v2.035a.339.339,0,0,1-.339.278Zm-176.662-4.07a.339.339,0,0,1-.339-.339V184.09a.339.339,0,1,1,.678,0v2.035a.339.339,0,0,1-.339.285Zm176.662,0a.339.339,0,0,1-.339-.339V184.09a.339.339,0,0,1,.678,0v2.035a.339.339,0,0,1-.339.271Zm-176.662-4.07a.339.339,0,0,1-.339-.339V180.02a.339.339,0,0,1,.678,0v2.035a.346.346,0,0,1-.339.278Zm176.662,0a.339.339,0,0,1-.339-.339V180.02a.339.339,0,0,1,.678,0v2.035a.339.339,0,0,1-.339.258Zm-176.662-4.07a.339.339,0,0,1-.339-.339V175.95a.339.339,0,1,1,.678,0v2.035a.339.339,0,0,1-.339.265Zm176.662,0a.339.339,0,0,1-.339-.339V175.95a.339.339,0,0,1,.678,0v2.035a.339.339,0,0,1-.339.251Zm-176.662-4.07a.339.339,0,0,1-.339-.339v-2.035a.339.339,0,0,1,.678,0v2.035a.346.346,0,0,1-.339.258Zm176.662,0a.339.339,0,0,1-.339-.339v-2.035a.339.339,0,0,1,.678,0v2.035a.339.339,0,0,1-.339.237Zm-176.662-4.07a.339.339,0,0,1-.339-.339v-2.035a.339.339,0,0,1,.678,0v2.035a.339.339,0,0,1-.339.244Zm176.662,0a.339.339,0,0,1-.339-.339v-2.035a.339.339,0,0,1,.678,0v2.035a.339.339,0,0,1-.339.231Zm-176.662-4.07a.339.339,0,0,1-.339-.339v-2.035a.339.339,0,1,1,.678,0v2.035a.346.346,0,0,1-.339.237Zm176.662,0a.339.339,0,0,1-.339-.339v-2.035a.339.339,0,1,1,.678,0v2.035a.339.339,0,0,1-.339.217Zm-176.662-4.07a.339.339,0,0,1-.339-.339v-2.035a.339.339,0,1,1,.678,0V161.7a.339.339,0,0,1-.339.224Zm176.662,0a.339.339,0,0,1-.339-.339v-2.035a.339.339,0,1,1,.678,0V161.7a.339.339,0,0,1-.339.21Z" transform="translate(-1222.216 1660.151)" fill="#d1d3d4"/>
      <path id="Path_1079" data-name="Path 1079" d="M69.629,156.316a.339.339,0,0,1-.339-.339v-1.018a.339.339,0,0,1,.339-.339h1.018a.346.346,0,0,1,.339.339.339.339,0,0,1-.339.339h-.678v.678A.339.339,0,0,1,69.629,156.316Z" transform="translate(-1222.216 1661.666)" fill="#d1d3d4"/>
      <path id="Path_1080" data-name="Path 1080" d="M244.747,155.3h-2.035a.339.339,0,0,1-.339-.339.346.346,0,0,1,.339-.339h2.035a.339.339,0,0,1,0,.678Zm-4.111,0H238.6a.339.339,0,1,1,0-.678h2.035a.339.339,0,1,1,0,.678Zm-4.1,0H234.5a.339.339,0,1,1,0-.678h2.035a.346.346,0,0,1,.339.339.339.339,0,0,1-.339.339Zm-4.111,0h-2.035a.339.339,0,0,1,0-.678h2.035a.339.339,0,1,1,0,.678Zm-4.111,0h-2.035a.339.339,0,0,1-.339-.339.346.346,0,0,1,.339-.339h2.035a.339.339,0,1,1,0,.678Zm-4.07,0h-2.035a.339.339,0,1,1,0-.678h2.035a.346.346,0,0,1,.339.339.339.339,0,0,1-.373.339Zm-4.111,0h-2.035a.339.339,0,1,1,0-.678h2.035a.346.346,0,0,1,.339.339.339.339,0,0,1-.373.339Zm-4.111,0h-2.035a.339.339,0,0,1-.339-.339.346.346,0,0,1,.339-.339h2.035a.34.34,0,1,1-.034.678Zm-4.111,0h-2.035a.339.339,0,0,1-.339-.339.346.346,0,0,1,.339-.339h2.035a.34.34,0,1,1-.034.678Zm-4.1,0h-2.035a.339.339,0,0,1,0-.678H207.8a.346.346,0,0,1,.339.339.339.339,0,0,1-.373.339Zm-4.111,0h-2.035a.339.339,0,0,1,0-.678h2.035a.346.346,0,0,1,.339.339.339.339,0,0,1-.373.339Zm-4.111,0h-2.035a.339.339,0,0,1-.339-.339.346.346,0,0,1,.339-.339h2.035a.34.34,0,1,1-.034.678Zm-4.111,0h-2.035a.339.339,0,1,1,0-.678h2.035a.34.34,0,1,1-.034.678Zm-4.1,0h-2.035a.339.339,0,1,1,0-.678h2.035a.346.346,0,0,1,.339.339.339.339,0,0,1-.339.339Zm-4.111,0h-2.035a.339.339,0,0,1,0-.678h2.035a.34.34,0,1,1-.034.678Zm-4.111,0h-2.035a.339.339,0,0,1-.339-.339.346.346,0,0,1,.339-.339h2.035a.34.34,0,1,1-.034.678Zm-4.111,0H177a.339.339,0,0,1,0-.678h2.035a.34.34,0,1,1-.034.678Zm-4.1,0H172.9a.339.339,0,1,1,0-.678h2.035a.346.346,0,0,1,.339.339.339.339,0,0,1-.373.339Zm-4.111,0h-2.035a.339.339,0,0,1-.339-.339.346.346,0,0,1,.339-.339h2.035a.34.34,0,1,1-.034.678Zm-4.111,0h-2.035a.339.339,0,0,1-.339-.339.346.346,0,0,1,.339-.339h2.035a.34.34,0,1,1-.034.678Zm-4.07,0H160.6a.339.339,0,0,1,0-.678h2.035a.346.346,0,0,1,.339.339.339.339,0,0,1-.407.339Zm-4.111,0h-2.035a.339.339,0,0,1,0-.678h2.035a.346.346,0,0,1,.339.339.339.339,0,0,1-.407.339Zm-4.111,0h-2.035a.339.339,0,0,1-.339-.339.346.346,0,0,1,.339-.339h2.035a.342.342,0,1,1-.068.678Zm-4.111,0h-2.035a.339.339,0,0,1,0-.678h2.035a.342.342,0,1,1-.068.678Zm-4.1,0h-2.035a.339.339,0,0,1,0-.678H146.2a.346.346,0,0,1,.339.339.339.339,0,0,1-.407.339Zm-4.111,0h-2.035a.339.339,0,0,1,0-.678h2.035a.342.342,0,1,1-.068.678Zm-4.111,0h-2.035a.339.339,0,0,1-.339-.339.346.346,0,0,1,.339-.339h2.035a.342.342,0,1,1-.068.678Zm-4.111,0h-2.035a.339.339,0,0,1,0-.678h2.035a.342.342,0,1,1-.068.678Zm-4.07,0h-2.035a.339.339,0,0,1,0-.678H129.8a.346.346,0,0,1,.339.339.339.339,0,0,1-.441.339Zm-4.111,0h-2.035a.339.339,0,0,1-.339-.339.346.346,0,0,1,.339-.339h2.035a.35.35,0,1,1-.122.678Zm-4.111,0h-2.035a.339.339,0,0,1-.339-.339.346.346,0,0,1,.339-.339h2.035a.344.344,0,1,1-.081.678Zm-4.1,0H115.44a.339.339,0,1,1,0-.678h2.035a.346.346,0,0,1,.339.339.339.339,0,0,1-.441.339Zm-4.111,0h-2.035a.339.339,0,1,1,0-.678h2.035a.346.346,0,0,1,.339.339.339.339,0,0,1-.441.339Zm-4.111,0h-2.035a.339.339,0,0,1-.339-.339.346.346,0,0,1,.339-.339h2.035a.347.347,0,1,1-.1.678Zm-4.111,0h-2.035a.339.339,0,1,1,0-.678h2.035a.347.347,0,1,1-.1.678Zm-4.07,0H99.037a.339.339,0,1,1,0-.678h2.035a.346.346,0,0,1,.339.339.339.339,0,0,1-.475.339Zm-4.111,0H94.926a.339.339,0,1,1,0-.678h2.035a.353.353,0,1,1-.136.678Zm-4.111,0H90.816a.339.339,0,0,1-.339-.339.346.346,0,0,1,.339-.339h2.035a.353.353,0,1,1-.136.678Zm-4.111,0H86.7a.339.339,0,0,1,0-.678H88.74a.353.353,0,1,1-.136.678Zm-4.1,0H82.6a.339.339,0,0,1,0-.678h2.035a.346.346,0,0,1,.339.339.339.339,0,0,1-.475.339Zm-4.111,0H78.49a.339.339,0,0,1-.339-.339.346.346,0,0,1,.339-.339h2.035a.353.353,0,1,1-.136.678Zm-4.111,0H74.379a.339.339,0,0,1-.339-.339.346.346,0,0,1,.339-.339h2.035a.353.353,0,1,1-.136.678Z" transform="translate(-1223.744 1661.666)" fill="#d1d3d4"/>
      <path id="Path_1081" data-name="Path 1081" d="M153.234,155.12v63.907H77.482a7.7,7.7,0,0,1-7.692-7.686V155.12Z" transform="translate(-1222.377 1661.505)" fill="#dee2e8"/>
      <path id="Path_1082" data-name="Path 1082" d="M192.157,156.316a.339.339,0,0,1-.339-.339V155.3h-.678a.339.339,0,0,1-.339-.339.346.346,0,0,1,.339-.339h1.018a.339.339,0,0,1,.339.339v1.018A.339.339,0,0,1,192.157,156.316Z" transform="translate(-1261.3 1661.666)" fill="#d1d3d4"/>
      <path id="Path_1083" data-name="Path 1083" d="M192.639,217.625a.346.346,0,0,1-.339-.339v-2a.346.346,0,0,1,.339-.339.339.339,0,0,1,.339.339v2A.339.339,0,0,1,192.639,217.625Zm0-4a.339.339,0,0,1-.339-.339V211.3a.339.339,0,0,1,.678,0v1.994A.339.339,0,0,1,192.639,213.63Zm0-3.989a.346.346,0,0,1-.339-.339v-1.994a.339.339,0,1,1,.678,0V209.3A.339.339,0,0,1,192.639,209.641Zm0-4a.339.339,0,0,1-.339-.339v-1.994a.346.346,0,0,1,.339-.339.339.339,0,0,1,.339.339v1.994A.339.339,0,0,1,192.639,205.645Zm0-3.989a.339.339,0,0,1-.339-.339v-1.994a.339.339,0,0,1,.678,0v1.994a.339.339,0,0,1-.339.339Zm0-3.989a.346.346,0,0,1-.339-.339v-2a.346.346,0,0,1,.339-.339.339.339,0,0,1,.339.339v2a.339.339,0,0,1-.339.36Zm0-4a.339.339,0,0,1-.339-.339v-1.994a.339.339,0,1,1,.678,0v1.994A.339.339,0,0,1,192.639,193.673Zm0-3.989a.346.346,0,0,1-.339-.339V187.35a.339.339,0,1,1,.678,0v1.994A.339.339,0,0,1,192.639,189.684Zm0-4a.339.339,0,0,1-.339-.339v-1.994a.346.346,0,0,1,.339-.339.339.339,0,0,1,.339.339v1.994a.339.339,0,0,1-.339.339Zm0-3.989a.339.339,0,0,1-.339-.339v-1.988a.339.339,0,0,1,.678,0v1.994a.339.339,0,0,1-.339.332Zm0-3.989a.346.346,0,0,1-.339-.339v-2.035a.346.346,0,0,1,.339-.339.339.339,0,0,1,.339.339v2.035a.339.339,0,0,1-.339.339Zm0-4a.339.339,0,0,1-.339-.339v-1.994a.339.339,0,0,1,.678,0v1.994a.339.339,0,0,1-.339.339Zm0-3.989a.346.346,0,0,1-.339-.339v-2a.346.346,0,0,1,.339-.339.339.339,0,0,1,.339.339v2a.339.339,0,0,1-.339.339Zm0-4a.339.339,0,0,1-.339-.339V163.4a.339.339,0,1,1,.678,0v1.994a.339.339,0,0,1-.339.339Zm0-3.989a.339.339,0,0,1-.339-.339v-1.994a.339.339,0,1,1,.678,0V161.4a.339.339,0,0,1-.339.332Z" transform="translate(-1261.783 1660.234)" fill="#d1d3d4"/>
      <path id="Path_1084" data-name="Path 1084" d="M192.157,249.026h-1.018a.346.346,0,0,1-.339-.339.339.339,0,0,1,.339-.339h.678v-.678a.339.339,0,0,1,.678,0v1.018A.339.339,0,0,1,192.157,249.026Z" transform="translate(-1261.3 1631.845)" fill="#d1d3d4"/>
      <path id="Path_1085" data-name="Path 1085" d="M150,220.672h-2.035a.339.339,0,1,1,0-.678H150a.339.339,0,0,1,0,.678Zm-4.118,0h-2.035a.339.339,0,1,1,0-.678h2.035a.339.339,0,0,1,0,.678Zm-4.118,0H139.73a.339.339,0,0,1,0-.678h2.035a.339.339,0,0,1,0,.678Zm-4.111,0h-2.035a.339.339,0,0,1,0-.678h2.035a.339.339,0,0,1,.339.339.346.346,0,0,1-.339.339Zm-4.118,0H131.5a.346.346,0,0,1-.339-.339.339.339,0,0,1,.339-.339h2.035a.339.339,0,0,1,.339.339A.346.346,0,0,1,133.536,220.672Zm-4.118,0h-2.035a.339.339,0,0,1,0-.678h2.035a.339.339,0,1,1,0,.678Zm-4.118,0h-2.035a.339.339,0,1,1,0-.678H125.3a.339.339,0,0,1,0,.678Zm-4.118,0h-2.035a.339.339,0,0,1,0-.678h2.035a.339.339,0,0,1,0,.678Zm-4.111,0h-2.035a.346.346,0,0,1-.339-.339.339.339,0,0,1,.339-.339h2.035a.339.339,0,0,1,.339.339.346.346,0,0,1-.339.339Zm-4.118,0H110.92a.346.346,0,0,1-.339-.339.339.339,0,0,1,.339-.339h2.035a.339.339,0,0,1,.339.339.346.346,0,0,1-.339.339Zm-4.118,0H106.8a.339.339,0,0,1,0-.678h2.035a.339.339,0,0,1,0,.678Zm-4.118,0h-2.035a.339.339,0,0,1,0-.678h2.035a.339.339,0,0,1,0,.678Zm-4.118,0H98.568a.339.339,0,1,1,0-.678H100.6a.339.339,0,0,1,0,.678Zm-4.111,0H94.457a.346.346,0,0,1-.339-.339.339.339,0,0,1,.339-.339h2.035a.339.339,0,0,1,.339.339.346.346,0,0,1-.339.339Zm-4.118,0H90.339a.346.346,0,0,1-.339-.339.339.339,0,0,1,.339-.339h2.035a.339.339,0,0,1,.339.339.346.346,0,0,1-.339.339Zm-4.118,0H86.222a.339.339,0,0,1,0-.678h2.035a.339.339,0,0,1,0,.678Zm-4.118,0H82.1a.339.339,0,0,1,0-.678h2.035a.339.339,0,0,1,0,.678Zm-4.118,0H77.986a.339.339,0,1,1,0-.678h2.035a.339.339,0,0,1,0,.678Zm-4.07-.129h-.075a7.952,7.952,0,0,1-2.035-.678.346.346,0,0,1-.163-.454.339.339,0,0,1,.454-.156,7.516,7.516,0,0,0,1.865.61.341.341,0,0,1-.061.678Zm-3.7-1.791a.366.366,0,0,1-.224-.081,8.432,8.432,0,0,1-1.411-1.614.341.341,0,1,1,.57-.373,7.238,7.238,0,0,0,1.289,1.479.332.332,0,0,1,.034.475A.326.326,0,0,1,72.254,218.753Zm-2.245-3.392a.332.332,0,0,1-.319-.237,7.9,7.9,0,0,1-.393-2.1.332.332,0,0,1,.319-.353.312.312,0,0,1,.36.319,7.116,7.116,0,0,0,.36,1.927.339.339,0,0,1-.217.427.3.3,0,0,1-.109.02Zm-.38-4.07a.339.339,0,0,1-.339-.339v-2.035a.339.339,0,0,1,.678,0v2.035A.339.339,0,0,1,69.629,211.291Zm0-4.118a.339.339,0,0,1-.339-.339V204.8a.339.339,0,1,1,.678,0v2.035a.339.339,0,0,1-.339.387Zm0-4.118a.339.339,0,0,1-.339-.339v-2.035a.339.339,0,0,1,.678,0v2.035a.339.339,0,0,1-.339.353Zm0-4.111a.339.339,0,0,1-.339-.339v-2.035a.339.339,0,0,1,.339-.339.346.346,0,0,1,.339.339v2.035a.346.346,0,0,1-.339.353Zm0-4.118a.339.339,0,0,1-.339-.339v-2.035a.339.339,0,0,1,.339-.339.346.346,0,0,1,.339.339v2.035a.346.346,0,0,1-.339.353Zm0-4.118a.339.339,0,0,1-.339-.339v-2.035a.339.339,0,1,1,.678,0v2.035a.339.339,0,0,1-.339.353Zm0-4.118a.339.339,0,0,1-.339-.339v-2.035a.339.339,0,1,1,.678,0v2.035a.339.339,0,0,1-.339.353Zm0-4.118a.339.339,0,0,1-.339-.339V180.1a.339.339,0,0,1,.678,0v2.035a.339.339,0,0,1-.339.353Zm0-4.111a.339.339,0,0,1-.339-.339v-2.035a.339.339,0,0,1,.339-.339.346.346,0,0,1,.339.339v2.035a.346.346,0,0,1-.339.353Zm0-4.118a.339.339,0,0,1-.339-.339v-2.035a.339.339,0,1,1,.678,0v2.035a.339.339,0,0,1-.339.353Zm0-4.118a.339.339,0,0,1-.339-.339v-2.035a.339.339,0,1,1,.678,0v2.035a.339.339,0,0,1-.339.353Zm0-4.118a.339.339,0,0,1-.339-.339v-2.035a.339.339,0,0,1,.678,0v2.035a.339.339,0,0,1-.339.353Zm0-4.118a.339.339,0,0,1-.339-.339v-2.035a.339.339,0,0,1,.678,0v2.035a.339.339,0,0,1-.339.353Z" transform="translate(-1222.216 1660.199)" fill="#d1d3d4"/>
      <path id="Path_1086" data-name="Path 1086" d="M69.629,156.316a.339.339,0,0,1-.339-.339v-1.018a.339.339,0,0,1,.339-.339h1.018a.346.346,0,0,1,.339.339.339.339,0,0,1-.339.339h-.678v.678A.339.339,0,0,1,69.629,156.316Z" transform="translate(-1222.216 1661.666)" fill="#d1d3d4"/>
      <path id="Path_1087" data-name="Path 1087" d="M151.5,155.3h-1.988a.339.339,0,1,1,0-.678H151.5a.346.346,0,0,1,.339.339A.339.339,0,0,1,151.5,155.3Zm-3.975,0h-1.988a.339.339,0,0,1-.339-.339.346.346,0,0,1,.339-.339h1.988a.339.339,0,1,1,0,.678Zm-3.968,0h-1.988a.339.339,0,0,1,0-.678h1.988a.346.346,0,0,1,.339.339A.339.339,0,0,1,143.553,155.3Zm-3.975,0H137.59a.339.339,0,0,1-.339-.339.346.346,0,0,1,.339-.339h1.988a.339.339,0,0,1,0,.678Zm-3.968,0H133.6a.339.339,0,0,1,0-.678h2.035a.346.346,0,0,1,.339.339.339.339,0,0,1-.339.339Zm-3.975,0h-1.981a.339.339,0,0,1,0-.678h1.981a.339.339,0,1,1,0,.678Zm-3.968,0h-1.988a.339.339,0,1,1,0-.678h1.988a.339.339,0,1,1,0,.678Zm-3.975,0H121.71a.339.339,0,0,1,0-.678h1.981a.339.339,0,0,1,0,.678Zm-3.968,0h-1.988a.339.339,0,0,1-.339-.339.346.346,0,0,1,.339-.339h1.988a.339.339,0,0,1,0,.678Zm-3.968,0h-1.988a.339.339,0,1,1,0-.678h1.988a.346.346,0,0,1,.339.339.339.339,0,0,1-.339.339Zm-3.975,0h-1.988a.339.339,0,0,1-.339-.339.346.346,0,0,1,.339-.339h1.988a.339.339,0,0,1,0,.678Zm-3.968,0h-1.988a.339.339,0,0,1,0-.678h2a.346.346,0,0,1,.339.339.339.339,0,0,1-.339.339Zm-3.975,0h-1.988a.339.339,0,0,1-.339-.339.346.346,0,0,1,.339-.339h1.988a.339.339,0,0,1,0,.678Zm-3.968,0H97.88a.339.339,0,1,1,0-.678h1.988a.346.346,0,0,1,.339.339.339.339,0,0,1-.339.339Zm-3.975,0H93.911a.339.339,0,1,1,0-.678h1.981a.339.339,0,0,1,0,.678Zm-3.968,0H89.936a.339.339,0,1,1,0-.678h1.988a.346.346,0,0,1,.339.339.339.339,0,0,1-.339.339Zm-3.975,0H85.968a.339.339,0,0,1,0-.678h1.981a.339.339,0,0,1,0,.678Zm-3.968,0H81.993a.339.339,0,0,1-.339-.339.346.346,0,0,1,.339-.339H83.98a.339.339,0,0,1,0,.678Zm-3.968,0H78.024a.339.339,0,1,1,0-.678h1.988a.346.346,0,0,1,.339.339.339.339,0,0,1-.339.339Zm-3.975,0H74.049a.339.339,0,0,1-.339-.339.346.346,0,0,1,.339-.339h1.988a.339.339,0,0,1,0,.678Z" transform="translate(-1223.638 1661.666)" fill="#d1d3d4"/>
      <path id="Path_1088" data-name="Path 1088" d="M290.647,155.12v56.222a7.706,7.706,0,0,1-7.706,7.7H207.19V155.12Z" transform="translate(-1266.572 1661.505)" fill="#dee2e8"/>
      <path id="Path_1089" data-name="Path 1089" d="M329.577,156.316a.339.339,0,0,1-.339-.339V155.3h-.678a.339.339,0,0,1,0-.678h1.018a.339.339,0,0,1,.339.339v1.018A.339.339,0,0,1,329.577,156.316Z" transform="translate(-1305.501 1661.666)" fill="#d1d3d4"/>
      <path id="Path_1090" data-name="Path 1090" d="M283.623,220.679h-2.035a.346.346,0,0,1-.339-.339.339.339,0,0,1,.339-.339h2.035a.339.339,0,1,1,0,.678Zm-4.118,0H277.47a.339.339,0,1,1,0-.678h2.035a.339.339,0,1,1,0,.678Zm-4.118,0h-2.035a.339.339,0,1,1,0-.678h2.035a.339.339,0,1,1,0,.678Zm-4.118,0h-2.035a.339.339,0,1,1,0-.678h2.035a.339.339,0,1,1,0,.678Zm-4.111,0h-2.035a.339.339,0,1,1,0-.678h2.035a.339.339,0,0,1,.339.339A.346.346,0,0,1,267.159,220.679Zm-4.118,0h-2.035a.346.346,0,0,1-.339-.339.339.339,0,0,1,.339-.339h2.035a.339.339,0,0,1,.339.339A.346.346,0,0,1,263.042,220.679Zm-4.118,0h-2.035a.339.339,0,1,1,0-.678h2.035a.339.339,0,0,1,0,.678Zm-4.118,0h-2.035a.339.339,0,1,1,0-.678h2.035a.339.339,0,0,1,0,.678Zm-4.118,0h-2.035a.339.339,0,1,1,0-.678h2.035a.339.339,0,0,1,0,.678Zm-4.118,0h-2.035a.339.339,0,1,1,0-.678h2.035a.339.339,0,0,1,0,.678Zm-4.111,0h-2.035a.346.346,0,0,1-.339-.339.339.339,0,0,1,.339-.339h2.035a.339.339,0,0,1,.339.339.346.346,0,0,1-.339.339Zm-4.118,0h-2.035a.346.346,0,0,1-.339-.339.339.339,0,0,1,.339-.339h2.035a.339.339,0,0,1,.339.339.346.346,0,0,1-.339.339Zm-4.118,0H232.19a.339.339,0,1,1,0-.678h2.035a.339.339,0,0,1,0,.678Zm-4.118,0h-2.035a.339.339,0,1,1,0-.678h2.035a.34.34,0,1,1-.027.678Zm-4.118,0h-2.035a.339.339,0,1,1,0-.678h2.035a.339.339,0,0,1,.02.678Zm-4.118,0h-2.035a.339.339,0,1,1,0-.678h2.035a.339.339,0,0,1,0,.678Zm-4.111,0h-2.035a.346.346,0,0,1-.339-.339.339.339,0,0,1,.339-.339h2.035a.339.339,0,0,1,.339.339.346.346,0,0,1-.339.339Zm-4.118,0h-2.035a.346.346,0,0,1-.339-.339.339.339,0,0,1,.339-.339h2.035a.339.339,0,0,1,.339.339.346.346,0,0,1-.339.339Zm72.061-.129a.332.332,0,0,1-.332-.278.346.346,0,0,1,.271-.4,7.2,7.2,0,0,0,1.859-.611.34.34,0,1,1,.3.611,8.236,8.236,0,0,1-2.035.678Zm3.656-1.777a.326.326,0,0,1-.251-.115.339.339,0,0,1,0-.482,7.462,7.462,0,0,0,1.3-1.479.339.339,0,0,1,.468-.095.346.346,0,0,1,.095.475,7.774,7.774,0,0,1-1.411,1.608.312.312,0,0,1-.231.075Zm2.252-3.392a.278.278,0,0,1-.109,0,.332.332,0,0,1-.217-.427,7.381,7.381,0,0,0,.359-1.927.339.339,0,1,1,.678,0,8.277,8.277,0,0,1-.393,2.11.332.332,0,0,1-.353.231Zm.38-4.07a.339.339,0,0,1-.339-.339v-2.035a.339.339,0,1,1,.678,0v2.035a.339.339,0,0,1-.373.326Zm0-4.118a.339.339,0,0,1-.339-.339v-2.035a.339.339,0,0,1,.678,0v2.035a.339.339,0,0,1-.373.332Zm0-4.111a.339.339,0,0,1-.339-.339v-2.035a.339.339,0,0,1,.678,0v2.035a.339.339,0,0,1-.373.332Zm0-4.118a.339.339,0,0,1-.339-.339v-2.035a.339.339,0,1,1,.678,0v2.035a.339.339,0,0,1-.373.332Zm0-4.118a.339.339,0,0,1-.339-.339v-2.035a.339.339,0,0,1,.678,0v2.035a.339.339,0,0,1-.373.332Zm0-4.118a.339.339,0,0,1-.339-.339v-2.035a.339.339,0,1,1,.678,0v2.035a.339.339,0,0,1-.373.332Zm0-4.118a.339.339,0,0,1-.339-.339v-2.035a.339.339,0,0,1,.678,0v2.035a.339.339,0,0,1-.373.332Zm0-4.118a.339.339,0,0,1-.339-.339V180.12a.339.339,0,1,1,.678,0v2.035a.339.339,0,0,1-.373.332Zm0-4.111a.339.339,0,0,1-.339-.339v-2.035a.339.339,0,0,1,.678,0v2.035a.339.339,0,0,1-.373.332Zm0-4.118a.339.339,0,0,1-.339-.339v-2.035a.339.339,0,0,1,.678,0v2.035a.339.339,0,0,1-.373.332Zm0-4.118a.339.339,0,0,1-.339-.339v-2.035a.339.339,0,1,1,.678,0v2.035a.339.339,0,0,1-.373.332Zm0-4.118a.339.339,0,0,1-.339-.339v-2.035a.339.339,0,0,1,.678,0v2.035a.339.339,0,0,1-.373.332Zm0-4.118a.339.339,0,0,1-.339-.339v-2.035a.339.339,0,1,1,.678,0v2.035a.339.339,0,0,1-.373.332Z" transform="translate(-1267.884 1660.193)" fill="#d1d3d4"/>
      <path id="Path_1091" data-name="Path 1091" d="M208.047,249.026h-1.018a.339.339,0,0,1-.339-.339v-1.018a.339.339,0,0,1,.678,0v.678h.678a.339.339,0,0,1,.339.339A.346.346,0,0,1,208.047,249.026Z" transform="translate(-1266.411 1631.845)" fill="#d1d3d4"/>
      <path id="Path_1092" data-name="Path 1092" d="M207.029,217.625a.339.339,0,0,1-.339-.339v-2a.339.339,0,0,1,.339-.339.346.346,0,0,1,.339.339v2A.346.346,0,0,1,207.029,217.625Zm0-4a.339.339,0,0,1-.339-.339V211.3a.339.339,0,1,1,.678,0v1.994A.339.339,0,0,1,207.029,213.63Zm0-3.989a.339.339,0,0,1-.339-.339v-1.994a.339.339,0,1,1,.678,0V209.3A.346.346,0,0,1,207.029,209.641Zm0-4a.339.339,0,0,1-.339-.339v-1.994a.339.339,0,0,1,.339-.339.346.346,0,0,1,.339.339v1.994A.339.339,0,0,1,207.029,205.645Zm0-3.989a.339.339,0,0,1-.339-.339v-1.994a.339.339,0,1,1,.678,0v1.994a.339.339,0,0,1-.339.339Zm0-3.989a.339.339,0,0,1-.339-.339v-2a.339.339,0,0,1,.339-.339.346.346,0,0,1,.339.339v2a.346.346,0,0,1-.339.36Zm0-4a.339.339,0,0,1-.339-.339v-1.994a.339.339,0,1,1,.678,0v1.994A.339.339,0,0,1,207.029,193.673Zm0-3.989a.339.339,0,0,1-.339-.339V187.35a.339.339,0,1,1,.678,0v1.994a.346.346,0,0,1-.339.339Zm0-4a.339.339,0,0,1-.339-.339v-1.994a.339.339,0,0,1,.339-.339.346.346,0,0,1,.339.339v1.994a.339.339,0,0,1-.339.339Zm0-3.989a.339.339,0,0,1-.339-.339v-1.988a.339.339,0,1,1,.678,0v1.994a.339.339,0,0,1-.339.332Zm0-3.989a.339.339,0,0,1-.339-.339v-2.035a.339.339,0,0,1,.339-.339.346.346,0,0,1,.339.339v2.035a.346.346,0,0,1-.339.339Zm0-4a.339.339,0,0,1-.339-.339v-1.994a.339.339,0,1,1,.678,0v1.994a.339.339,0,0,1-.339.339Zm0-3.989a.339.339,0,0,1-.339-.339v-1.994a.339.339,0,1,1,.678,0v1.994A.346.346,0,0,1,207.029,169.727Zm0-4a.339.339,0,0,1-.339-.339V163.4a.339.339,0,1,1,.678,0v1.994a.339.339,0,0,1-.339.339Zm0-3.989a.339.339,0,0,1-.339-.339v-1.994a.339.339,0,1,1,.678,0V161.4a.339.339,0,0,1-.339.332Z" transform="translate(-1266.411 1660.234)" fill="#d1d3d4"/>
      <path id="Path_1093" data-name="Path 1093" d="M207.029,156.316a.339.339,0,0,1-.339-.339v-1.018a.339.339,0,0,1,.339-.339h1.018a.346.346,0,0,1,.339.339.339.339,0,0,1-.339.339h-.678v.678A.339.339,0,0,1,207.029,156.316Z" transform="translate(-1266.411 1661.666)" fill="#d1d3d4"/>
      <path id="Path_1094" data-name="Path 1094" d="M288.906,155.3h-1.988a.339.339,0,0,1-.339-.339.346.346,0,0,1,.339-.339h1.988a.339.339,0,1,1,0,.678Zm-3.968,0h-1.994a.339.339,0,1,1,0-.678h1.988a.346.346,0,0,1,.339.339.339.339,0,0,1-.333.339Zm-3.975,0h-1.988a.339.339,0,0,1-.339-.339.346.346,0,0,1,.339-.339h1.988a.339.339,0,0,1,0,.678Zm-3.968,0h-1.988a.339.339,0,1,1,0-.678h1.988a.346.346,0,0,1,.339.339A.339.339,0,0,1,276.995,155.3Zm-3.975,0h-1.988a.339.339,0,0,1-.339-.339.346.346,0,0,1,.339-.339h1.988a.339.339,0,1,1,0,.678Zm-3.968,0h-1.988a.339.339,0,1,1,0-.678h1.988a.346.346,0,0,1,.339.339A.339.339,0,0,1,269.051,155.3Zm-3.975,0h-1.988a.339.339,0,0,1-.339-.339.346.346,0,0,1,.339-.339h1.988a.339.339,0,0,1,0,.678Zm-3.968,0H259.12a.339.339,0,0,1,0-.678h1.988a.346.346,0,0,1,.339.339.339.339,0,0,1-.339.339Zm-3.975,0h-2a.339.339,0,0,1-.339-.339.346.346,0,0,1,.339-.339h2.035a.339.339,0,0,1,0,.678Zm-3.975,0h-1.981a.339.339,0,1,1,0-.678h1.981a.339.339,0,1,1,0,.678Zm-3.968,0H247.2a.339.339,0,0,1-.339-.339.346.346,0,0,1,.339-.339h1.988a.339.339,0,1,1,0,.678Zm-3.975,0h-1.981a.339.339,0,1,1,0-.678h1.981a.339.339,0,1,1,0,.678Zm-3.968,0h-1.988a.339.339,0,0,1-.339-.339.346.346,0,0,1,.339-.339h1.988a.339.339,0,1,1,0,.678Zm-3.975,0H235.29a.339.339,0,0,1,0-.678h1.981a.339.339,0,1,1,0,.678Zm-3.968,0h-1.988a.339.339,0,0,1-.339-.339.346.346,0,0,1,.339-.339H233.3a.346.346,0,0,1,.339.339.339.339,0,0,1-.339.339Zm-3.975,0h-2.008a.339.339,0,0,1,0-.678h2.035a.339.339,0,1,1,0,.678Zm-3.968,0h-1.988a.339.339,0,0,1,0-.678h1.988a.346.346,0,0,1,.339.339.339.339,0,0,1-.339.339Zm-3.975,0H219.4a.339.339,0,0,1,0-.678h1.981a.339.339,0,1,1,0,.678Zm-3.968,0h-1.988a.339.339,0,0,1,0-.678h1.988a.346.346,0,0,1,.339.339.339.339,0,0,1-.339.339Zm-3.975,0h-1.981a.339.339,0,1,1,0-.678h1.981a.339.339,0,1,1,0,.678Z" transform="translate(-1267.836 1661.666)" fill="#d1d3d4"/>
      <path id="Path_1095" data-name="Path 1095" d="M151.1,206.02l-77.82-2.5v-3.65a3.344,3.344,0,0,1,3.344-3.337h71.084a3.337,3.337,0,0,1,3.337,3.337Z" transform="translate(-1223.5 1648.185)" fill="#22cae8"/>
      <path id="Path_1096" data-name="Path 1096" d="M151.1,173.95l-77.82-2.5v-4.206a2.788,2.788,0,0,1,2.788-2.781h72.217a2.788,2.788,0,0,1,2.781,2.781Z" transform="translate(-1223.5 1658.501)" fill="#b1bbcb"/>
      <path id="Path_1097" data-name="Path 1097" d="M151.1,187.247l-77.82.923v-2.985a1.94,1.94,0,0,1,1.893-1.94l73.9-2.035a1.947,1.947,0,0,1,1.994,1.947Z" transform="translate(-1223.5 1653.113)" fill="#101a56"/>
      <rect id="Rectangle_506" data-name="Rectangle 506" width="69.259" height="33.748" rx="7.4" transform="translate(-1052.219 1836.053)" fill="#b1bbcb"/>
      <path id="Path_1098" data-name="Path 1098" d="M281.876,217.683h-2.11a.346.346,0,0,1-.339-.339.339.339,0,0,1,.339-.339H281.8a.359.359,0,0,1,.366.339A.319.319,0,0,1,281.876,217.683Zm-4.165,0h-2.035a.346.346,0,0,1-.339-.339.339.339,0,0,1,.339-.339h2.035a.339.339,0,1,1,0,.678Zm-4.111,0h-2.035a.339.339,0,1,1,0-.678H273.6a.339.339,0,0,1,0,.678Zm-4.111,0h-2.035a.339.339,0,1,1,0-.678h2.035a.339.339,0,0,1,0,.678Zm-4.111,0h-2.035a.339.339,0,1,1,0-.678h2.035a.339.339,0,0,1,.339.339.346.346,0,0,1-.339.339Zm-4.111,0h-2.035a.339.339,0,1,1,0-.678h2.035a.339.339,0,0,1,.339.339.346.346,0,0,1-.339.339Zm-4.111,0h-2.035a.339.339,0,0,1,0-.678h2.035a.339.339,0,0,1,.339.339.346.346,0,0,1-.339.339Zm-4.124,0H251a.346.346,0,0,1-.339-.339.339.339,0,0,1,.339-.339h2.035a.339.339,0,0,1,.339.339.346.346,0,0,1-.339.339Zm-4.07,0h-2.035a.346.346,0,0,1-.339-.339.339.339,0,0,1,.339-.339h2.035a.339.339,0,1,1,0,.678Zm-4.111,0h-2.035a.346.346,0,0,1-.339-.339.339.339,0,0,1,.339-.339h2.035a.34.34,0,1,1-.034.678Zm-4.111,0h-2.035a.339.339,0,0,1,0-.678h2.035a.34.34,0,1,1-.034.678Zm-4.111,0H234.6a.339.339,0,1,1,0-.678h2.035a.34.34,0,1,1-.034.678Zm-4.111,0h-2.035a.339.339,0,0,1,0-.678h2.035a.34.34,0,1,1-.034.678Zm-4.111,0h-2.035a.339.339,0,1,1,0-.678h2.035a.339.339,0,0,1,.339.339.346.346,0,0,1-.373.339Zm-4.111,0h-2.083a.339.339,0,0,1-.312-.366.353.353,0,0,1,.366-.312,3.478,3.478,0,0,0,.38,0H224.3a.339.339,0,0,1,.339.339.346.346,0,0,1-.373.339Zm59.606-.434a.332.332,0,0,1-.312-.2.339.339,0,0,1,.17-.448,4.667,4.667,0,0,0,1.547-1.112.341.341,0,0,1,.5.461,5.374,5.374,0,0,1-1.771,1.268.36.36,0,0,1-.17.048Zm-63.622-.156a.359.359,0,0,1-.163-.041,5.426,5.426,0,0,1-1.682-1.4.332.332,0,0,1,.054-.475.339.339,0,0,1,.475.054,4.749,4.749,0,0,0,1.465,1.221.339.339,0,0,1-.163.638Zm66.288-2.8a.305.305,0,0,1-.109,0,.339.339,0,0,1-.21-.434,4.66,4.66,0,0,0,.258-1.533v-.38a.339.339,0,0,1,.339-.339.346.346,0,0,1,.339.339v.38a5.311,5.311,0,0,1-.3,1.757A.332.332,0,0,1,286.57,214.292Zm-68.812-.319a.332.332,0,0,1-.326-.251,5.283,5.283,0,0,1-.183-1.357v-.787a.339.339,0,0,1,.678,0v.733a4.648,4.648,0,0,0,.163,1.221.339.339,0,0,1-.244.414Zm69.09-3.751a.339.339,0,0,1-.339-.339v-2.035a.339.339,0,0,1,.339-.339.346.346,0,0,1,.339.339v2.035A.339.339,0,0,1,286.849,210.222Zm-69.259-.353a.339.339,0,0,1-.339-.339v-2.035a.339.339,0,1,1,.678,0v2.035a.339.339,0,0,1-.339.353Zm69.259-3.717a.339.339,0,0,1-.339-.339v-2.035a.339.339,0,0,1,.678,0v2.035A.339.339,0,0,1,286.849,206.151Zm-69.259-.353a.339.339,0,0,1-.339-.339v-2.035a.339.339,0,0,1,.678,0v2.035a.339.339,0,0,1-.339.312Zm69.259-3.758a.339.339,0,0,1-.339-.339v-2.035a.339.339,0,1,1,.678,0V201.7a.339.339,0,0,1-.339.312Zm-69.259-.36a.339.339,0,0,1-.339-.339v-2.035a.339.339,0,0,1,.678,0v2.035a.339.339,0,0,1-.339.312Zm69.259-3.751a.339.339,0,0,1-.339-.339v-2.035a.339.339,0,0,1,.678,0v2.035a.339.339,0,0,1-.339.312Zm-69.259-.36a.339.339,0,0,1-.339-.339V195.2a.339.339,0,1,1,.678,0v2.035a.339.339,0,0,1-.339.312Zm69.259-3.751a.339.339,0,0,1-.339-.339v-2.035a.339.339,0,0,1,.678,0v2.035a.346.346,0,0,1-.339.312Zm-69.259-.36a.339.339,0,0,1-.339-.339v-2.035a.339.339,0,0,1,.678,0v2.035a.339.339,0,0,1-.339.312Zm69.259-3.751a.339.339,0,0,1-.339-.339v-.712a4.492,4.492,0,0,0-.17-1.241.341.341,0,0,1,.658-.176,5.493,5.493,0,0,1,.19,1.418v.712a.346.346,0,0,1-.339.312Zm-69.259-.36a.339.339,0,0,1-.339-.339v-.353a5.3,5.3,0,0,1,.305-1.784.338.338,0,0,1,.638.224,4.68,4.68,0,0,0-.265,1.56v.353a.339.339,0,0,1-.339.312Zm68.154-3.548a.326.326,0,0,1-.265-.129,4.688,4.688,0,0,0-1.472-1.207.341.341,0,0,1,.319-.6,5.426,5.426,0,0,1,1.682,1.391.339.339,0,0,1-.054.475A.346.346,0,0,1,285.743,185.8Zm-66.811-.271a.319.319,0,0,1-.231-.088.339.339,0,0,1,0-.482,5.352,5.352,0,0,1,1.77-1.262.332.332,0,0,1,.448.176.326.326,0,0,1-.17.441,4.749,4.749,0,0,0-1.553,1.106.325.325,0,0,1-.265.129Zm63.27-1.574h-2.035a.339.339,0,1,1,0-.678h1.669a3.989,3.989,0,0,1,.407,0,.34.34,0,0,1-.041.678Zm-4.111,0h-2.035a.339.339,0,0,1-.339-.339.346.346,0,0,1,.339-.339h2.035a.346.346,0,0,1,.339.339.339.339,0,0,1-.3.326Zm-4.118,0h-2.035a.339.339,0,0,1-.339-.339.346.346,0,0,1,.339-.339h2.035a.332.332,0,1,1,.007.665Zm-4.111,0h-2.035a.339.339,0,0,1-.339-.339.346.346,0,0,1,.339-.339h2.035a.332.332,0,1,1,.007.665Zm-4.111,0h-2.035a.339.339,0,0,1,0-.678h2.035a.332.332,0,1,1,.007.665Zm-4.111,0h-2.035a.339.339,0,0,1,0-.678h2.035a.332.332,0,1,1,.007.665Zm-4.111,0H255.5a.339.339,0,0,1,0-.678h2.035a.332.332,0,1,1,.007.665Zm-4.111,0h-2.035a.339.339,0,0,1,0-.678h2.035a.346.346,0,0,1,.339.339.339.339,0,0,1-.332.326Zm-4.111,0h-2.035a.339.339,0,0,1,0-.678h2.035a.346.346,0,0,1,.339.339.339.339,0,0,1-.332.326Zm-4.111,0h-2.035a.339.339,0,0,1-.339-.339.346.346,0,0,1,.339-.339H245.2a.346.346,0,0,1,.339.339.339.339,0,0,1-.332.326Zm-4.118,0h-2.035a.339.339,0,0,1-.339-.339.346.346,0,0,1,.339-.339h2.035a.332.332,0,1,1,.007.665Zm-4.111,0h-2.035a.339.339,0,0,1-.339-.339.346.346,0,0,1,.339-.339h2.035a.332.332,0,1,1,.007.665Zm-4.111,0h-2.035a.339.339,0,1,1,0-.678h2.035a.332.332,0,1,1,.007.665Zm-4.111,0h-2.035a.339.339,0,0,1,0-.678h2.035a.332.332,0,1,1,.007.665Zm-4.111,0H222.6a.346.346,0,0,1-.353-.339.326.326,0,0,1,.326-.339h2.035a.333.333,0,0,1,.034.665Z" transform="translate(-1269.808 1652.45)" fill="#d1d3d4"/>
      <path id="Path_1099" data-name="Path 1099" d="M286.364,169.028h-1.743a.346.346,0,0,1-.339-.339.339.339,0,0,1,.339-.339h1.743a.339.339,0,1,1,0,.678Zm-3.778,0h-2.035a.346.346,0,0,1-.339-.339.339.339,0,0,1,.339-.339h2.035a.339.339,0,1,1,0,.678Zm-4.07,0h-2.035a.346.346,0,0,1-.339-.339.339.339,0,0,1,.339-.339h2.035a.339.339,0,1,1,0,.678Zm-4.07,0H272.41a.346.346,0,0,1-.339-.339.339.339,0,0,1,.339-.339h2.035a.339.339,0,1,1,0,.678Zm-4.07,0H268.34a.346.346,0,0,1-.339-.339.339.339,0,0,1,.339-.339h2.035a.339.339,0,1,1,0,.678Zm-4.07,0H264.27a.346.346,0,0,1-.339-.339.339.339,0,0,1,.339-.339h2.035a.339.339,0,1,1,0,.678Zm-4.07,0H260.2a.346.346,0,0,1-.339-.339.339.339,0,0,1,.339-.339h2.035a.339.339,0,1,1,0,.678Zm-4.07,0H256.13a.346.346,0,0,1-.339-.339.339.339,0,0,1,.339-.339h2.035a.339.339,0,0,1,0,.678Zm-4.07,0H252.06a.346.346,0,0,1-.339-.339.339.339,0,0,1,.339-.339H254.1a.339.339,0,1,1,0,.678Zm-4.07,0H247.99a.346.346,0,0,1-.339-.339.339.339,0,0,1,.339-.339h2.035a.339.339,0,1,1,0,.678Zm-4.07,0H243.92a.346.346,0,0,1-.339-.339.339.339,0,0,1,.339-.339h2.035a.339.339,0,1,1,0,.678Zm-4.07,0H239.85a.346.346,0,0,1-.339-.339.339.339,0,0,1,.339-.339h2.035a.339.339,0,1,1,0,.678Zm-4.07,0H235.78a.346.346,0,0,1-.339-.339.339.339,0,0,1,.339-.339h2.035a.339.339,0,1,1,0,.678Zm-4.07,0h-2.035a.346.346,0,0,1-.339-.339.339.339,0,0,1,.339-.339h2.035a.339.339,0,1,1,0,.678Zm-4.07,0h-2.035a.346.346,0,0,1-.339-.339.339.339,0,0,1,.339-.339h2.035a.339.339,0,1,1,0,.678Zm-4.07,0h-2.035a.346.346,0,0,1-.339-.339.339.339,0,0,1,.339-.339H225.6a.339.339,0,1,1,0,.678Zm-4.07,0H219.5a.346.346,0,0,1-.339-.339.339.339,0,0,1,.339-.339h2.035a.339.339,0,1,1,0,.678Z" transform="translate(-1270.422 1657.249)" fill="#d1d3d4"/>
      <path id="Path_1100" data-name="Path 1100" d="M152.421,209.391h0l-81.036-2.713a.332.332,0,0,1-.326-.346.326.326,0,0,1,.346-.332l81.049,2.713a.332.332,0,0,1,.326.346.346.346,0,0,1-.36.332Z" transform="translate(-1222.785 1645.14)" fill="#231f20"/>
      <path id="Path_1101" data-name="Path 1101" d="M71.059,191.054a.339.339,0,1,1,0-.678l81.5-1.126h0a.339.339,0,0,1,.339.339.332.332,0,0,1-.332.339l-81.5,1.126Z" transform="translate(-1222.676 1650.527)" fill="#231f20"/>
      <path id="Path_1102" data-name="Path 1102" d="M152.488,177.287h0l-81.232-3.039a.339.339,0,1,1,.027-.678l81.212,3.039a.346.346,0,0,1,.332.353A.339.339,0,0,1,152.488,177.287Z" transform="translate(-1222.744 1655.571)" fill="#231f20"/>
      <path id="Path_1103" data-name="Path 1103" d="M246.3,148.368H69.659a.339.339,0,1,1,0-.678H246.3a.339.339,0,1,1,0,.678Z" transform="translate(-1222.226 1663.895)" fill="#231f20"/>
      <path id="Path_1109" data-name="Path 1109" d="M130.979,82.967a.339.339,0,0,1-.339-.339V79.439a.339.339,0,1,1,.678,0v3.188a.339.339,0,0,1-.339.339Z" transform="translate(-1241.95 1685.957)" fill="#d1d3d4"/>
      <path id="Path_1113" data-name="Path 1113" d="M286.609,85.834a.339.339,0,0,1-.339-.339V83.019a.339.339,0,1,1,.678,0V85.5A.339.339,0,0,1,286.609,85.834Z" transform="translate(-1292.008 1684.805)" fill="#d1d3d4"/>
      <path id="Path_1124" data-name="Path 1124" d="M273.9,186.434a23.565,23.565,0,0,0-6.01-3.914c-.183,6.424,2.428,12.332,4.837,16.382h7.842" transform="translate(-1286.092 1652.692)" fill="#dee2e8"/>
      <path id="Path_1125" data-name="Path 1125" d="M280.4,199.088h-7.855a.353.353,0,0,1-.292-.17c-2.327-3.914-5.067-9.965-4.884-16.565a.346.346,0,0,1,.156-.271.339.339,0,0,1,.312,0,23.743,23.743,0,0,1,6.105,3.982.326.326,0,0,1,0,.475.332.332,0,0,1-.475,0,23.891,23.891,0,0,0-5.427-3.65c-.034,6.146,2.5,11.783,4.7,15.521h7.645a.339.339,0,0,1,.339.339A.346.346,0,0,1,280.4,199.088Z" transform="translate(-1285.925 1652.845)" fill="#231f20"/>
      <path id="Path_1126" data-name="Path 1126" d="M287.955,182.876a37.445,37.445,0,0,0-8.181-16.8c-1.628,4.945-3.473,10.474-3.053,15.066a53.853,53.853,0,0,0,2.713,12.468h8.425" transform="translate(-1288.917 1657.98)" fill="#dee2e8"/>
      <path id="Path_1127" data-name="Path 1127" d="M287.706,193.793h-8.425a.346.346,0,0,1-.326-.231,54.37,54.37,0,0,1-2.713-12.543c-.414-4.6,1.4-10.114,3-14.978l.068-.224a.341.341,0,0,1,.577-.129,38.2,38.2,0,0,1,8.262,16.959.339.339,0,0,1-.271.4.346.346,0,0,1-.4-.271,37.649,37.649,0,0,0-7.706-16.179c-1.547,4.715-3.243,10.012-2.849,14.361a53.712,53.712,0,0,0,2.612,12.156h8.188a.339.339,0,1,1-.014.678Z" transform="translate(-1288.763 1658.14)" fill="#231f20"/>
      <path id="Path_1128" data-name="Path 1128" d="M295.9,198.146h-7.462c-.075-2.211.427-5.556,2.829-9.9l.475-.841c4.321-7.319,8.276-7.238,8.276-7.238C301.705,187.876,298.158,194.741,295.9,198.146Z" transform="translate(-1292.703 1653.448)" fill="#dee2e8"/>
      <path id="Path_1129" data-name="Path 1129" d="M295.738,198.325h-7.462a.346.346,0,0,1-.339-.332c-.068-2.1.373-5.549,2.869-10.067.163-.3.319-.577.482-.848,4.375-7.408,8.425-7.408,8.574-7.408a.326.326,0,0,1,.326.265c1.7,7.835-1.879,14.788-4.165,18.234A.339.339,0,0,1,295.738,198.325Zm-7.129-.678h6.946c2.2-3.392,5.508-9.911,4.036-17.271-.936.149-4.2,1.085-7.72,7.048-.156.265-.312.543-.475.828A19.444,19.444,0,0,0,288.609,197.646Z" transform="translate(-1292.542 1653.608)" fill="#231f20"/>
      <path id="Path_1130" data-name="Path 1130" d="M289.379,218.507H274.741L272.38,206.67h19.36Z" transform="translate(-1287.54 1644.924)" fill="#7fd5e5"/>
      <rect id="Rectangle_507" data-name="Rectangle 507" width="48.197" height="8.914" rx="2.45" transform="translate(-1031.617 1881.516)" fill="#7fd5e5"/>
      <path id="Path_1131" data-name="Path 1131" d="M294.494,259.859H249.621a2.035,2.035,0,0,1-2-2.035v-5.583a2.035,2.035,0,0,1,2-2h44.873a2.035,2.035,0,0,1,2,2v5.583a2.035,2.035,0,0,1-2,2.035Zm-44.873-8.914a1.357,1.357,0,0,0-1.323,1.323v5.583a1.357,1.357,0,0,0,1.323,1.357h44.873a1.357,1.357,0,0,0,1.323-1.357v-5.583a1.357,1.357,0,0,0-1.323-1.323Z" transform="translate(-1279.576 1630.909)" fill="#231f20"/>
      <rect id="Rectangle_508" data-name="Rectangle 508" width="48.197" height="8.914" rx="2.45" transform="translate(-1036.013 1872.629)" fill="#dee2e8"/>
      <path id="Path_1132" data-name="Path 1132" d="M288.008,246.759H243.135a2.035,2.035,0,0,1-2.035-2v-5.583a2.035,2.035,0,0,1,2.035-2.035h44.873a2.035,2.035,0,0,1,2,2.035v5.583a2.035,2.035,0,0,1-2,2Zm-44.873-8.913a1.357,1.357,0,0,0-1.357,1.357v5.583a1.357,1.357,0,0,0,1.357,1.323h44.873a1.357,1.357,0,0,0,1.323-1.323V239.2a1.357,1.357,0,0,0-1.323-1.357Z" transform="translate(-1277.479 1635.123)" fill="#231f20"/>
      <rect id="Rectangle_509" data-name="Rectangle 509" width="48.197" height="8.914" rx="2.45" transform="translate(-1028.558 1863.689)" fill="#7fd5e5"/>
      <path id="Path_1133" data-name="Path 1133" d="M298.988,233.608H254.115a2.035,2.035,0,0,1-2.035-2v-5.555a2.035,2.035,0,0,1,2.035-2h44.873a2.035,2.035,0,0,1,2,2v5.59a2.035,2.035,0,0,1-2,1.967Zm-44.873-8.913a1.357,1.357,0,0,0-1.357,1.323v5.59a1.357,1.357,0,0,0,1.357,1.323h44.873a1.357,1.357,0,0,0,1.323-1.323v-5.556a1.357,1.357,0,0,0-1.323-1.323Z" transform="translate(-1281.011 1639.333)" fill="#231f20"/>
      <path id="Path_1134" data-name="Path 1134" d="M247.839,245.324a.339.339,0,0,1-.339-.339v-5.535a.339.339,0,1,1,.678,0v5.535A.339.339,0,0,1,247.839,245.324Z" transform="translate(-1279.538 1634.489)" fill="#231f20"/>
      <path id="Path_1135" data-name="Path 1135" d="M254.349,245.324a.339.339,0,0,1-.339-.339v-5.535a.339.339,0,1,1,.678,0v5.535A.339.339,0,0,1,254.349,245.324Z" transform="translate(-1281.632 1634.489)" fill="#231f20"/>
      <path id="Path_1136" data-name="Path 1136" d="M260.839,245.324a.339.339,0,0,1-.339-.339v-5.535a.339.339,0,1,1,.678,0v5.535A.339.339,0,0,1,260.839,245.324Z" transform="translate(-1283.719 1634.489)" fill="#231f20"/>
      <path id="Path_1137" data-name="Path 1137" d="M267.3,245.324a.339.339,0,0,1-.339-.339v-5.535a.339.339,0,1,1,.678,0v5.535A.339.339,0,0,1,267.3,245.324Z" transform="translate(-1285.797 1634.489)" fill="#231f20"/>
      <path id="Path_1138" data-name="Path 1138" d="M273.769,245.324a.339.339,0,0,1-.339-.339v-5.535a.339.339,0,1,1,.678,0v5.535A.339.339,0,0,1,273.769,245.324Z" transform="translate(-1287.878 1634.489)" fill="#231f20"/>
      <path id="Path_1139" data-name="Path 1139" d="M280.249,245.324a.339.339,0,0,1-.339-.339v-5.535a.339.339,0,1,1,.678,0v5.535A.339.339,0,0,1,280.249,245.324Z" transform="translate(-1289.962 1634.489)" fill="#231f20"/>
      <path id="Path_1140" data-name="Path 1140" d="M286.729,245.324a.339.339,0,0,1-.339-.339v-5.535a.339.339,0,1,1,.678,0v5.535A.339.339,0,0,1,286.729,245.324Z" transform="translate(-1292.047 1634.489)" fill="#231f20"/>
      <path id="Path_1141" data-name="Path 1141" d="M293.2,245.324a.339.339,0,0,1-.339-.339v-5.535a.339.339,0,1,1,.678,0v5.535A.339.339,0,0,1,293.2,245.324Z" transform="translate(-1294.128 1634.489)" fill="#231f20"/>
      <path id="Path_1142" data-name="Path 1142" d="M299.679,245.324a.339.339,0,0,1-.339-.339v-5.535a.339.339,0,1,1,.678,0v5.535A.339.339,0,0,1,299.679,245.324Z" transform="translate(-1296.212 1634.489)" fill="#231f20"/>
      <path id="Path_1143" data-name="Path 1143" d="M306.149,245.324a.339.339,0,0,1-.339-.339v-5.535a.339.339,0,1,1,.678,0v5.535A.339.339,0,0,1,306.149,245.324Z" transform="translate(-1298.293 1634.489)" fill="#231f20"/>
      <path id="Path_1144" data-name="Path 1144" d="M258.839,232.707a.339.339,0,0,1-.339-.339v-5.529a.339.339,0,0,1,.678,0v5.542a.339.339,0,0,1-.339.326Z" transform="translate(-1283.076 1638.545)" fill="#231f20"/>
      <path id="Path_1145" data-name="Path 1145" d="M265.329,232.707a.339.339,0,0,1-.339-.339v-5.529a.339.339,0,0,1,.339-.339.346.346,0,0,1,.339.339v5.542a.339.339,0,0,1-.339.326Z" transform="translate(-1285.163 1638.545)" fill="#231f20"/>
      <path id="Path_1146" data-name="Path 1146" d="M271.839,232.707a.339.339,0,0,1-.339-.339v-5.529a.346.346,0,0,1,.339-.339.339.339,0,0,1,.339.339v5.542a.339.339,0,0,1-.339.326Z" transform="translate(-1287.257 1638.545)" fill="#231f20"/>
      <path id="Path_1147" data-name="Path 1147" d="M278.279,232.707a.339.339,0,0,1-.339-.339v-5.529a.339.339,0,0,1,.339-.339.346.346,0,0,1,.339.339v5.542a.339.339,0,0,1-.339.326Z" transform="translate(-1289.329 1638.545)" fill="#231f20"/>
      <path id="Path_1148" data-name="Path 1148" d="M284.759,232.707a.339.339,0,0,1-.339-.339v-5.529a.339.339,0,0,1,.339-.339.346.346,0,0,1,.339.339v5.542a.339.339,0,0,1-.339.326Z" transform="translate(-1291.413 1638.545)" fill="#231f20"/>
      <path id="Path_1149" data-name="Path 1149" d="M291.229,232.707a.339.339,0,0,1-.339-.339v-5.529a.339.339,0,0,1,.678,0v5.542a.339.339,0,0,1-.339.326Z" transform="translate(-1293.494 1638.545)" fill="#231f20"/>
      <path id="Path_1150" data-name="Path 1150" d="M297.709,232.707a.339.339,0,0,1-.339-.339v-5.529a.339.339,0,0,1,.339-.339.346.346,0,0,1,.339.339v5.542a.339.339,0,0,1-.339.326Z" transform="translate(-1295.578 1638.545)" fill="#231f20"/>
      <path id="Path_1151" data-name="Path 1151" d="M304.179,232.707a.339.339,0,0,1-.339-.339v-5.529a.346.346,0,0,1,.339-.339.339.339,0,0,1,.339.339v5.542a.339.339,0,0,1-.339.326Z" transform="translate(-1297.66 1638.545)" fill="#231f20"/>
      <path id="Path_1152" data-name="Path 1152" d="M310.659,232.707a.339.339,0,0,1-.339-.339v-5.529a.339.339,0,0,1,.339-.339.346.346,0,0,1,.339.339v5.542a.339.339,0,0,1-.339.326Z" transform="translate(-1299.744 1638.545)" fill="#231f20"/>
      <path id="Path_1153" data-name="Path 1153" d="M317.129,232.707a.339.339,0,0,1-.339-.339v-5.529a.346.346,0,0,1,.339-.339.339.339,0,0,1,.339.339v5.542a.339.339,0,0,1-.339.326Z" transform="translate(-1301.825 1638.545)" fill="#231f20"/>
      <path id="Path_1154" data-name="Path 1154" d="M254.349,258.98a.339.339,0,0,1-.339-.339V253.1a.339.339,0,0,1,.339-.339.346.346,0,0,1,.339.339v5.542A.339.339,0,0,1,254.349,258.98Z" transform="translate(-1281.632 1630.099)" fill="#231f20"/>
      <path id="Path_1155" data-name="Path 1155" d="M260.839,258.98a.339.339,0,0,1-.339-.339V253.1a.346.346,0,0,1,.339-.339.339.339,0,0,1,.339.339v5.542A.339.339,0,0,1,260.839,258.98Z" transform="translate(-1283.719 1630.099)" fill="#231f20"/>
      <path id="Path_1156" data-name="Path 1156" d="M267.3,258.98a.339.339,0,0,1-.339-.339V253.1a.339.339,0,0,1,.339-.339.346.346,0,0,1,.339.339v5.542A.339.339,0,0,1,267.3,258.98Z" transform="translate(-1285.797 1630.099)" fill="#231f20"/>
      <path id="Path_1157" data-name="Path 1157" d="M273.769,258.98a.339.339,0,0,1-.339-.339V253.1a.346.346,0,0,1,.339-.339.339.339,0,0,1,.339.339v5.542A.339.339,0,0,1,273.769,258.98Z" transform="translate(-1287.878 1630.099)" fill="#231f20"/>
      <path id="Path_1158" data-name="Path 1158" d="M280.249,258.98a.339.339,0,0,1-.339-.339V253.1a.339.339,0,0,1,.678,0v5.542A.339.339,0,0,1,280.249,258.98Z" transform="translate(-1289.962 1630.099)" fill="#231f20"/>
      <path id="Path_1159" data-name="Path 1159" d="M286.729,258.98a.339.339,0,0,1-.339-.339V253.1a.339.339,0,0,1,.339-.339.346.346,0,0,1,.339.339v5.542A.339.339,0,0,1,286.729,258.98Z" transform="translate(-1292.047 1630.099)" fill="#231f20"/>
      <path id="Path_1160" data-name="Path 1160" d="M293.2,258.98a.339.339,0,0,1-.339-.339V253.1a.339.339,0,0,1,.678,0v5.542A.339.339,0,0,1,293.2,258.98Z" transform="translate(-1294.128 1630.099)" fill="#231f20"/>
      <path id="Path_1161" data-name="Path 1161" d="M299.679,258.98a.339.339,0,0,1-.339-.339V253.1a.339.339,0,0,1,.339-.339.346.346,0,0,1,.339.339v5.542A.339.339,0,0,1,299.679,258.98Z" transform="translate(-1296.212 1630.099)" fill="#231f20"/>
      <path id="Path_1162" data-name="Path 1162" d="M306.149,258.98a.339.339,0,0,1-.339-.339V253.1a.346.346,0,0,1,.339-.339.339.339,0,0,1,.339.339v5.542A.339.339,0,0,1,306.149,258.98Z" transform="translate(-1298.293 1630.099)" fill="#231f20"/>
      <path id="Path_1163" data-name="Path 1163" d="M312.629,258.98a.339.339,0,0,1-.339-.339V253.1a.339.339,0,0,1,.678,0v5.542A.339.339,0,0,1,312.629,258.98Z" transform="translate(-1300.377 1630.099)" fill="#231f20"/>
      <g id="_040---Folded-Shirts" data-name="040---Folded-Shirts" transform="translate(-1251.882 1828.767)">
        <g id="Icons" transform="translate(0.317 0.323)">
          <path id="Shape" d="M23.83,19.439v9.039a1.089,1.089,0,0,1-1.092,1.092H9.092A1.089,1.089,0,0,1,8,28.478v-1.44H20.2A1.089,1.089,0,0,0,21.3,25.945V16.907a2.694,2.694,0,0,0-.047-.507l.681.377.5.279A2.729,2.729,0,0,1,23.83,19.439Z" transform="translate(-5.467 -11.208)" fill="#485189"/>
          <path id="Shape-2" data-name="Shape" d="M22.88,20.635v9.039a1.089,1.089,0,0,1-1.092,1.092H9.092A1.089,1.089,0,0,1,8,29.674v-1.44H20.2A1.089,1.089,0,0,0,21.3,27.141V18.15l.18.1A2.729,2.729,0,0,1,22.88,20.635Z" transform="translate(-5.467 -12.404)" fill="#22cae8"/>
          <path id="Shape-3" data-name="Shape" d="M15.83,10.53v9.039a1.089,1.089,0,0,1-1.092,1.092H1.092A1.089,1.089,0,0,1,0,19.569V10.53A2.729,2.729,0,0,1,1.4,8.146L3.34,7.07H12.49l1.938,1.076A2.729,2.729,0,0,1,15.83,10.53Z" transform="translate(0 -4.832)" fill="#cfd8dc"/>
          <path id="Shape-4" data-name="Shape" d="M14.88,10.53v9.039a1.089,1.089,0,0,1-1.092,1.092H1.092A1.089,1.089,0,0,1,0,19.569V10.53A2.729,2.729,0,0,1,1.4,8.146L3.34,7.07h8.2l1.938,1.076A2.729,2.729,0,0,1,14.88,10.53Z" transform="translate(0 -4.832)" fill="#f5f5f5"/>
          <g id="Group_1218" data-name="Group 1218" transform="translate(5.382 7.282)">
            <circle id="Oval" cx="0.633" cy="0.633" r="0.633" fill="#545c60"/>
            <circle id="Oval-2" data-name="Oval" cx="0.633" cy="0.633" r="0.633" transform="translate(0 2.533)" fill="#545c60"/>
            <circle id="Oval-3" data-name="Oval" cx="0.633" cy="0.633" r="0.633" transform="translate(0 5.065)" fill="#545c60"/>
          </g>
          <path id="Shape-5" data-name="Shape" d="M18.8.545A12.326,12.326,0,0,0,14.981,0,12.326,12.326,0,0,0,11.16.545,3.587,3.587,0,0,0,10.34,3a11.432,11.432,0,0,0,3,2.457,4,4,0,0,1,1.637-1.9,4.048,4.048,0,0,1,1.637,1.9,11.432,11.432,0,0,0,3-2.457A3.587,3.587,0,0,0,18.8.545Z" transform="translate(-7.066 0)" fill="#d1d4d1"/>
          <path id="Shape-6" data-name="Shape" d="M14.981,4.7a4.048,4.048,0,0,0-1.637,1.9,11.432,11.432,0,0,1-3-2.457,3.587,3.587,0,0,1,.82-2.457,9.574,9.574,0,0,0,1.187,1.3A9.181,9.181,0,0,0,14.981,4.7Z" transform="translate(-7.066 -1.155)" fill="#cfd8dc"/>
          <path id="Shape-7" data-name="Shape" d="M20.573.545a9.574,9.574,0,0,1-1.187,1.3,18.144,18.144,0,0,0-2.634-.209,18.144,18.144,0,0,0-2.634.209A9.574,9.574,0,0,1,12.93.545,12.326,12.326,0,0,1,16.751,0a12.326,12.326,0,0,1,3.821.545Z" transform="translate(-8.836 0)" fill="#9e9e9e"/>
          <path id="Shape-8" data-name="Shape" d="M21.948,5.379a9.181,9.181,0,0,1-2.634,1.7,9.181,9.181,0,0,1-2.634-1.7,18.144,18.144,0,0,1,2.634-.209A18.144,18.144,0,0,1,21.948,5.379Z" transform="translate(-11.399 -3.533)" fill="#37474f"/>
          <path id="Shape-9" data-name="Shape" d="M29.641,4.2a11.432,11.432,0,0,1-3,2.457A4,4,0,0,0,25,4.754a9.181,9.181,0,0,0,2.634-1.7,9.574,9.574,0,0,0,1.187-1.3A3.547,3.547,0,0,1,29.641,4.2Z" transform="translate(-17.085 -1.196)" fill="#cfd8dc"/>
        </g>
        <g id="Layer_9" transform="translate(0 0)">
          <path id="Shape-10" data-name="Shape" d="M17.432,6.875l-1.061-.589A3.039,3.039,0,0,0,14.9,4.339l-1.8-1a3.587,3.587,0,0,0-.807-1.716.332.332,0,0,0-.095-.07C10.66.79,5.806.79,4.274,1.55a.332.332,0,0,0-.095.07,3.587,3.587,0,0,0-.807,1.7L1.564,4.339A3.052,3.052,0,0,0,0,7V16.04a1.412,1.412,0,0,0,1.409,1.409H2.533v1.124a1.412,1.412,0,0,0,1.409,1.409H17.587A1.412,1.412,0,0,0,19,18.573V9.534a3.039,3.039,0,0,0-1.564-2.659ZM14.582,4.893A2.416,2.416,0,0,1,15.83,7V16.04a.776.776,0,0,1-.776.776H8.548V5.441A4.29,4.29,0,0,1,9.577,6.878a.317.317,0,0,0,.45.158A11.688,11.688,0,0,0,13.12,4.5c.089-.114.07-.225.063-.393ZM8.231,4.507A8.922,8.922,0,0,1,6.348,3.364a17.226,17.226,0,0,1,3.767,0A8.922,8.922,0,0,1,8.231,4.507Zm3.8-2.14a3.59,3.59,0,0,1,.507,1.824A11.369,11.369,0,0,1,10,6.311,4.572,4.572,0,0,0,8.884,4.9a10.15,10.15,0,0,0,3.163-2.533Zm-.507-.38a8.865,8.865,0,0,1-.76.823,17.59,17.59,0,0,0-5.065,0,8.865,8.865,0,0,1-.779-.823,15.358,15.358,0,0,1,6.62,0Zm-7.111.38A9.985,9.985,0,0,0,7.579,4.9,4.572,4.572,0,0,0,6.458,6.311,11.359,11.359,0,0,1,3.926,4.19,3.619,3.619,0,0,1,4.413,2.367ZM.633,16.04V7A2.416,2.416,0,0,1,1.874,4.893L3.28,4.111c0,.174-.025.279.063.393A11.688,11.688,0,0,0,6.436,7.036a.317.317,0,0,0,.453-.158A4.154,4.154,0,0,1,7.915,5.441V16.816H1.409a.776.776,0,0,1-.776-.776Zm2.533,2.533V17.449h7.282v1.9H3.942a.776.776,0,0,1-.776-.776Zm15.2,0a.776.776,0,0,1-.776.776H11.081v-1.9h3.973a1.412,1.412,0,0,0,1.409-1.409V7.059l.659.367a2.416,2.416,0,0,1,1.241,2.108Z" transform="translate(0 -0.98)" fill="#101a56"/>
          <path id="Shape-11" data-name="Shape" d="M17.95,25.9a.95.95,0,1,0-.95-.95A.95.95,0,0,0,17.95,25.9Zm0-1.266a.317.317,0,1,1-.317.317A.317.317,0,0,1,17.95,24.633Z" transform="translate(-11.618 -16.712)"/>
          <path id="Shape-12" data-name="Shape" d="M17.95,33.9a.95.95,0,1,0-.95-.95A.95.95,0,0,0,17.95,33.9Zm0-1.266a.317.317,0,1,1-.317.317A.317.317,0,0,1,17.95,32.633Z" transform="translate(-11.618 -22.179)"/>
          <path id="Shape-13" data-name="Shape" d="M17.95,41.9a.95.95,0,1,0-.95-.95A.95.95,0,0,0,17.95,41.9Zm0-1.266a.317.317,0,1,1-.317.317A.317.317,0,0,1,17.95,40.633Z" transform="translate(-11.618 -27.647)"/>
        </g>
      </g>
      <g id="_040---Folded-Shirts-2" data-name="040---Folded-Shirts" transform="translate(-1044.426 1840.788)">
        <g id="Icons-2" data-name="Icons" transform="translate(0.336 0.342)">
          <path id="Shape-14" data-name="Shape" d="M24.789,19.623V29.21a1.155,1.155,0,0,1-1.158,1.158H9.158A1.155,1.155,0,0,1,8,29.21V27.682H20.944A1.155,1.155,0,0,0,22.1,26.524V16.937a2.857,2.857,0,0,0-.05-.537l.722.4.531.3A2.894,2.894,0,0,1,24.789,19.623Z" transform="translate(-5.314 -10.893)" fill="#485189"/>
          <path id="Shape-15" data-name="Shape" d="M23.781,20.786v9.586a1.155,1.155,0,0,1-1.158,1.158H9.158A1.155,1.155,0,0,1,8,30.372V28.844H20.944A1.155,1.155,0,0,0,22.1,27.686V18.15l.191.107A2.894,2.894,0,0,1,23.781,20.786Z" transform="translate(-5.314 -12.056)" fill="#22cae8"/>
          <path id="Shape-16" data-name="Shape" d="M16.789,10.74v9.586a1.155,1.155,0,0,1-1.158,1.158H1.158A1.155,1.155,0,0,1,0,20.326V10.74A2.894,2.894,0,0,1,1.487,8.212L3.542,7.07h9.7L15.3,8.212A2.894,2.894,0,0,1,16.789,10.74Z" transform="translate(0 -4.696)" fill="#cfd8dc"/>
          <path id="Shape-17" data-name="Shape" d="M15.781,10.74v9.586a1.155,1.155,0,0,1-1.158,1.158H1.158A1.155,1.155,0,0,1,0,20.326V10.74A2.894,2.894,0,0,1,1.487,8.212L3.542,7.07h8.7l2.055,1.142A2.894,2.894,0,0,1,15.781,10.74Z" transform="translate(0 -4.696)" fill="#f5f5f5"/>
          <g id="Group_1218-2" data-name="Group 1218" transform="translate(5.708 7.723)">
            <circle id="Oval-4" data-name="Oval" cx="0.672" cy="0.672" r="0.672" fill="#545c60"/>
            <circle id="Oval-5" data-name="Oval" cx="0.672" cy="0.672" r="0.672" transform="translate(0 2.686)" fill="#545c60"/>
            <circle id="Oval-6" data-name="Oval" cx="0.672" cy="0.672" r="0.672" transform="translate(0 5.372)" fill="#545c60"/>
          </g>
          <path id="Shape-18" data-name="Shape" d="M19.315.578A13.073,13.073,0,0,0,15.262,0,13.073,13.073,0,0,0,11.21.578a3.8,3.8,0,0,0-.87,2.606,12.125,12.125,0,0,0,3.186,2.606,4.247,4.247,0,0,1,1.736-2.015A4.293,4.293,0,0,1,17,5.789a12.125,12.125,0,0,0,3.186-2.606,3.8,3.8,0,0,0-.87-2.606Z" transform="translate(-6.868 0)" fill="#d1d4d1"/>
          <path id="Shape-19" data-name="Shape" d="M15.262,4.887A4.293,4.293,0,0,0,13.526,6.9,12.125,12.125,0,0,1,10.34,4.3a3.8,3.8,0,0,1,.87-2.606,10.154,10.154,0,0,0,1.259,1.38A9.737,9.737,0,0,0,15.262,4.887Z" transform="translate(-6.868 -1.123)" fill="#cfd8dc"/>
          <path id="Shape-20" data-name="Shape" d="M21.036.578a10.154,10.154,0,0,1-1.259,1.38,19.243,19.243,0,0,0-2.794-.222,19.243,19.243,0,0,0-2.794.222A10.154,10.154,0,0,1,12.93.578,13.073,13.073,0,0,1,16.983,0a13.073,13.073,0,0,1,4.053.578Z" transform="translate(-8.588 0)" fill="#9e9e9e"/>
          <path id="Shape-21" data-name="Shape" d="M22.267,5.392A9.737,9.737,0,0,1,19.474,7.2,9.737,9.737,0,0,1,16.68,5.392a19.243,19.243,0,0,1,2.794-.222A19.243,19.243,0,0,1,22.267,5.392Z" transform="translate(-11.079 -3.434)" fill="#37474f"/>
          <path id="Shape-22" data-name="Shape" d="M29.922,4.346a12.125,12.125,0,0,1-3.186,2.606A4.247,4.247,0,0,0,25,4.936,9.737,9.737,0,0,0,27.794,3.13a10.154,10.154,0,0,0,1.259-1.38A3.762,3.762,0,0,1,29.922,4.346Z" transform="translate(-16.606 -1.162)" fill="#cfd8dc"/>
        </g>
        <g id="Layer_9-2" data-name="Layer_9" transform="translate(0 0)">
          <path id="Shape-23" data-name="Shape" d="M18.488,7.232l-1.125-.625A3.223,3.223,0,0,0,15.8,4.543L13.884,3.478a3.8,3.8,0,0,0-.856-1.82.353.353,0,0,0-.1-.074c-1.622-.806-6.769-.806-8.394,0a.353.353,0,0,0-.1.074,3.8,3.8,0,0,0-.856,1.806L1.659,4.543A3.237,3.237,0,0,0,0,7.366v9.586a1.5,1.5,0,0,0,1.494,1.494H2.686v1.192A1.5,1.5,0,0,0,4.18,21.133H18.652a1.5,1.5,0,0,0,1.494-1.494V10.053a3.223,3.223,0,0,0-1.659-2.82Zm-3.022-2.1a2.562,2.562,0,0,1,1.323,2.236v9.586a.823.823,0,0,1-.823.823h-6.9V5.711a4.55,4.55,0,0,1,1.091,1.524.336.336,0,0,0,.477.168,12.4,12.4,0,0,0,3.281-2.686c.094-.121.074-.238.067-.416ZM8.73,4.721a9.462,9.462,0,0,1-2-1.212,18.269,18.269,0,0,1,4,0,9.462,9.462,0,0,1-2,1.212Zm4.029-2.27A3.808,3.808,0,0,1,13.3,4.385a12.058,12.058,0,0,1-2.686,2.25,4.849,4.849,0,0,0-1.189-1.5,10.765,10.765,0,0,0,3.354-2.686Zm-.537-.4a9.4,9.4,0,0,1-.806.873,18.656,18.656,0,0,0-5.372,0,9.4,9.4,0,0,1-.826-.873,16.289,16.289,0,0,1,7.021,0Zm-7.541.4A10.59,10.59,0,0,0,8.038,5.137a4.849,4.849,0,0,0-1.189,1.5,12.048,12.048,0,0,1-2.686-2.25A3.838,3.838,0,0,1,4.681,2.451ZM.672,16.953V7.366A2.562,2.562,0,0,1,1.988,5.13L3.479,4.3c0,.185-.027.3.067.416A12.4,12.4,0,0,0,6.826,7.4a.336.336,0,0,0,.48-.168A4.405,4.405,0,0,1,8.394,5.711V17.775h-6.9a.823.823,0,0,1-.823-.823Zm2.686,2.686V18.447h7.723v2.015H4.18a.823.823,0,0,1-.823-.823Zm16.117,0a.823.823,0,0,1-.823.823h-6.9V18.447h4.214a1.5,1.5,0,0,0,1.494-1.494V7.427l.7.389a2.562,2.562,0,0,1,1.316,2.236Z" transform="translate(0 -0.98)" fill="#101a56"/>
          <path id="Shape-24" data-name="Shape" d="M18.007,26.015A1.007,1.007,0,1,0,17,25.007,1.007,1.007,0,0,0,18.007,26.015Zm0-1.343a.336.336,0,1,1-.336.336A.336.336,0,0,1,18.007,24.672Z" transform="translate(-11.292 -16.27)"/>
          <path id="Shape-25" data-name="Shape" d="M18.007,34.015A1.007,1.007,0,1,0,17,33.007,1.007,1.007,0,0,0,18.007,34.015Zm0-1.343a.336.336,0,1,1-.336.336A.336.336,0,0,1,18.007,32.672Z" transform="translate(-11.292 -21.584)"/>
          <path id="Shape-26" data-name="Shape" d="M18.007,42.015A1.007,1.007,0,1,0,17,41.007,1.007,1.007,0,0,0,18.007,42.015Zm0-1.343a.336.336,0,1,1-.336.336A.336.336,0,0,1,18.007,40.672Z" transform="translate(-11.292 -26.898)"/>
        </g>
      </g>
    </g>
    <g id="Group_1223" data-name="Group 1223" transform="translate(658 -98.791)">
      <path id="Path_1207" data-name="Path 1207" d="M91.59,68.767a9.186,9.186,0,1,0,18.373,0h-9.186V59.58A9.19,9.19,0,0,0,91.59,68.767Z" transform="translate(-1708.05 1325.331)" fill="#101a56"/>
      <path id="Path_1208" data-name="Path 1208" d="M127.2,55.06v9.187h9.187A9.19,9.19,0,0,0,127.2,55.06Z" transform="translate(-1732.99 1328.496)" fill="#101a56"/>
    </g>
    <g id="Group_1226" data-name="Group 1226" transform="translate(512 -20)">
      <path id="Path_1227" data-name="Path 1227" d="M198.724,61.135h-31.6a.293.293,0,0,1,0-.585h31.6a.293.293,0,0,1,.293.293A.3.3,0,0,1,198.724,61.135Z" transform="translate(-1708.05 1328.496)" fill="#101a56"/>
      <path id="Path_1228" data-name="Path 1228" d="M192.242,69.015h-24.31a.293.293,0,0,1-.293-.293.3.3,0,0,1,.293-.293h24.31a.293.293,0,1,1,0,.585Z" transform="translate(-1708.386 1325.228)" fill="#101a56"/>
      <path id="Path_1229" data-name="Path 1229" d="M195.326,76.585H167.143a.293.293,0,1,1,0-.585h28.184a.3.3,0,0,1,.293.293A.293.293,0,0,1,195.326,76.585Z" transform="translate(-1708.058 1322.088)" fill="#101a56"/>
      <path id="Path_1230" data-name="Path 1230" d="M219.791,68.645H215.3a.293.293,0,0,1,0-.585h4.489a.293.293,0,0,1,0,.585Z" transform="translate(-1728.035 1325.381)" fill="#101a56"/>
    </g>
    <g id="Group_1225" data-name="Group 1225" transform="translate(456 -127.187)">
      <path id="Path_1231" data-name="Path 1231" d="M188.321,108.7H168.129a.359.359,0,0,1-.359-.359V91.789a.359.359,0,1,1,.717,0V107.98h19.834a.359.359,0,0,1,0,.717Z" transform="translate(-1708.052 1328.496)" fill="#101a56"/>
      <path id="Path_1232" data-name="Path 1232" d="M168.126,110.288a.351.351,0,0,1-.258-.6l8.476-9.085a.359.359,0,0,1,.3-.108.344.344,0,0,1,.265.165l1.778,2.811,5.737-6.31a.359.359,0,0,1,.509,0,.351.351,0,0,1,0,.5l-6.052,6.662a.373.373,0,0,1-.3.122.351.351,0,0,1-.272-.172l-1.771-2.868-8.16,8.741A.351.351,0,0,1,168.126,110.288Z" transform="translate(-1708.05 1326.906)" fill="#101a56"/>
    </g>
    <g id="Group_1224" data-name="Group 1224" transform="translate(516 -103.697)">
      <rect id="Rectangle_515" data-name="Rectangle 515" width="5.693" height="16.142" transform="translate(-1540.744 1452.986)" fill="#101a56"/>
      <rect id="Rectangle_516" data-name="Rectangle 516" width="5.693" height="10.664" transform="translate(-1530.922 1458.47)" fill="#dee2e8"/>
      <rect id="Rectangle_517" data-name="Rectangle 517" width="5.693" height="13.78" transform="translate(-1521.105 1455.348)" fill="#dee2e8"/>
      <path id="Path_1233" data-name="Path 1233" d="M197.059,153.641H163.265a.275.275,0,1,1,0-.551h33.793a.275.275,0,0,1,.275.275.281.281,0,0,1-.275.275Z" transform="translate(-1708.05 1315.642)" fill="#dee2e8"/>
    </g>
    <g id="Group_1227" data-name="Group 1227" transform="translate(580 -81)">
      <path id="Path_1227-2" data-name="Path 1227" d="M193.256,61.035H167.072a.242.242,0,1,1,0-.485h26.184a.242.242,0,0,1,.242.242A.247.247,0,0,1,193.256,61.035Z" transform="translate(-1708.05 1328.496)" fill="#101a56"/>
      <path id="Path_1228-2" data-name="Path 1228" d="M188.025,68.915H167.882a.242.242,0,0,1-.242-.242.247.247,0,0,1,.242-.242h20.142a.242.242,0,1,1,0,.485Z" transform="translate(-1708.467 1324.437)" fill="#101a56"/>
      <path id="Path_1229-2" data-name="Path 1229" d="M190.445,76.485H167.092a.242.242,0,0,1,0-.485h23.352a.247.247,0,0,1,.242.242A.242.242,0,0,1,190.445,76.485Z" transform="translate(-1708.06 1320.538)" fill="#101a56"/>
      <path id="Path_1230-2" data-name="Path 1230" d="M218.971,68.545h-3.719a.242.242,0,1,1,0-.485h3.719a.242.242,0,1,1,0,.485Z" transform="translate(-1732.868 1324.628)" fill="#101a56"/>
    </g>
  </g>
</svg>
